<mxfile host="65bd71144e">
    <diagram id="zOsBUlOQxNhnEtaMxW5K" name="ページ1">
        <mxGraphModel dx="1620" dy="1560" grid="1" gridSize="10" guides="1" tooltips="1" connect="1" arrows="1" fold="1" page="1" pageScale="1" pageWidth="827" pageHeight="1169" math="0" shadow="0">
            <root>
                <mxCell id="0"/>
                <mxCell id="1" parent="0"/>
                <mxCell id="4" value="" style="shape=image;verticalLabelPosition=bottom;labelBackgroundColor=#ffffff;verticalAlign=top;aspect=fixed;imageAspect=0;image=data:image/png,iVBORw0KGgoAAAANSUhEUgAAAlgAAAGQCAYAAAByNR6YAAAAOXRFWHRTb2Z0d2FyZQBNYXRwbG90bGliIHZlcnNpb24zLjMuNCwgaHR0cHM6Ly9tYXRwbG90bGliLm9yZy8QVMy6AAAACXBIWXMAAA9hAAAPYQGoP6dpAADEr0lEQVR4nOy9d5glR33v/amOJ58zcWdzkna1WoWVUEQggUSwiALLRmCDfLnXlgm+NjY2XK5ffLF5jfFzMTbCJhm/skUSNiAMWDISQTIChJCQtMqb0+zEk0PHqvePOnN2Z2c2anYV6M/z6NFOT3d1dXVP17d/qYRSSpGQkJCQkJCQkLBgGM90BxISEhISEhISnm8kAishISEhISEhYYFJBFZCQkJCQkJCwgKTCKyEhISEhISEhAUmEVgJCQkJCQkJCQtMIrASEhISEhISEhaYRGAlJCQkJCQkJCwwicBKSEhISEhISFhgEoGVkJCQkJCQkLDAJAIrISEhISEhIWGBSQRWQkJCQkJCQsICkwishISEhISEhIQFJhFYCQkJCQkJCQkLTCKwEhISEhISEhIWmERgJSQkJCQkJCQsMInASkhISEhISEhYYBKBlZCQkJCQkJCwwCQCKyEhISEhIWFB2b9/P2effTb333//M92VHldeeSXvf//7ez/ffffdnHfeeZTL5ZNyvkRgJSQkJCQkJCwof//3f8+5557LC17wgt627du385d/+Zdcd911nH322axfv569e/eeUPtbt27lxhtvPOHjAS6//HJWrFjBZz7zmRNu40gkAishISEhISFhwSiXy9x6661cd911s7Y/+OCD3HzzzbRaLdauXfu0zrF161Y++clPsm/fvqfVzpve9CZuueUWms3m02pnPhKBlZCQkJCQkLBg/Pu//zumafLSl7501vYrr7yS++67j29961u89rWvfYZ6N5tXvvKVBEHA7bffvuBtJwIrISEhISHhGeLGG29k/fr17Nixg/e+97284AUv4JJLLuFv//ZvUUqxf/9+3vGOd3D++edz2WWX8U//9E9z2giCgE984hO8/OUv56yzzuKKK67gr//6rwmCYNZ+X/va13jb297GpZdeyllnncWrXvUqvvSlL81p78orr+SGG27g5z//Oddeey1nn302V111FbfeeusxXdOdd97JOeecQzabnbW9VCqRy+WOqY3vfOc7vPGNb+S8887j/PPP57WvfS3//M//DMDXv/51fv/3fx+At73tbaxfv57169dz7733AqCU4h/+4R+4/PLLOffcc3nrW9/Kli1b5j3PwMAA69ev53vf+94x9et4sBa8xYSEhISEhITj4j3veQ9r167lj/7oj7jrrrv41Kc+RalU4itf+QqXXHIJ733ve/nWt77FRz/6Uc4++2wuvPBCAKSUvOMd7+D+++/n13/911m7di1PPfUU//zP/8zOnTv5h3/4h945vvzlL3P66adz5ZVXYlkWP/jBD/jQhz6EUorf+I3fmNWfXbt28fu///tce+21vOENb+BrX/sa73//+9m4cSOnn376Ya8jDEM2b97Mm9/85hMei3vuuYc//MM/5NJLL+W9730voOO3HnjgAa6//nouvPBC3vrWt3LzzTfzu7/7u6xZswag53b8u7/7Oz71qU9xxRVXcMUVV/Doo4/y9re/nTAM5z3fxo0bufPOO0+4v4dFJSQkJCQkJDwjfOITn1Dr1q1T/8//8//0tkVRpC6//HK1fv169ZnPfKa3vVarqXPOOUe9733v62279dZb1RlnnKHuu+++We1++ctfVuvWrVP3339/b1un05lz/re//e3qqquumrXtpS99qVq3bt2sNqenp9VZZ52l/uqv/uqI17Nr1y61bt06dfPNNx9xv3/8x39U69atU3v27Jnzuw9/+MPq/PPPV1EUHfb42267Ta1bt0799Kc/nbV9enpabdy4Uf3O7/yOklL2tv/N3/yNWrdu3ayxm+HTn/60WrdunZqamjpin4+XxEWYkJCQkJDwDHPttdf2/m2aJmeddRZKqVnbC4UCq1evZs+ePb1tt99+O2vXrmXNmjWUy+Xef5dccglAz20GkEqlev9uNBqUy2Uuuugi9uzZQ6PRmNWf0047jQsuuKD3c39//5xzz0e1Wu319UQpFAp0Oh3uueee4z72xz/+MWEY8pu/+ZsIIXrbr7/++iOeD6BSqRx/Z49A4iJMSEhISEh4hlmyZMmsn/P5PK7r0t/fP2f7jIgB7crbtm0bl1566bztTk9P9/59//33c+ONN/Lggw/S6XRm7ddoNMjn872fFy9ePKetYrFIrVY7putRSh3TfvPxlre8hdtuu43f/u3fZtGiRVx22WVcffXVXH755Uc9dnR0FIBVq1bN2t7f30+xWDxiXw8WZAtBIrASEhISEhKeYQxjrkPJNM159z1YvEgpWbduHf/rf/2vefcdGRkBYPfu3fzWb/0Wa9as4f3vfz+LFy/Gtm3uuusubrrpJqSUx3Tuo1EqlQCo1+sndDzowPNbb72VH/3oR9x9993cfffdfP3rX+eaa67hox/96Am3ezhm+trX17eg7SYCKyEhISEh4TnKihUreOKJJ7j00kuPaIH5/ve/TxAEfOpTn5plLTvYhbgQLF68mFQq9bQKgAI4jsOVV17JlVdeiZSS//N//g+33HIL73znO1m5cuVhr3Xm2nbu3Mny5ct728vl8mGtb3v37qWvr2+OtfDpksRgJSQkJCQkPEe5+uqrGR8f56tf/eqc33meR7vdBg5YpA62fjUaDb72ta8taH9s2+ass87ikUceOeE2Do2FMgyD9evXA/RKT6TTaYA5sWMvfOELsW2bL3zhC7OudabEw3w8+uijbNq06YT7ezgSC1ZCQkJCQsJzlNe//vXcdttt/Nmf/Rn33nsv559/PnEcs337dm6//Xb+8R//kbPPPpvLLrsM27b53d/9Xa677jparRb/+q//ysDAAJOTkwvap6uuuoqPf/zjNJvNWXWvGo0GN998MwAPPPAAAF/84hfJ5/MUCgV+8zd/E4A//dM/pVarcckll7Bo0SJGR0f5whe+wIYNG3qlGDZs2IBpmnzuc5+j0WjgOA6XXHIJAwMDvP3tb+czn/kMN9xwA1dccQWPPfYYd99997wuwOnpaZ588kne8pa3LOgYQCKwEhISEhISnrMYhsHf//3fc9NNN/HNb36TO+64g3Q6zbJly3jrW9/K6tWrAVizZg2f+MQn+Nu//Vs++tGPMjg4yJvf/Gb6+/v5wAc+sKB9ev3rX8/HPvYxvve97/H617++t71Wq/F3f/d3s/adKZy6dOnSnsB63etex1e/+lW+9KUvUa/XGRoa4uqrr+b3fu/3erFqQ0NDfOhDH+Izn/kM//t//2/iOOZf/uVfGBgY4A/+4A9wHIevfOUr3HvvvZxzzjn80z/9EzfccMOcvn73u9/FcRyuvvrqBR0DAKGeTqh/QkJCQkJCQsIhfOADH2Dnzp3zVop/NnHNNddw0UUXLbjIhCQGKyEhISEhIWGBefe7383mzZu5//77n+muHJa7776bXbt2zWvZWggSC1ZCQkJCQkJCwgKTWLASEhISEhISEhaYRGAlJCQkJCQkJCwwicBKSEhISEhISFhgEoGVkJCQkJCQkLDAJHWwTpBf/OIXKKWwbfuZ7kpCQkJCQkLCAhCGIUIIzjvvvKfdVmLBOkGUUk9rtfDDtRkEwYK3mzA/yXifWpLxPnUkY31qScb71HIyx3sh5/bEgnWCzFiuzj777AVrs91u8/jjj3PaaaeRyWQWrN2E+UnG+9SSjPepIxnrU0sy3qeWkznemzdvXrC2EgtWQkJCQkJCQsICkwishISEhISEhIQFJhFYCQkJCQkJCQkLTCKwEhISEhISEhIWmERgJSQkJCQkJCQsMEkW4SkgjmPCMDzqfr7v9/5vGIn2Pdkcbbxt28Y0zVPdrYSEhISE5wGJwDqJKKUYGxujWq0e0/5SSizLYnR0NBFYp4BjGe9SqcTIyAhCiFPcu4SEhISE5zKJwDqJzIir4eFhMpnMUSfpOI7xfR/XdRPLySngSOOtlKLdbjMxMQHA4sWLn4kuJiQkJCQ8R0kE1kkijuOeuBoYGDjmYwBSqVQisE4BRxvvdDoNwMTEBMPDw8k9SUhISEg4ZhI/1EliJuYqqer73Gbm/h1LDF1CQkJCQsIMicA6ySSxO89tkvuXkJCQkHAiJAIrISEhISEhIWGBSQRWwlG58847+eIXv7igbV555ZX8+Z//+XEft379ej7/+c8vaF8SEhISEhIWmiTIPeGo3HnnnTzyyCP8xm/8xoK1+clPfpJCoXDcx91yyy0sWbJkwfqRkJCQkJBwMkgEVsKCoJQiDEMcxzmm/c8888wTOs+mTZtO6LiEhISEhIRTSeIiTDgi73//+/nGN77Bli1bWL9+PevXr+f9738/73//+3nNa17DXXfdxete9zrOPvtsvv/979Nut/nzP/9zXvnKV3Luuedy5ZVX8sEPfpBGozGr3UNdhDPt3XvvvVxzzTVs2rSJa6+9lkceeWTWcYe6CN/61rdyww03cPvtt/PKV76S8847j7e97W3s3r171nFjY2PccMMNnHvuuVxxxRXcdNNNfOQjH+HVr371SRi1hISEhIRfdhILVsIReec730m5XGb79u383//7fwHo7+/nH/7hH5iYmODDH/4w73jHO1i8eDFLlizB8zziOOY973kP/f397N+/n09/+tO8853v5Oabbz7iuSYnJ/nwhz/M7/zO75DP5/nYxz7Gu9/9bu644w5s2z7scY8//jjlcpn3vve9xHHMX/3VX/HHf/zH3HLLLYC2rr3zne9kamqKD33oQ+TzeT7/+c+zb9++JEswISEhIeGkkAisU4xSCj+I5/1dLGO8IAYjwjTUgp/bdczjFhQrVqygv7+f0dHROe65Wq3G5z73Oc4999xZ2z/0oQ/1/h1FEcuWLeMtb3kLO3bsYPXq1Yc9V61W4wtf+AKnn346oAt9vu1tb+Ohhx7iggsuOOxxjUaDW2+9lf7+fgDa7Tb/63/9L8bGxhgZGeHuu+/m0Ucf5Ytf/GKvnUsuuYQrrriCXC53XOORkJCQkJBwLCQC6xSilOJ9n/wRj+8sPyPn37Cqn4+++0ULZrUplUpzxBXArbfeyk033cSuXbtot9u97Tt37jyiwBoeHu6JK4DTTjsNgPHx8SP244wzzuiJq4OPmxFYmzdvplAozBJp2WyWSy65ZI4LMiEhISEhYSFIBFbCCTM4ODhn2x133MH73vc+3vSmN/Ge97yHUqnE5OQk73rXu/B9/4jtHZpVOOMWfLrHTUxMzBJgM8y3LSEhISEhYSFIBNYpRAjBR9/9oiO7CD2fVMrFNBZ+3bsTcREeifnauv3229mwYcOsAPaf/exnC3bOE2F4eJhyea7VcL5tCQkJCQkJC0EisE4xQghS7vzDHscCZETKsZ5VCwvbtn1UK9IMnufNCUj/1re+dTK6dcycffbZ1Ot17rvvPi688EIAWq0WP/3pT5MYrISEhISEk0JSpiHhqKxdu5Z9+/bx7W9/m82bN7N3797D7vvCF76Qhx9+mL//+7/nxz/+MR/5yEf4yU9+cgp7O5fLL7+cjRs38kd/9EfceuutfP/73+e3f/u3yWazGEbyJ5CQkJCQsPAkFqyEo3Lttdfy8MMP8xd/8RdUq1Xe8IY3HHbf6667jr179/KFL3yBz3/+87zoRS/iYx/7GL/+679+Cns8GyEE//AP/8AHP/hBPvjBD1IoFHjb297Gtm3bePzxx5+xfiUkJCQkPH8RSqmFrwfwS8DmzZsB7X6aD8/zemUJUqnUMbUZxzGe55FKpZ5VLsLnI0EQ8KpXvYpNmzbx0Y9+9LDjfSL3MWF+2u02jz/+OBs2bCCTyTzT3Xlek4z1qSUZ71PLyRzvo83tx0NiwUr4peCWW25BSsnq1aup1+t8+ctfZnR0lI985CPPdNcSEhISEp6HJAIr4ZcC13X57Gc/y759+wBdO+tTn/rUCa+JmJCQkJCQcCQSgZXwS8E111zDNddcM2vbjEs2ISEhISFhoUlSqBISEhISEhISFphEYCUkJCQkJCQkLDCJwEpISEhISEhIWGCeUwJr165dfPCDH+T1r389Z555Jq95zWuO6TilFJ/97Gd5yUtewjnnnMOb3vQmHnzwwZPb2YSEhISEhIRfWp5TAmvLli3cddddrFy5krVr1x7zcZ/73Of4xCc+wW/91m/xmc98hqGhId7+9rezZ8+ek9jbhISEhISEhF9WnlMC68orr+Suu+7iE5/4BBs3bjymY3zf5zOf+Qxvf/vb+a3f+i0uvfRS/uZv/oZSqcTnP//5k9zjhISEhISEhF9GnlMC60TWjXvggQdoNptcffXVvW2O4/Dyl7+cu+++eyG7l5CQkJCQkJAAPMcE1omwfft2ANasWTNr+9q1axkdHU3qIB0Dd955J1/84hcXvN16vc6NN97I1q1bF7zthISEhISEZ5LnfaHRer2O4zi4rjtre6FQQClFrVY74TXmlFK02+15f+f7PlJK4jgmjuNjbm/m/8d6zKngjjvu4JFHHuG6665b0Har1Sqf/OQnWbt2LatXr17Qto+FYxnvOI6RUtLpdJBSnsruPe/odDqz/p9w8kjG+tSSjPep5WSOt1IKIcSCtPW8F1gnkzAMefzxxw/7e8uy8H3/uNs9kWNOJnEco5RacGvfzHWGYfiMWhKPNN6+7xNFUc8SmvD02blz5zPdhV8akrE+tSTjfWzEUn/cmsZcIRNLRSeQWIbAtsScfWKpEIBhiJM23o7jLEg7z3uBVSgUCIIA3/dnWbHq9TpCCIrF4gm3bds2p5122ry/832f0dFRXNc9ZguZUqrXz4VS0E+XD3zgA3zrW98C4Pzzzwf0sjN/+Zd/yYMPPsjf/d3f8fDDD2OaJldccQXvf//7GRgY6B3/uc99jn/7t39jfHycbDbL+vXr+fM//3OEEL0yG3/yJ3/S2/+OO+5g6dKlp+TajnW8LctixYoVc6ygCcdHp9Nh586drFq1inQ6/Ux353lNMtanluMd74WykkipkFJhWccW7aOUIooVhgDTNHptgBYsUSSJpMK19e8a7ZAolqQcE8c2sUyDMJJ0/IgwkkSxRAiBIfTxhhAYhiDjWliWgVKKlqf3jWOJH8R0gpjIjwBwXAvHNlAKMikLxzaZqHToNHwaXkTBcegrpUm7JrFUtDohjXZIEARUpie44Jy1FAu5pz2OB7OQISvPe4E1E3u1Y8cOzjjjjN727du3s2TJkhN2DwIIIchkMvP+zjAMDMPANE1M0+xtV0qhwvktJjKOUaGPMsA46JiFQtjHL9ze9a53UalU2L59O//3//5fAPr7+3n44Ye5/vrrueKKK/j4xz9Op9Phb//2b/m93/s9brnlFgBuvfVWbrzxRv7n//yfbNq0iUajwf3330+n02HNmjV88pOf5N3vfjd/+Id/yMUXXwzAyMjIrPE6mcy4BYUQhz2naZoYhkE6nX5az0rCAdLp9GH/bhIWlmSsTy0z4y2lwgsiUo6F0bXAxFLhBxHNdshktYNrm/QVUgRhTMuLGCymKeYchBDEUhGEMW0vpFz3CMIYyzRwbBPXMTENgziWlOsesVSMDGRxbINmO0RKiWNbxLFEKshlbFKOSbXhU657hJHEsQ0W9WeRUjFR6SCl0gIrlsRSUcw6WKbBRMUjiiW2ZWJbAsc2CcIYL4hBgUIBAlC9MRAI8lmbJUM5Ht4yxcNbp8hnbLJpG8s0cB0T2zSYKHcYr7RxbYO+fIoVI3ks0+CBJ8fZvG2avRNN0q7JeeuHOX/9IgpZm/HpNlM1j8GCTbMdYdrugj/fC2nceN4LrPPPP59cLsdtt93WE1hhGPLd736Xyy+//JT2RSnF6L/8b/y9T57S887gLjuDJW/78HE9QCtWrKC/v5/R0VE2bdrU2/6BD3yAs846i09+8pO99tatW8drXvMa7rrrLq644goefvhh1q9fzw033NA77mUve1nv3xs2bABg5cqVs9pOSEhIWGiUUkgFKEUkFVGkLTOmaSClIpYK29LCZbrm0fFDhDDIZ21KORelwAsi/CDGD2P8IMI0DPoKKeJI4gWSatOn4cFUtY3nx2RSFqV8irYX0uqEBJHEDyOUAsfS1hohwBCC6ZpHX95FdsVVGEmCKMYyDCzLwAtiZDMgkgqlFJPVDpW6x5LBLO1OiDBAITAURFJhmqJ73SClZM94E9MUpGyTob4M9VaFONYWpmY70H1vB0xVO0xUOlimoC+fopRzyWcc8hmbWCr2TTZpeRG2ZWCZBpYpyGccsimb6XqHZifkzFX9/GTzGP/+X9tQ6sj3ZYaRgQymYbBvstnb1vFjfvzwfn6yeT9DpQwTlQMxz4WMyUsuefbEKs/Hc0pgdTod7rrrLgD27dtHs9nk9ttvB+Ciiy6iv7+f66+/ntHRUe644w4AXNflhhtu4MYbb6S/v59169bx5S9/mWq1yn//7//9GbiKZ4fr7+nQ6XR44IEH+JM/+ZNZweGrVq1i8eLFbN68mSuuuIIzzzyTL33pS3zkIx/h5S9/Oeeeey62bT+DPU9ISHiuEseSRjsklpJizsUyDfwwJo518onrWJiG6IqZqOdyanYCWu2QWssnivVsP2OpybgWhaxLo+0TRrrdIJRM1zpYhoFUCjEFg6U0XhDR8WPCKAYEphDESjJebhNFAbsmfUK7iuu6OLZJyrVoeRHlepV2JyKdsmj7Ed/44Vb2TTR5wYZFvPyiFfTlU71rqTcDIinZsrvKE7vLTJa1YOkvuGRSNs1OSKMd0GgHxPEB5bJ+RR+5jE2jHbJvsknbC+nLp3Adk44XUW3O9ppkUhZrlxbZtq9G24sOO+Z7xpuH/d2RuO+x8Z5da/WSAlGs6HghYSyJYkUcS4b7Mizqz+AFMVv3Vhmb1uIp5Zi84uKVnHP6IFt2V7nv8XG276sxUWljGoIVI3n2TTYJItmL5Xq28pwSWNPT0/z+7//+rG0zP//Lv/wLF198cS9z72B++7d/G6UU//RP/0S5XGbDhg18/vOfZ/ny5aes76BNj0ve9uHDugjjOO7FBJ0MN9mJuAjno16vE8cxH/nIR/jIRz4y5/f79+8H4I1vfCOtVouvfvWr3HTTTeTzea655hre+973Ju62hITnCTPuJYC2F1JvBQyV0pimoV1SYcxAKY1lzo4TiqUiiiWOZSCE6FqFtIARQmBbBh0/otLwkbGODWp1QqRUlPIuadei0vC6MUUC1zHJZxzKtQ6dIMa1zW4bIQqBa5mYBsSxwnVMLMOgE0Rs26sn8UV9adav6AcDPD+i0QmRsWLZohxT1Q6WZSAEPL6zQqXralu1uMCi/gw/uH83T+6qgKghhCDlmPTlXZYM5ti2rzbLKjPDzx8f5+ePjwOwZDDLyy9eyWSlzQ/v30vbny16Gu1gzvGObTDcl2HfRJMnd1fm/L5cn5041Ncds0Zbi7TN26Z77fTlU/TlXYo5l8FimsFSCj+UeEFEvRlQa2n3YhwrVozkGSyliWN9/6JYdkVfSF/eJYwkP3tsDKXg4o0jvPQFy7BNk0xaC17joDlo5n5GseTeR8doeSEvv2glrmNSa/psWjfE2mVFWp2Q6ZrHactLFLMujWabR5/cRtp9dkuYZ3fvDmHZsmU8+eSR3Ws333zznG1CCG644YZZrqpnCiEEwplfXKg4RkgwnNRJicFaKPL5fG9MD3b5zdDX1wfoOLTrr7+e66+/nvHxcb7zne/wsY99jL6+Pt71rned6m4nJCQcJ343DiiMJBnXIp2yMQ2BUoqOH1Ft+EzXPAo5h3zGYd9Eg3orwA9j8hmHHftq+GFMue6RzThEkexZNlpeSBjGOnjaMvR5QolUM0HXBpV6ByVh0UAWQ0BfTn8k1lvaipNyLKarbSYrHTIpHViddkzSKZt602fbaI19403sbiD1k7srVBs+tmkwWEpz5up+7n9ygmpDf/QOltK0OiGdgwSOAEYGspTyLttHa/jBgQ/4ex4ePWTEtDVtRhBs3VvrXoseM6Vg0+lDXHzWCN//+R627q2iFIxOtfjn7zzWa6Uv73LBhkWsXFwgn7YpN3w8PyKXsbW7Lu1QzLuYhmCy0ubhbVMYQpB2LZYMZilkXR27FcWkHYuBYopcRmfGSal4YleZvRNN1iwpsnppsZepJ5XC8yOanRDXNomkpJTVYy6Enr+kVERSYhlGT1gfTBDGvHjTUsp1j+H+NIv6siCg3vRptkMUYBmCSCrSronjGKhQcf6GYUpZFz+IqbcClg3nWTyYodoI2DNRp5h1MYVgotLG8/1nTSLYkXhOCayEZwbbtmeVMshkMmzatInt27dz9tlnH1MbixYt4u1vfzvf/va3eyUPZtyFz7ayFAkJzwfCWOEFMW5KzUl1V0rhhzEdLyKWCqdr7TENbTkSQtBoB2w/yIVkGtoyk8s4hLGk2RVSKcdidLKJYRgIoJRPMTrZxLEN6q2QxYNZmm1t2TrYeuEFMa5jIoTOLnNtk6yr3WCOZfLTR/fzHz/eQRQrlgxmWbushGubDPelGSyl2bxtigeemKDWmmvdOfrYSPZPt9g/3QKgv5Ci40dMVXVdpbSrRUkUS8am27P2XTyQ5YxV+iPy4a1TTNc81iwpcMYSg/VrV2DbDp0gYrLSZu9Ek8FSmgvOWETKMQkjScq1aHsh/+P1Z2GZBo12wD0PjXLXA3sp5FyuvmQVm9YNIZWOExOGYNlwHsMQveD5IJSU6x0EAiXgwg0jvcw9P4xptUMGSilc26TlhXSCiE4QMxOMvnQox9qlJUBbHb0wBqUtgbZlsHpJgWxaC+Zqd3yVVCj0PpZpEHWD6GfaNIRAKoVtmaRdi6FSmlLOZflIHtc2D8SvBTH1to9pGIwMZEm7Fp4fMTrVYrLS1u7LRUUGi2kMQzDUl8Z1THbtrxFLxdplJXyvQ7s6hm0+u2ulJwIr4aisXbuWr33ta3z7299m5cqV9PX18Sd/8idcf/31/MEf/AGvfvWrKRQKjI2N8eMf/5g3vvGNXHzxxXzwgx+kUCiwadMmCoUCDzzwAE888QRvfvObARgaGqJQKPCd73yHZcuW4TgO69evX7AaJAkJzxdm3DCtdohpCkr5FEJAEEqE0OJnJlBbSsVUpcXuCZ/YKZPPehiGtkDMuM2anbAbrC2hO2mapoFhwEAxzVApze6xOl4QMVBMYQidYeYHMdPVDnGsmK532Lq3RssLOW1piTCO2b6vRjHncsbKfu742S6e2FVhsJji3NO1YAgjSdq12Lm/zpY9VQSwbFGeRf0ZLFPwxM7KnHghgbbwjE615h0b1zZZMpSl0Qq0a03pKV8pnV23fkUfhiEII8nqJQVWjhTwgojt+2o8vHWKYs7lVS9chd+NBRoopVk1UuhZZ2pNn9HJJpWGT18hxfqVfT2h+NoXrcELYlQc8siT2zC6IrS/mGLNkiIXb9T9aHa0wMymbSp1fT/afoRrmxSzLq964WpecdFKTFOgFNRbOhbLtU1kpGhGWswIoWOUinmHXNrBtrTQma51aHRCwijGtvT5/TDC82MGCikGimkQ9ARaoxXS8kIE4Ngmg6U0ubSN1Q1cn3G9pZf34QdaYM88W6Zp9M4bhNqaF3fFvCGgr5BCKkWt6VPKubi29sakHIuUo9sd7p+d+ZdyLVYtLtBfSPVi5w6mkHU4fXlfb992Gxb3O7jOs9fTAyCUOtYY/4SD2bx5M8BhLTie57Fjxw5Wr159zPFGcRzjeR6pVOqUlSo4FprNJh/84Ae55557qFarvOENb+Cv/uqv2Lx5MzfeeCMPPPAAYRgyMjLCJZdcwjve8Q5GRkb4xje+wVe/+lW2b99Op9Nh+fLlXHfddbz1rW/ttX3nnXfyN3/zN+zZs4cgCPje977HsmXLTsl1Hct4n8h9TJifdrvN448/zoYNG35pSwfMpN8rpciktAW37YWIrntnhmY7YLzSppRzMQ2D/VNNas0AJbQlIeWYKCCKtEtKGKKXLQYQ+AET4/tYu3oVpuVo9xR6Ipypm+TYepJMuzZC6N9FkaTRCXBsg6/9YCtj022kVBRzDksGczTaAWPTLSarnWPODjscs5P7525POSavfdEazj19iIe3TlGue3T8iH2TTSbKbVYvLXLxxhHOWNmPfYx1oAD8IMboWupAu8Wmax0s00RJRang9qwxYSSRsbbczJRc6PgRrU4IaGHrOCblapPa9H7OPvN0lGFRqQdEcYwpDCIpyaZt0q5FrRmQcgxWjBQII8neiQZtLyKTssmkLJSC6XqHYtZh8WCul7kXdOOhXNskk7LnXG8stWtvZp9s2kYpuhZGc447bcaCCVqgPhfcbQdzMt8lR5vbj4dEYJ0gv0wC6/lKIrBOLb8MAssLIqJY4domsdQWH9sysC2TSt1jrNwm7E5sA8UUhmEwWWmDgIFCikLORQC7xxs0O2G3gGPX9ZZze1YVL4ioNQNiKVnUl0FBr8hjrenzX7/Yw5M7JznvjMW88Jxl7J9uUan7ILQVJIok9z0+zpY9VVKOyeolRTp+RBRLNqzqZ/O2qV5W1+HIpm3Wr+ijkHXYsqcKwLoVJfaMN9m6t8qSwSy/dtU6JsptduyvkXIsLFMHrheyDhdsWIRpCrbuqVJt+HhBxMrFBdav6EfQ7WesqLY8sq7diyE6lCCKqTd96MYHObYOdvf8iHYQQTf2ybFMwjjGsUykgqhr7YmkJJ+xGRnIMjbdot4KAdULtDd7AfwRpiEQhmDxQAbDEHi+pNH2sYSkWd7LOWefSSaTodkOqDV9YgmWKegvandd24t0qYSuJcfzI8p1j8lqh1YnRKEYKmVYubjQs/wkzOW5IrASF2FCQkLCcdL2QqaqOkvL7maXeX5EueERRQrHNrr1jCSWpV0qrU5I2rVIpyyUhLFuTE827SCA/eU2o1MtTEMLpUV9GcIwZvO2KR7qxvp0/IjhPl0p/MldFRSwbDjHxtUDWKbBlr1Vtu6pMJO9vveeXXzrnl1HvBYviHl8Z7n3894JnfGWS9v8+svWkU/bTNU89k+3ekJk8WCWQsY5rOWj3grIpW0MQ7BqcYGLNo7M2SeKtFXmnNOG5lhklNJjV2/7jAzkqDU8pmodSt3yDDPHNzoBUimG+7MUcw5K6XEt1ztkUjbLhnJk0zZxrJiqtnGdFIu67qmWF1Jp+IRhzMqRArmMDtRvexFS6bi1maKY2srlUa57LB7M0pc/8LEVxRKv0+HJ+oGxyGWceQVhNj27TE3KtVgylGOoL02l4dPxI5YMZrGtRFw9H0gEVkJCwi8tbS9EKXoByN5BGWJKKRA6diQIY8bL2l2WSVlM1Tp4fqxjnxQIdIBMNmWTcfVyIrYpyGUM4li7BQeK6VnB5q6TYbzc5oEnJli7rMjIQJZay2f3WIOJSpvdYw227av13FEzHJx+bxqCvRPNniiaYdVInoGcZOtYSK2pY38WD2SYccApBStG8lx2zhKa7ZA9Ew1yaYcwinngyQn8MObNrziDoZIWc6uWHFhSbCb4Wteg0in2Mxa0mRgvxzZodALCMEYhsAzRiwEyhEB128mkbBqdgHjGVYkWPoYQGKZg6VCeZcM52n1p9k22qDQ8XZsKLUILGZtFA1n68gdK0BRzDs1OSC5tzxIqQ32zl7DJpm2G+zJEseyJNsc258T/AJjoTMJF/Zk5otIy58+mOx5sy2S47/lp1f1lJhFYCQkJzytiqYsatv2IjhfS8WPSronrWL30+/5CCj+I2TvR6K69ZhLFsicItGACpQSOZRDpEuBYhkG14ZN2LYb7DqxNOV5u6QKX7RBhCMIoZv9UCy+IWb+yj+maxx337qLS8DFNbZ3qK6R44MmJ3lpwxZxDrTk3Iy6fsbl442JWLSmQsk32T7fo+BGbTh8inbK577ExJisdgihmpD/LueuGyKcEO3bu4A0vXUkgDUq5w9fAGyimWbm40Pv5wjNHkErXnJqsdjCFwLENTNMgiOJexp8wwDIMchkbYQjiSNL2I5odiW0Zuohntzp324tQ3QwzXeRTMlBMU8w6dIKYWtNjquqhlGLV4gLZtI1p6jYMQ5DLOJy+3KbW8vH8uLfkyoyV7GBsy6Qvf+wWoEPrcx2J51qsUsIzSyKwEhISnvUcvDhuFMteoPFMPM9MgHirEzFRadHqRMSxxDQMTEvHJUnVzbZTiolyW1uuXIuCa+JHutzAoW4v1Q10NoTA6i6jsmuswfd+vptWJ2LZcI4nd1fYvq922L5/554dc7Y12zXoHrNkMMv+6Ra1ZoAAFg1kWDyQZclQjjVLi6xYlJ8lAtYuKwHaAtT2Ii7ftLS3cG+v/VabtqezBPtLmd7+M0HutqVdmNWW3xM+AvCjWMc/AZm0zYqRHEEoaXX0or+ubbJiUYF8RgubQ603MyUEXMfsFRA9Grm0Qa5rTQIO6x4zDL10C/mjNpmQ8KwgEVgJCQnPOM1O2E1f1xNsLm1jdAtK1lt+z3Vnd9dk84IYKbXw2T/V6rl1glBbVwrdxWqjWIuDvkJqVg2mKJZ0vJBHtk0xXm7T8SOKObfnKhzuy3Dmmn6kVDy1u8q9j+5ny+4qYXdZlhk2b5sCtHAr5fV6dbJbT0ivrSZ4clcFIQQvOX8Z560fIogku8cajJfbnLmqnzNW9VNt+ExW2ywbypNOzX4tzwjKgyumx1LR9kIyKYvpukcx6+I6JnEsqTUDOn6gU+mlpFL3EEIQxtqyZAhodrRbb7CYopB1ma7p+k/LivmeMMqmrZ7YUUqXgBAwR8wdjE7FP7FnIIk7Sni+kQisk0ySpPncJrl/C0MYSaaqHSqNsFvRWgcN+4EudDlZ6eBHMQa64rXTdUF5fjcLzzRQ6BR7yzIoZZ3eRK+U6q0xV8g6PSG1eesUt3zvKVodXTuqL+fSV0ixcfUAy0fyfOG2x6k0Dl/k1rF1LNWhj4BjG2w6fZiRgQx7xhv05VO8+LyllHLuvO1EsUQIMSv+avnwbDNMKe9SyrtIpWi2A1KuhRkHVDxdssC1DQwhiLtlGIQQrFiUZ6CUZrLSYbzcpt72AUFfwWX5cIq9corlSwpM1XX223B/hrRrYZoGfhAjpdLj1S3mONPufAghsMzEPZaQcDwkAuskMVOlvN1uk06nj7J3wrOVdlunqieLVM9GKUUQyTluoJl4op6lJZZUGj5j0y2myg3Ga3ptuU5osK27TAhANmVTPEig+GGMkop8aW6mWrnmMd4tIZDP2OTSDvc9PsbDW6cQQp+71Ylmrf8Wx4qpmsdUzeuVFAAdi3XWmgEyKYtaKyAIdeD6lj3VnvjqL6Q49/RBLjhjEcW8S6q7qPChHGxhOpiD3XtxLGdZgMJIUmv5oHSdpbYfkU3b1MoVaIyRWbSK5UsHdUxS173ZvQOYhh775Yty9BdTvfpapZyL73uMGoJC1mGgL49hGLMD7A8J5E5iixIWAiVj4mYFYbuY6ePz5SoliWqTWLl+hPX8eN8mAuskYZompVKJiYkJQC8vc7SX2MxizzPHJ5xcjjTeSina7TYTExOUSqXkfhxCue6xZ7yBbRkUslp0BFFEpe73YnxEt/p3s1ImFdXpLy1m3IR9ky1sO+zVK5oP0xA8ubfKk7sqlOserY7ev9b0GS8fuT7TDAJ46QuW88pLVvZckPumWvzooX1MVjqcsbKPt169oVfw82CkUuyfapFLzxZ+86GUYrrugVIIQ+h6S5FeU09nIgpSlokXRhiGjuPS7wKFEDBYyuDaJuW6x5LBLCMDWerjHjUvZNGgQyF/4PwzFr5gfCfk+rByfQghyKVtSM8/KT0TrjfptVBxhJktHn6f0CesTeL0L0YYyd/Xcx0Z+oRTewlrE9j9S45bYEm/Q1idQJgOVr7vJPXy1JIIrJPIyIiu/TIjso6GlJIoirAsC8N4dq+x9HzgWMa7VCr17mOCJpY6SNz3AqTjsK/d7C1PknJMDCHo+DpmSiDpo4Gp2nhxQMY1CSJJs6OF0kAphWkY7B5v0OqESKkYnWqyfV9tVsmEgzEEDBRcVBxR78QEMQyV0rzo3CXkMg5xt5TCcF+mV2ag3zbpL6RYu6zEi85dwlSlw2Bfuut2UzQ7AU53DTV9DsHSodys887EQvlB1KtALoQWPLmMw+KBLNWmXpS3lHdJu7qwZtuLqDZ9lvXlKeVdwujAEiOObfYKiC4ZzHaXtBFgeqQLBq4RcSgq6BA3qwBYuWfXRKSUIm6UCab2gmGQTm1AmPNPM7LTIKrsx3RSWIXBY2hbIkTyXjwWZBQgTPuUWiaj2iRhdQLDSRG36ygZH5dwll4T2aohsyVIBFbC0RBCsHjxYoaHhwnD8Kj7dzodtm/fzooVKxK34ingaONt2/bz1nLld11hh6aoz2TNAVhEBB2PuifxpKWDv/vTel28qXFKoo1ZXA3GQVaosAMIsFwQgonRMT773VEEsGQ4ZumgyeCw4HP/8dgR459Ax1OdvXaQxYNZ8hkbP9QuyXWLU6TreyAOkDKmlV9Jtm9gVhD7DLFU1Fs+KDBMQdbV663NrIXWaAV4YUQ+4xCEMY120LMuFTKurufUDvGDCNMyuovY6kB0Qwjq7YC2F7FiUZ5s2mawlJ6V8ShDn4FilmXDuaPWSppxHcrQR3pNhOUQt2qovhHiZgXptbAHlxF3msigAy0DGfoY9vwWNhF6RLVJ/JaBle/HTGWPeP6FIG5V8cd3IAwL5XeIO02sXGnefaNWFRX4BOX9GOn8Ya8DIG43CCtjuItWHdV9JP02UbOKXRpCmMfnaorbdVQUYhUGjuu44yWojGG6GcxMQcckhh6Gc+LvfBl4gMJw0sjQxx/bjl0cPqbrkH4HYTvHLIaUUshOAyUlhmVjpLIoGRM1qxhuBsNNE7dqSL+Dmc4dvUG67sFGBejeg4PEdNSsIoMOTv/iY2rr2UQisE4Bpmke00Q9s46Y67rJsiyngF/W8W52QnaO1pBS6ew6A+IYgjDCC2KCKIbII9McJeq08GKBLC4jThWot3zSZozVnMR0IvDqkOl+bcYhU7u2c9fjDRqBwfpleW5/cIp6R4/znmodsQVKD7eoNAPyGRvLFERhxPLhHH0l/TIeLKVYs7SkRcl8X+CVUQg9yPVjtCrkzQCEoFWvo+KYbKnUsyxV6p1udqCugVVrB9rilLJp+xG2ZXDasj76Cy5BJGm0AhDQ8SP2TzaIw4h8IcOy4RKZ7npypiF6sSaloRIYs9dyE0Kg4pCwNk1Um8DMlXAGlqLLVR4d6beRUYCZzqOCDiroEFbGUH4bM1MgapQx3DQy8pGd5rzCJG5WMGujhJMRhmWDkvMKrKhZ0e3ZLmamiJnRbp0TsRYpGRPVJgEwM3mi+jRxuzavwJKhj2w3MHMlZKdFWJvAGVg67zmVjAkr+4nq01j5viNau+J2HX9ilxYAcYgztPyYr0PFEcHUPlQcYWTyGNbJWXQ+bteJpvcR2SlSi9cSd+qElXHc4ZWYmcKRj/VayE4DM9fXu+8qCvHHdwKK1OLTiBpl4vo0KIWZLfYsiFGzqp/HbBEzU9BizO/gj23DzA8cs4CR7Tr+/m3IOMSwU6SWno6KY1TQ0eczTJASGbSPWWBJv4PyW5jZEir0UH4HkcoiQ19bQyMfM5U96vg820gEVkLCKSaqTx31i/1k0fEjdu2v0eyEpBxLB4KrA+vYmabAERLRGCNo1xHpPoqyCWYbmRui2QmoTuylKAIwHGRzmu9trnH3g6MoKekEcW+Zlof26NT/xSWbl52Z44HtdR4di6k0A7Kuwe/92iaG7DZM7YDiIuhbcvQLCDtEjWkC4WDHEttyoNOgJlqYlX3Y0mfa87Dy/USxXmR35eICmZSNlIpGO6BS95ierpA2BSuXLSafsQgrE9iOy1BfESEMlFKkwxrNyQlGFm0gk59dZTtulAkmdmEPr8AuDgMHRImSMcHEbsLaJIaTIizvB6VwBpchDJO4VSNqVbWgOMh9pmQMShF3mggEwnaRXpOoNkncaSAQBOX9KK+JkcqhZJO4VZ1lpZBBh7A+RTixG5TCyg9iGoq4UUH2jWDYbs9iIb0WwfhOVBwRyRjDrZBachooiT+1tytmhua4mcLaJCqOsEvDs6wecatO3Kz24q4MN03crCL7F88RK9JrIUMfK53HEAbR9CgCgT2wZI4giptVomYFYVqEtSnMXF/vvLOshUEHf3wnKgowc32ElTGE5WL3DR+TyIqaZeJ2Ta9p2K5jdIWcUkrHlIU+SsU6CPswbs9DiVs1osY0zuByhGV3xeIYKpaoqEkwuRvZriOjgLAyhpHKghCosFtw1jAQpoX09XMf16eRgYeZq+IOr0RYNkF5FNmqAopgeh9xq4aRzhO3693nYxAVhYTlUS3uGmXMdB53ZDVhZVxbSaMQM50/qiBSMiasjqNkjF0YJKxNEdantMVSygPPg2kRt+vYxWGk30Y4qTn3YMadrGSEiiNkFGJnS4ReCxl4GKksYXVcW3MNk6C8n1QqizBMVBwhPO2GfDaTCKyEhFOIikKC8n7MbAd3aPnJPZdSvUV0Cy4EQci+qnaDDRR1/FHu0MBoJaEyBlET+oaIleDeLYLvPrKXUI3ytqtW0Z6s8jcPdEg7PsVUgx3Ts19yZyxJsbTP4YGdLQppk//x0mFyKZONfS1+uMVnd83mlRvTDDkeNKb1qr6dKhSGoTtxSb+F32rhmVkipUtfCsBo7MfutLALQ3h+TDNUGEEdW0yxKBeTSueoN6fpSEGcKrFkpNALYjcMQTHnkjMDio0KhmmSc0aIm1XCqd0AmLk+nOGVCMMkr5qkHR+jsR+VWd2bVGXgEZT3I6OQsDKOmS1pq0Grhju8Aum1COtTOgDdtDBsLbKEYWIVh/Qk2NTukBkLi4wC/P3bUVEAMkbYuvK6AmKvjTAsbRVqVkCBadlawLTrOjDYcog7deJ6GRl6CCeFcrQoFHYK6U0Rt2tIYRBM7gXLBilRMsbK93cnu2n8yd16sms3kO0aKoqw+0d6k6P0O4TTo0i/rS0WuT7djoqJ6mVtzeuOk3BSxF1rirRTIATCMBGWRdyq6X8LLSQBgul92j1XHOpN9NJvE5RHMSwXI5UhblWJW3WEYRB7TeJWHTPXh923iLA2ifQ72MWuhcvNEk7uQgVdy1+riuHmsPsWzRGNMvQJK+MYTgqU1EIuWyLuNIhqU3ospM7SlP2dnlju/dlEIUZzkrg5At3Fh1UUHrjXpoUzsJSoPkXUrOjYOaWI6tMYbgarZ5nMaAum1wKl0OXyLQh9ZBRhpnNYqRxRs4y390kwTFTQxsgWdXu1SX1PC4P6Oirj3WejiWzXu2Jc6Hs9vhPpNbHyA/o5quxHhf298UCAXVqkBY2MUXFE3K4d6D9gpnPE9WmEZWM4ByVjOC6y08Kf3ENcn8LM92P3jSA7TWToYaYLxF6TcGqPFmZCYNjaiyAMg7hdR8YhUWUcM1NAmBZRo0wwvhMjnSOYHMVsTKECj2dz5dlEYCUknEJk6KNCj7g2SZzrO2YT+nyoOARFLyZl5mteSkWzEzJd6zBRbhNLRbq1HxG0CIsrGOgrYPgtsF0wbfZNNtk70aDZDrGkRy6qsmw4TxREfOnHU4xWZuIHJZ/+ztaehaoTxpRbYBrwxvOyrOlTOPk++nP6tfKa8/t6/YpjBZbLxtIELzlnHS4BQXUc4Te1EPHqELQgXSRq1Wns20ZaBPQV+8ksWoGVzSOCNpEMcAZHSGdzhFFMEEpkYwonB66RwcwUcdw20qsirAizExCGjp60Ah2vFHstHBGhIp+wvJ/Ya2kh5GaJ6tPdFPMC0mtgFweJatMYThpncJmOUauMIf0OVnGQqD5NMLWPuD6FiiN8KVFd10lPaFg2ZiZPWB5FBh6yXcfM9WsLi2Fhl4Z1P1pVzFQOJRRGSk/ShuUSt8pY+UGEYWo3nzC77bo6hmlsh06ZRGC4GezMELF3YL1CIQTCcomqU6hI18oijkDFmNlSbx8z16ev37SxioOo0CeY2oNSMU7/EhCGvvZAWwjD2iRhbVKvbqhm2igddF4Dw7TxJ3cf2IZAmBZKxbNijgzbRQiDqDah3Zv5fsxMkbA8ivI7mPl+LYqUIJjaiwo7OmvTtAinm6AkcW0KM3Pg78lw0z2rV1id1BN3o6xDBLNFVBQiLEdb7Cb3IL1WT5jErSre6FZkpw7CwEzltAUqCgkrYwDYxSFtZfQ7hJO7MJpThJO7iFwHI5UjrE9173WJqDKGCjziZgXDSffEmV0aPqi/GYLJPVqsuNmumztGxTHCyWBnD1gBrfwAKtTlPYxM8UBcmpQI09KCJZ0jblTw9j6pf05le0LZzPUTN8sIy9HPZ65E1KgQNyrodBWBQmnLVqaorW5BR7tPLbfXf8NJEXaaiCiclTEqbJe4PYUMOhhOmqi8n7hVRwbtbratCUpipLIYTholpf7Q6rYZNyvI2gSGk+5Z+s1MkahZQdUmUVEMcm4CyLONRGAlJJxCVOh3XyaKqDbRfekdf6ZP4HlU92yj48d4uaWEseoJH5Sk0/GRSlHMZ3FUQFBvgPIRnUm++KNt7Bxv85INeWoyzfd+MTbPGTq9f2Vdg5ed4bK3Bvfv1NsvPyPPaSMpdox7nLfCZXm/BabTe0keTKMdEkuJQYrQLYBh0lFp/fXupGi2I4xOgBATSLuJqo/TlzEYXrIS028gwglcN0PYqRCnDKy8/mI1u1XDYzLIsIVRGAL0RCWcFNJrE1XGteuua1mJ/DbCMDBzfag4JKpNoKTEKgwghKEtHdXx7pex6ImjqDqhj4lCotokZragBYSbIeq6dsxcibhZQSmw8v2zxsCwU6goIqqOd+NnHCBHMLWnGxDcxMwW57jSjHQW4bg9sXawKBFC9Ca1g11l82G4md54m9n541iEYc6a8IWjrU7h1D4IA0AQ1aewunE99jFk/pnZ4qzIM6UUxBFKRnOCuoVlYxUGkaFPVJ3Q8VxKHRBXgJktIEMfM1vqTfJxu6EFTBxi2sU5bdoHu1D9NuHEbiLT0m4mywZhoEIPKz+gzyP0syK9JmamOMsdqJ+HAmF5TIs104IoQLZbqFQBYVj4Yzv08VGgY51sFxXHxM2a7vdh3ItmKquf3YPj+bBhnjh9IYS+P4dguAc/HwZWYQAVR9rCdvDvDGNWLJswzFnjBHTdivuJahNo8Z7FcI05/TezBVTgzR4nYXSv1dQWMDethXnXvaviSAutrjAUB2VxC0cniljp3CwroWE73b8biNrHVqrlmSYRWAkJpxAZ+giENpE3ysjiMGY6pyceJWe7HZTqLYBrWQbtTki92UGGAbI2RlSdQJk2YiivhZqMwKshWmVKhsS0LCrxMLHySKmIR2pZvn7ffqodrcS+fn8N0OvhnTZo0pcRRMqg6gn2lgPCWHHOigzXXtRP3lGo5jQbR/KkMmk2LNUv67OXZ+ZcYxhJ6m2flK3LFChgUX+W/ZM12r6k5YUYpsXi5cvIZ1y8IMJrm4TNJkbUwBnM0jfYj2kYKLuPuFEhmNxN7DWwsnPTt41MAUOp2S9pYRzVOigsB9xs94tfH6tjlNo6TiXTjSVyUkR+i6gyhgwDEEZPCJmpLIaT6t03K3/4rC0zncNIZQ46VwqRd5Cdhv5SnyeoWghD9/MoHE2kC9PCKg0dd+C6YbuIbEm7JrsWsqdTBFIIAZathcMRzqlFSTQ3gcC0MA+d4DN5Yq91TFmShptBmDYKhWFaqCgCGWHMiKtem4ev32VYDkZxEBl6qDjGSOUwzRRM1bXQtmdKfeR7z6SZysIx9O9klFUQpnXMMWOzjrPsnivzSPfcsByY5xmdEUPAAevrQX067HmFOCUZr6eCRGAlJJxk4k4DADOd76bfWwjLRsYxcbuu4xga04SNMqlFq3svs8lqh+37DlQ7N4IWqdYYhoowZUhqYAjDb4DRATsN5b3gNcB22VMT/MeDZZ4Yn8AQ0JcxmG61ABjKW1y0NsfdT9QJY8WbLu5j0+rZcQxRrGgHknxKFwyVStGxipyzxsWcZ8mUVicklgrXNml5IYPFNC0vpNkJWDyYY1F/BoOIWsXAtQ0G+zIMFNMIIXAdk2LORfbn5tTuEUJg5kv6678rhg5FCKPrIjt+jHmsAGbXfXTwBGGmC0SNaW3tOkREHU+tn0MFjjCMIxbjXEhOtIZUb6I9xRyPKDieCVlYdu9xEbYDnFi2oGGnDliXwgPuqhMRM89Wnk/X8kyQjF5CwtNABp6uSSRjYr+NDDzcweU9c7ySsU4zRuAuXoMMPISpX+iGkyJqlLEKA0zv3U1jahK3EZHqX4xsTjM61SSdypEtlAAFUxWwInBzYFjaHafS0K5A2AaviUz38d1H6nx3c03HxQBSwXRL4piCyzfkedlZRVzb4KUbC8RS4VhzJ17LFBTSXRdMt5ZUyrGotXyyKRvXOSAqwlh2M/YcOn7EYDHNyGCGIJTUWwEDRS1i8hmH4aLNqsWFectiHC4tXgjjlFZ2FsLoBV73tlm2dmkZ1ixL2fORxoPfI5jeR/8Vbz6mmlNxpznLtfhM0XrqPqTfJnfW5SfFEhTVJsG0TqrYVFFI7DW1e+0ZWL4omNqDkcqdlGtUUUhn96PYfSPYfUcu3qziiNbjP8YeXok7vHL275TC37UZe2ILSl214P1cSBKBlZBwgqg4wh/bQdypIxRgdFP0hcAdWaNT8puVXsZUXJ+GKEB0l5Aw3DRRs8r4rp2Mj04S21nYsxs1Oo4RdjAsk2xYBm8KHBf8BmT6QQi2jnn8ZEuD8VpIrR1hm7reWido0fJ13alNKzO8+rwSKMXeSsjqIZdi5sCfvGkcWIA4jCWyu2Cy3V1YGPQafrWWTzHnMjKQod4KmKx4dIKIfNrBNAWtdkCpkGLpYA4/jHFsA9MwSLtGrzL68wHDnesOXWiqP/0mUW2S/pf+5rzWtcMRNcpM3f5Z3MVrKV127WH3k34bhDhsUctwepT6A/8JgLfvKdIrNxJ7LZAxRjo/a9KPO00mv3UjcavG0Ov+J87AkctsKKV0huQCWUWCqT20nvwZ+bMuJ2pVqf7oXwFwFq3C7ltM7d5/xx1ZQ+a084/aVlibwMyUZlktZeARTOxCRQGd7Q/R2fkwGCb5c15C/pwrZ4lP6bcxmlMoueKErkUGHlO3f45wai+gcBavZeBl1/cy66BbBHhyN+0dD+PvfRKrOEjxwldjFYfmbTNqVlGRj11adNTzK6Vo/OIOGg/eiXDSLHrDH86yrKo40qVCxGyLa1SbpHzXV0ivOov8OS+d02Y4vU8ncDTKtLbch2zXAUH6tPMpnP+KeYWckpLKXV+hs/NhjHSOkV//ABiGDokIfZqP/ojOjodIAcpvHfXankmeP2+/hITjRCmJCD29RINtHlNdqoNjpaJmmbhT13VxulYNJWOdieWksNIFgsp4N8A5IGzViaMIIUw6fkTHC6lPNmhFHRzbIVfMQWiBjMEp0fAkOxohqwoRXrnJNx6TTDTGiCTsKwfz9E67KVxLcO3F/Vyw5kAM0mDh8G6QlhcSxQrbEigF7WaEEGCbBkEY019MsXggi2UapByLbMpmqtah0Q6JohjXtnTZB0M8awRVWJvE2/kIcaeOYbu4S07vrZWWWnlWTwwoKWk+/APCyhilF75hjoiSfofm4z8me/oFmNki7a334+/fRvGSa2ZNxkcimB5FhR7uyJruOedfQiQs76f12D0A1H72bTLrLqRy91dILdtA6ZLXHfEctZ9+k7hRpt0o446sxVh25pzraDz8A5qP/QhhWBQvfi12aRH+2DZSKzb2LFD1X3y3d4w/tg27fzETX/8YKg4RTorcmZeRP+/lICXl79/cKzfReuwenBf/2mH7FzWrlH/wBaLaBP0v/U1SS9cd0r82zUf/i9SKjTiDy+Ztwx/dSuVH/0pq+QYK57+C6TtuQnYaeLsfmzWenW2/IMjtoP3Uz2g/9TPC6X04i1YRlkcJy2OgJKUX/zpmtwJ57WffofXYj7AHljD02t/rliWQTH/38wQTu2Z3QsY0HvwerSd/Rnb9xTrzb2ovnR0Pk5MRlS0/wF9zLqnlG3C77n4lJd7eJwin9hC366RWbCS1/IxZLtvOzs2EU3t6Pwf7tzF12+dILV2H9FtIr63jEFvVA2Nam8Db9xSlS68hu+6i2WO1fyvTd9yEigKsvsVkTjuPzJrzEG4a2aoRt3V2pDO8EgRU7/ka7afuA/RSTJUf/RsDr3g7YXmUxoPfw9v9aK9sRP9Lf5P0qrOQQYfpO2/SS+RM7yO14syemGtv+wX1n982q79ArwxFZ+v9dHY8RO6MS3GXrsMeWNqLRa3++OtazAKy06Sz42HCyhjNzT880JAQeEvOwUideBb2qUAo1VuePeE42Lx5MwBnn332grXZbrd5/PHH2bBhA5nMyf9a/mWnOTXGtvv/i+VLRsgMjOAuPu2IZnklY4LpUaTXxC4tIpjeBzKes6ipDD1ku0GsBJ4XIPL9+O029XqLOAwRmT6CSBHJGIeIdNzCLAyBYdD0YrKuwWQj4pP/OUbDk1y0Nst4LWTX1AFRZRpwyWk5zliSpi9rEUmlY6Asg4GcRcqZpyK2UoSRwgsiYqm6gsmk5QUsHcpTzDlICW0/ouNFNDsB2bTNcF8a8xC3mJSKjh/R7ISYhl6w+Gh4nseOHTtYvXr1HBdh3KqCEEcMLj5W/PGdTP/nP+qaUvNgZAoseuMfgTCo3PVlvN2PAZBaeRb9L3kL7a33YxWHcEfWUPvZt2k+cjf20Ar6r7iO8a9/DGRM8eLXktv4YqTfxtvzhC46OrSczNrzZ7kQg8ndTP7HpyGOGX7974MQTN3+WezB5fS/9C00N99Fe8vPKb3wjXh7nqD1xE96xwrT1qU4QE9qq8/R47hvC50dD2Fmi7q2UOhT/a+vHjjOSVF81bvZPT7N6tWrscI2U7d9lrhZnnc8hJNm4BVvBxkz9R+f7m23+5eQXn0u9ftvm7W/u/g0Yq9JVBnTWXRxBKbF8Ov+J9WffAPDzVI4/xU9N5C390kqd39F13YCMEwGrnobqeUbem1W/uurtLf8HIRB7szLUHFI3Gli5kpYuX4QBrX7vq3PBbpG1SGTt7AcVBTohA/L6Ym/+cifeyX5817O9Hf/CX90S2974YJXkT/nJTQf/zG1n9yqsxD7l2Dm+8mf/RKi+hS1e78159wAyjARBxW+NFJZsmdcirfnccLpfbP2tYpDuEvXk151Fu7IGqbv+P/w9jxOftNVpFacydR/fh7lz82UE5ZDasWZpJZv0GJ/31MgBAMv+2+4y9YTN6bx9j5J7b7v9MbqSKRWbMTM9dF67EcgDPLnvpTG5rsgjjDSeWQ3flSfXHRLY9gUX/gG2lt+TjC2vfdrd/kZDL787YSVMSa++XfaWmnZOMOrMLMlnEUryaw9n7C8n9p935l1LKbFwMt+CxUGlL//LyAE7pLT8fc9pUtKtCo6ozTXh5kp4J5zFaPTddZe8jJy/fNb8E6UhZzbE4F1giQC67lPY3wP2+//L1aedgaOKUgtP0MvHxEFKF/XfNGVghXCsHRhvMqYjtExDF0jppveDxBEkmrdo5hzsSzB6GSDasMDDKSCdFjDsFNIN4ttmVgHBYvHUvGN+8rc81ST4YKFHylq7dkFPDOOwRsu7MMQgtXDLn3ZI1uL/CCmE0Ta6oZ+Odq2STplkU/bVOoezU7IUCnD4u5CwwdztNT/4+VwAkv6bcb+9aMIw2DRte/rucb8/dtoPnI3mFbX2iCxioPkNr54XguQUgpvz+NU7voyKvSxB5fjLjmNuFnB378VYbuoMEB2GqRXn0tUm9BV1k1Lf53LuDdxC8th5Lo/ZeLWj/cm6oMndaswyMAr/juT3/7kAeGAFiXZMy7BWbwGFfo9KwtAevW5yNDD3/skoCfgmWOFkwYZo6IAZ9FqgvEd3X1ySK+Jkcoy9Lr/STC+k8rdt+iCsIeQO+ty/LEdhFN7MHL9NFZdyuJFw7R++g1dYyvXR/GS1xFVJ6n/4rsIw8RI6QSLmckTwF26Hn/fk4DQtb5qkxQveT3Cdqn++Ou9iVuYNv1XvpX6/bfpQqrdOlH6lwJn0WoM28Xb83hvbMxcSQtaw6T/Jb9BetVZxF6LsVv+32MSBPbA0gNiRQgGXvZb1H9xB1FlnP6XXU/lri/3xtRwMxQueg3Nh3+IsB3svsUI06L1xE8w3Ay5s66gfv9tCMshvWYT7ad+psXDpddQu/dbqNCjeMnryZ152eznTMZ0djxMZ/uDCFPXkDKWrGdvzWepGxHv34K394lZ4kQ4KdIrz0ZYNu2tD6DCA3XK+q+6nvIPvwhxxPA178HuX0xYHaf12I+1O9fNdMuA9JFacvqsunfVH/0b7S336XpWThrZrvXaTa04k9ILfxVv96O0tz1AML5T98VyeoVXDx7zvhe/iczpL6Cx+S7q932n23GD9OpzyJ/zUqzSMNN33tR7fmeegdKLf43KXV8BJSle/DraW+8nnN6Hu/wMBl761nnj+JRS+HufoLXl54TT+4gbZYx0Tr9nW1Vy51xJbuOLGPvqX/b6mF6zif6XvAWATrvNricfedYLrGeHPT8h4RlAhnqxYV0ssIH0WgjLwd+/vRsroJj5+hBK/2RlSzoDMAwQDlQbIYapXWP7p5pU6h71dkDatSjXA4rZ9EFZd3NjarxQsmPC5+4n6jwxql+6E3X9QhkuWPzKuSW+9rMySsENLxtmxcBR3Ji7fwFencaSixGGyUAhRTbjEMcSQ+h+zgSo59IOtaZPqZCadyHio4mruNOk8dD3cYZXkF59zglnqbW3PaiLGALtrfeTO/My2tsfonL3V7S79BDCyjh9L/71Wf2L6tOUf/ilnpvFWbyWgZf/tzmB8/7+bUzd9hk6Ox4CtIDpf9n1BGM7qP/8P3oCSkUB9Qf+c5YVZMbKJkyLqD7F1H9+Dum1MHP9uEtPp7PjIcLyqBYhB2Hm+oibFTo7HkZXhjW6y+C0tNUuW+qdxyoOMfCK/07l7q9gOCmKF72Wyf/4FFFljPGvfqTXZmrFmV331D6iyhhWYYD8ea8g064xffvniJtlso98h/ojen+rMMjg1Tfo+JkVkDvrxaAUquvq8/c9qUXRyBr6XvxrTN32WaJatxYVgvTqczDTeezSMM3H7sEZXqW3pbLErSrVH39dZ16m8zjDK/F2PXLAQiEE2Q0vpHDB1QjD1PE1Ox6i/IMv0PfiXyNu1SGOsAeWkjvrcjo7N2MVBnrjEjUrxM0q7shqChdcTfPRH1G//3by516pXXHLzkAFHQw3Q3rVOT0rYGb9xWRPv4Ds6Rf0xk27654kbpZ7lrniRa8hs/5iovoUwdj2XiyXPbiM7BmXznn+hGGSWXsembXn9bZ5ngeNHTjLTiN12iYtwrY9SPPxe7BKiyhe+Kqepbvwglfi7X2S9paf4+97ispdX4Y4wswPYHWtfnZpEaUXvmHOuWf1QwhKL3wDUWOKYGyHttgaJs7QclLLNpA7+3KEYZI94xKyZ1yiC+oa5oEPmLEdTN95EyroULjgVWROfwGghbqVH0A4Ls7QilmhE/0v+Q2m/vMfiepTpFduJHvGpTiDywgmdtF67B5q9/677puTpu+yXz1skoQQgtTyDaSWb0BFIRP//gmi6jig/17ym67EsBwyazbR3vJzhJOmePFrjzgez0YSgZXwS4NeB2wcqzCg6+wEHr2q2Katv+gQ3QVq+46Yfm/YDuW6x+hUEyUh7Vq0vJBSLqXLE7QD8tn5SxoAPLy7zU+2NNgy5hF3jRG2KXjTpQP4oWS0EvCys4uUMhYbl6WRknndflIppNTZgkbYxNj8HQSK7OQOipe8ngwC2x1BWHPFneuYDPcf3VIaTO2h+pNvIjsN8puuInPaCxCGSe3ef6ez/UFaj0HjoR/Qf+VvYh8m4FZn/jxCavtD1Hfdg3nxa3oupPaW+3r7tR7/CUYqS+WHXwYUqZXahSL9NiqOaD5yN52t92PYLoXzX9nL1qze8zXCqT0I0yZzxiX6d/NkJbqL15JZfzHtJ+/F6hth4OX/DSvXhzO0XFeP9tsY6Tytx37Ui4dKLd9A1CgTVcfJrLsIIQxaT/ykV2hy8Ff+B1ZhkMILfoXWEz/F3/sEwfQ+hGljl4bpu/w6qvd+E3/PEwBk1l1IbsMLaTz8AzJrz8csDDD5zb9FRSHZMy7FsB0Grnpbr8/9L3kLlbu+Qlge7R5/EaXL3nhg+ZrQQxi61pFRHGL4mj9g+u5/JdjzKMLNklpyGsWLXztrodyZZ1uYMPDy3yKY2otdHO6NpzOyultgEpyRVT1x4AytoP+K2YHc6bXnU//FHag4ZOAV/x1nYAlhbZJgbDtRo0x61dmz4qr6rngzwrRob71fW+O6Qe/ZMy+bI1zmI3/2FeQ2vPBAkUohEN3YufTa87TAEsZhxJFBbuOLekLAHljSvaeCvhf9GrV7/13XqrNsihe99oQzRoVhkjn9BT3RcjCGkyazZhPuktMZ/7ePdovaQnrlxuO2GAvTYuBl/43O9l9gFYdwhlYeVtQcWsrCHVnNojf+EVGjrGOxZtoUgvSqs+Ztw3BSDL/23XO2Fy98NWYqR3v7g0S1SUovfMMxu/uFZdP/krcw8a0bIY4oXvy63t9u/ryXE3tNcme8cE4oxnOBxEV4giQuwmeeqFFB2M4x18CJWzX88Z04Qyswc0WqTz3A7p07WbVuA44JKgy0Gynw5tQmCiJJqx2STunCh61OyNh0G8sUOJZJJ4hIO1ZPUB3sXlNKMVGPmGroTL6fbGny7V9Ue233Z03WLkrx4jPyLD+ahWrmWmJFo+3rJTAMQ1cP3/tzclvvnLNvetU59F/5m8fU7qE0H7lbx3Mc9JqwB5dROP+VTH/38wAIO4UKPR0k/Jp3z5slVn/wThoPHAigdhatYvBV7yCqjDFx68d1QUnD1F/hXXdVZv3FlC59w6xJrrXl5714I2E55M55Cc7wSqZv/xwYJove8IeHzaqaQUlJML4de2jFvCIsbtcZu+Uve264vhe/CWfRKjo7HiZ75guJmxUmvvE3wIGYnaPhT+xi6tt/D6bFyLV/0luiZgZvdAv+vi0Uznv5YSdIGXSIWzWs0ty19A7F8zx2bH2KVWtPJ52eP2PwSLS3P0jlh18CoHjx68htfNFh95VR0HMNHuvfolKSxgN30Hj4+3q5l1SWkV//wNMqYqrbVbQe+xFGKndYoSZDj7FbPoIKOgy+6h24I6uf1jnhyPGFR+Jgd9zgq9+Ju2jV0+7L00HJGOm3j0vMKCn1EjrdpA8VR4fNFNVrGsbzJoj4YzuI2/WuNVzofaNg3ozXxEWYkPA0UXGk1yU7KM5pBhkFBFN7QEqcwaWYhUFdEDP0tQWqMDjnmKgxrRcRDT2MKKNjrGa+5C2XuNOEKJiTOhxGktHJJtWGh2NbGAYEYYxjm72suVzaptyMkEoxmLfpBJIfPFZntBKyvxpQaWlXlyHoLWnz4vV5LlufZ1Hx8JNKFCtMQ39V+mFMsxNiBU2knaGvmKYvn8Lq1rGqPraNGHBPuxBZ3ktUn0ZFAd7+rScUTxXVp6n9/DZQivSaTdgDS2k89H3Cqb09cZVes4niRa9m4hsfJ5wepfbz27BLw7113Zzhlag4pPHQ9wEIhk/Hmd5BML4Tf99TePt0PEdq+QbMdF5bH5QitXzDHHEFkD39AgzLof7gnUSVMRoPfLc3KWfXX3xUcQXaiuEuPu2wvzczBVLL1uvYIWGQWrEBw82QP1enoRt9I+Q3vQzpNbWr7Rhwh1fSf9X1GG5mjrgCSC05ndSS04HDZxkaTvqw5RVgnjIIhxRtPVaUkhiZIjPVW92l6wirE3qpklRu1uSp4oi4Po2Rzh/XuppCGBRe8EpSKzbQ2HwXmbXnPW1xBaBCj+yZLzryskF2iqFXvxMZdI5b0CgZaxfvAsUm5s68DG/vE3pNyv7FhPWpnhvvSPcaFj5GEvTHBVIiLf+YsqoBpNcg9trYfSPamjiPuFJKItv1rviyiToNzFxp1nN+qNCNmxW9EHR3ncrZJ42Yb1muZxvPKYG1bds2PvzhD/OLX/yCbDbL61//ev7gD/4AxzlyunSj0eCv//qv+e53v4vneZxzzjl84AMfYMOGDUc8LuGZRXotgvIYruXMsSjJdkO7c5w0/sQu3G4BwJmUYRn6OANLD7hRvBZxs6rjpzpNVDqvgydnBFa3NpAQQpdgiCXj020UiqhbC6qUTyGlQkpFJmfNerntLQd84vYxYql4xTlFHtrVZn817P3eNKCUsZhu6viq15xf4qqNh5jQQw9/y08JCstILVqNH0miSK80X8jatDohw/XHUQ99B2vZmQy+7G3E5X20nvgpmbWbiCd3AlA67yqsfD8qjhj9lz9F+W3iVo1wai+NB++gePHrcBevPer4137+HyBj3KXrtFtHCNIrzmTq9s/peCTDpPCCX8HMFCle+gYqP/wirUf/a3Yj3fX9iCPskbXUV11GoX8I74kfdzPLdKZU5vQLsIqDtLf8HKs0TN9L3nxY90x69TmkVp1Ne8t9VO/RsT/CtMmfu3BFB2eyv1LLN8xb/6pw/iuOu830yo1H3Ue7scew8gMYTuq4akdJr9kt+nn0ukdH7EPgY2UKFC97A6aT0X8XjqMDkBvlWSJWejrTT/qdI7R4UNtKzposnaEVDFz51mPv2yEWkLgb0K5jwWp6/T+6SQPMFSFKSeJGpZuBuWh2uzKeY9FUUagncsPUz7xSOnYN1RO8Bz+nKo50MWHbOaaYRGFaDF19g76WTgMzndeLI9cm9aoGh7nvsddCdhqYuf4jlgtRUh6zm1NFYXfx6LzOYDxIYOlxD/Vi0rY7SxjJKMR0Ujpe8jDiKqpPY2YKOH0jCMsmrIwR1ae7H8JzhVLstRCWq5ecjqPeclFKKVTgITtNZKrYu8/PVp4zAqtWq3H99dezatUqbrzxRsbHx/mrv/orPM/jgx/84BGP/cM//EMeeeQR/viP/5jBwUFuuukmrr/+er75zW+yePHiU3QFCcdL7LWIW1XCWgojk++9sJRSRM2yXpcsnSNqVohqkxi2S1SbQpg24fQoAoE9sAQQhM2yfhGkcjqeJ+hoF9BBL8EZ94ZSiolKh6laB9s0kSiKGXdWYc6DaXox//TDCcJuoc7bH9KZPIW0ySvOKTKUt1g56OLaBhP1ED+U87oC1ePfI73nAdJAWFyGselXWTzYz2SlQ60ZkKs8iXrkO4Ai2vsocWU/5R98Qdc/eupnANiDy3sLDev154aJKmOE5VGaj/0XYXk/09/7F4Ze+26EYRJO79Njl86TXnlWLwbHH9uBt3MzCEHxwlf3XoJWcYih17yT2s9vI7V0fe9cmTXn4u97kvbW+7ULNj9AVB3XGUKtKpgW2Qtew/R0nfSZL8bf+vNetldm/cW9ukAj1/1vnRF1FEEhhCC77iLMbIn6ff9BdsOlmJlDy2UESL8FcYyRymC4mW7RTDln31n3QUmc4ZUMvf4PsPJ92tKpJIbloKQkqk3oRXwXqPCo9NtgGLpeWqhdIro8Q0p/GHQaPevAEdsJfMx0vpuhNk+8nt/uTrjmrIV/5+7Xwcjk9f3N9RE1K5ipfuzCEJ7XQoYBhu1oq0QUYmf7ZmVSHg4VR0SNaW3FO8F4GtlpIsMOojAECGTQwbAcwtokRjc7ToUBOF0R4jUxs309ESLbdb0QeNDpBXvLMEC2a1qMFQ9YvpWURK1q13UdYmQKOIPLEEIQey2i+nRPdMW+h/DqSK+JMnJ6fcl0rmeFUjLuhiA4h43tVHGMmUnjLNJW37hdP0whTu3Gs0qLiOpTiHz//Fm1UUjUrOiPRts5akxU3K5hFYcx0lmC/bVeG3G7AUL1VqBQcbPXVi/CyLTnuAajRgWlYv33luvDXbSyNx7CcpCefg+LQ/6OZq7PGV5JVJ/SH8KWo+9n936bA0uQQflZv6rCc0ZgfeUrX6HVavHJT36SUqkEQBzHfOhDH+KGG25g0aL5v9oefPBB7r77bj71qU9x5ZVXAnDxxRdz1VVX8fnPf54//dM/PVWXkHAQKo6QoX9A1MTa5DvzolBKEbfrGE6KuFlFths9K5YKOsh2A8PVx5qZAnGzQmCYqNDXLsUo0Onchn7Eo/J+zHROW7DaNe0OPAQviAhCiR9GTNfa5DMO9jzLyABU2xHf+UWVh3e3CSL9khnMW7xofZ7v/KJKf87id64cpj83+09suGDrWjKP3A4yItr4KmIFjqEQ+3U9JoTAru2lUH6E/rWvBBSTO7eRevTbgNKrzQcdpu/4/2alZQO9Wkkz2P1LtMCa3E0wuac3fhO3fnxOWnz1J98ge/qFpNeep2vRAJnTL8Tun/0RYmZL9F/x5jljUnrRr1G67FdnveyDqb20n7oPd/FaRGEApvWCuKUXXUv7qfvInX0FqaXrdIHWxjRmru+4XpqppevmFK0E/ZKO23Xs4iCGmyYsjxF2xjHcLCoOZn3ZKyX1Pen2W3otZKeFXRruZgxOa8tLvr9bMiGnY8UWQGApKYn9FiC0wIoDDDeN7AY+qzjEcFxd6PMIiz6rKMQwtXCK23WwZgsoFUdaOKUy3YnXm3/yVhKFFpOxrHePjfWiz06q++y1wXa67WUxcyWi+tQc69ShxK06Zr6fuFXTlp9DRLQMA10x3k2jlEJ6Lb2Q9kH7ySjEyBS1xUwIDCeDM7ScsDqOne8n9ttE3fpRKvSx8gN6oepUrnefzUyhl7GmohDZaWD1LSJuVlFR1F2fUMe8GakszuByZNDByhZ7otrMFrGLQ8jQ0y61Tpu4Cc6SdaTyBaL6FOH0KAgTw3a09dx2ka0awjTnFzsy7rnD7NIibZELPC1cDANhp0BA3Kxh5ftxhlcggLBRxi7MXWRchj5mpoBVGiKc2tcVlQeeCxl0dHJEt7yGMG2s0rAWZJaDDD3idgO7NKyzCt00UW2KYGoPM3/hKg4xupY2ddD7RI+1xBlYCkL0LLIzGLaLVRwkmNwz50NFhQGGm8EuDmpB7elyFyro4A4tx8z1QaRgrHrYZ+3ZwnNGYN19991ceumlPXEFcPXVV/Nnf/Zn3HPPPbzxjW+c97jHHnsMIQSXXXaglkk6neaCCy7gBz/4QSKwniG0ZWqS1JLTEKZNMLkbEPqlYZio0NOp16kc0msRVse1ALNsomZF16DqCi5hmAhTuy+E23Xz2S5I2U3bVxhOBsNJ4YcxRhx3BZ2eDPwgptxoUmsGhHGMQOA6Vk9cVVoRP3i0TiQVfVmLfeWAx/d1COIDgd/FjMnbrxhicZ/DxaflsM35rV0ANCcRu3TmXGfwLCgtxR97nGLkIdJ5CpteRu0n3yCe0GnuxRQET34bpSSpVWeTP+tyJr/99z1xVbjw1fqFPrmbzGmzs5bsgSV0tj1A66n7dPHAg4swCgN7YAlWcYhwepSoOk7riZ/00tztgSUUL3z1Md9TIUQvK3MGZ3BZL4PM8w7U/sms2URmzabezyoKtKUo8ueY/ZWMiZsVhJ065jgf6bUxM3mcRau6FpssUauKlS3hj+9ERQHCSekv5G6skbBdzHQOGfhaiPRccwozWyRuVFACrHxBZxAy47LoaPFxGHGhlNIWjVR2jqVB+m0t+vy2biuKMNIFVKfVu3bD1aKIIwgsGXQQqay2ODUqc97sKgoQbprU8g1Ir40/tp2oWcXMFme70AJPu77SOUR9Sm8U9BbhtvJ9+GM1DKW0lWFoRfeZ6k7Sh4nb0Wtwmjh9iwmFSdysYhX6Z+/TqSNMmzgOukLH1TGYXQuNFnCi50JDCJyBpVi5Ema2gBAGqjqOiuPuuEt9fU6qe78EVv9izHReL7siJTJoa8vU0Ao8r62F84zA8js4Q8uwciWgNOeahGVjduPGTGGj3CxGKothuzgDS1GBR9QoI8wiCHCGlqOkXl7LmFeMKoxue0Ymj5Xv15Z6Rz+LslvKQzgp7L7FGJajrVjNyrxxeyr0sQoD2MVhpN8hqoz3BJYMvZ573ioM6ExUJ9UTO8LNENUmsUrDOEMreiLXcDMIDrheZxKDDCethezMueNILxJeGDzskk9Wvp+oOkncrunny07p+oJxpP+eTFt/MHSvD2FgdF2oRHOLsD4bec4IrO3bt/Orv/qrs7YVCgWGhobYvn37YY6CIAgwDAPTnP3w2bbNvn378DzvuLI+EhaGuNPsWZIMO9X7WsM0cQaXIX0PGfpY6TxmtkDcrOk/RMNChT7GIROtkS50J6sDX0OGm9Zzp9DWgVorYHy6RR6fIddDmBadQLJ3qkUUC7Jpm1xGv+DqnZiHtjTYXw35yZZmz/13MKuGXF57fomhvE3GNXqCKmXPM9H6TSjvhpENMPZEb/NQsJfc0g2Un3wKBWTWnkdq6TpqQDCxCxn6NH56K6pVwcz10feiazGcNM7IaoKxHZjZErkzLzusS23G+jRT9NBdrFP2w+l9OMOrDixKrRTB2DaqP76VqDaB3b+EwV/5nSO6khYSFXctF1EIBwksFUfaRZUt6SBZ2z2mYOiZrMaZScfMFnuC3HDT2pVjWiAMXQYi9Aknd6Mc/ZJn5ovcdlGgXW9d8WFmC7o4J/qrWoU+sdfCsB3t3rTc2XE5oY+KfKQvdDsyRgaeXjYk6GD3LSaOI1QUolD62IO0uWE581pcoRs3YxjI0McdWIKRymFYNtEhVexl6HeXdDIxM3ncRavwJ3cT16dmubKk38HqH+n+rDO5BAJhdid+N4swDeJWVS8KXBjQ12y7XXEyj+tbSm0lGliq74EwtEsuCmfdSwXYxSGiRhkjndblHqrjRM0KVn6gt7+V70e2aigZ9yxBM2JFmM6ssRN2Cqe0CNW/GIHQ9zUKtCCMA2QY4vSVukVXs13BPZMJZ8wqbXG8mPl+ovqUtnq6WX3tShI640i/MyfjUgGYM6UnDOzBZVilRfpvUMme1U6Ydk+0GG66m8Xrz3K1qZk4sa6V38r1aVHZ9RTE7QZWcYi4a3lUoY9VHDoQCpDv10VvB5bMercYbrpXMX/mnpv5Ph27Vps8cDFxpBdGP8LfquGksfoWETWmUVHUdT0WUDLSMV3QDbRX3XvvzFqb8bnAc0Zg1et1CoW5D3uxWKRWq81zhGblypXEccxjjz3GOedo94mUkkceeQSlFPV6/YQFllKKdnvhlHSn05n1/+crKo4IKpPIdotoaj84aaJmHTNTIBjdidfpgII4iIh9XQwUp/sVH0twcggp4CCLCADCgpn9u8RSEYQxflBjrNIGCU2vQ6M1SqAMJmsR/YZHXzEDMsb3YyYbEZ/+/nRv0WSA1UMOqwcdyq2IobzFaYtcVgzMZGnFRK0G7PoZyk4Rr7qkd1wUS8JIknn0W6TKW2muuIxUeUsvQiYafQK54RLU2FMAWMvPInKyGNk+ZKtC9aEf0Nn+oK7r88JrCbrXnT73FcTBt8iccxV+GEGozfNKKZTXRLgZhGEiM7OtBMbAckLDgaHVBIrZY9i3jMKv/C7h+A7soRUEypg7xk8Dv3tv/EPuEUDcaekq+p0WpnHAUhM3pnWGaHGEKJb45QmMfP+RlzQKfWQMCotwnr/PSDhErSYiCLUL2XBRltBjOz2GSOcRsUJ5LYQEGYR6n9ygtv5FisAPCDtt7arOFDDzBfxmGdptZFjGyh9w2cStGkYqo107wtbWQ9NC1csIywUnSyjLqHoFUEhlEAUhUbOODCPiWBJ3WkSH1DJTcYhs1cE0dbKGMhGRJFACv9WYNdZRp42dGyKeGQ9ho/qX6zii8ihGJgalkEGAEg5hEBJEMaJZR0UxKggxaKMkBNJA+W3s4gheGEPYIcQibpUxxewJVSmFbFYwMgVwC8TtNkp1x7qp3cXQjbsJQjBT0LcMYZr4wkZmBwkbNcJaWcdM2indP8NGSQFSIA66xzKMCA4aO8IYY9b7NNQfExJUQxc4RQmidptYGQSdNpaV1oWGnfSc9g/HfO9upUwCLGStgj2yFuXpexHaaeLyfgwpkF431EEIff1BiDHrfAZ4M38vllZhkZxlwQmFpf9OlNFz+4FCRhJihdFuo5RBaLr402P6gyHXD+kSQXUK0aihfB8pDaLuuZXhogqL8JUJB/VHj1333qXzRJ0OTlFAGBH4Plb3fSE7LXDTB/X9MKSKKLdAVNlPXN6PaTjEnTZxFuJ2mziMCH0fEUlIZaA7RidzrlzI7MznjMA6US677DJWrFjBn/3Zn/HRj36UgYEBPvvZz7Jnj45HeToDGYYhjz/++EJ1tcfOnTsXvM1nEyLoYFb2oEwHMVHuTg4xym5AHCH27gHTASFQU9UTPk8YK8qNCC+UxLHCtgxSjkBFIfXJGqFTxLItOu0qnbY+T9OHf3tI0PIFpbRiRQmWlRRrBzyE8GBwpnHYP6b/ma3vZmj0p5ixthps8dKo3CCdIMYwBI4hOb2ilz7J7LkXQ0W9CvFxZT/jd/0bjoyJ0yX2VDtQ3UEqO4TTqtB++AcIIBhYxd5GBI0dBy5w/Sup+MCOg7bFISLogGGg3BzImJydwQj1S3I8tJAH7z8vFuwdnbv5kKSAE2V0dG7bwmug3Jz+f7qqN8YRIvKJ2yZquqNLaFTHUeOTYB0+hVx4DWSqgPTmv07htzCrexFKEeeGkM3u0jXNCkZjElkYARVjtCooO4WII6KO1bMuEAVYlf0ocxojbBPnh5GZ7kQSRbqPYwf6KDo1ZLYfo1NDWWW9wHh+GBG0UUYL6e3CaE5j1sdQTpqoCVZtv85YE4I46+vfpepzrkM5aWS2H2SAau/U1tpWGbMxCemCHmulEH6TuCVQztTswVAKs1ZF+HsRKOJ0EenvBSWxynt1ZphhEbXNXsat0ZwGGSKDMRDj3WusY9b3o1LV2X0M2mCYREUTalt72436OIZX188o6OdWRkQde04mmtGqYTTGEQji3CCyHutnXMWoxpOz9iUOsSr7QUowDN3efCUvmlPd8c4Q+Y62tgQtzMpelFvTAevFxcj6k3OOPRKHvruNVhmjUyUK07B/ujsmHczqPoTagzJ1TKYyHUQczH7OjhHh1TFroyhnGhG09HNjWCjLIe7YvXIGwmtgtMqoVF4nf1R3YtQmMdtVlO0Sec4xndtoTmO2ppBODhG0iDuGfo4q+1BTNW1l8xrIbB+yevTlj6D7/NRGUWk99nFDolLTEPlYlf2IKNR/Z4e0d7LmyqNVJjhWnjMCq1Ao0Gg05myv1WoUi4fPjnAch49//OP80R/9Ea99rS61v27dOq6//npuvvnmWTFdx4tt25x22uHr6RwvnU6HnTt3smrVqhMqDvhsRUUhmAfKGsT1KYKMxCoM6CwYYWBkiwcC3GWM8tsIN3vCWSJ+ELO/3CZnhCzO2HMWK0bGhHHM5NQkTqafsYZg67jP/Ts7hLFiIGfyjpf207ftNhAG4eJXzV93JfJJPXELIg5RwkSomJVylIZdon/7t3BOvwh3eAXNp7p1sJR+QVhDKxBSEk3vxZnUi80WX/BKhlfoWjC+0aQ58RSiK8WGLvyV3jIaR0J6LS2ufE9bTToNWn3DRBM7EW6GFWduOqElbZSMiWuTGNnSrJgKFUe94Nyj4fs+o6OjLFmyBNedvb+2VA0RN6YwMvpZiFtVjEwRe9Hq3rMTTpSIm+V5a0nN9Ee269iLT5tT2qO3TxTg73UgCnGWnK6tK4D0VhBO78UeWKpjViZ36XgwAc7SDQeC4mVMsNfSHwBeG3vJabP6E04P6a/xwoC2Mvn9OItPJ5zeq605uVU4i0+f6Y2+1maVcL+LyJVwRtYS7HW1dSxXwh5cQTCa1q6inlgQyMY09sgazPzsAGfptWjufISx6RpLlq/AMXTdOHfZGfMGyktvBcH+rYDAWXxaz6rk77ORjTJGvh936foD49ddvmhWqn6nQbDP6haJlRjdAHrZrGIvWo2Zn21JjWqDRJO7en2XXhNMG2fp+jkfvSoKCEa3aKvZktMPe+9Bx10Fe63u2PXhzpMAARA3y4SjDmZxGHuR/puToUew1wYUGMO4S9cfMbHgYA737lZRgGzXMQuDB7YpSThWAGEiLIu4OolwU6AUzrIzjriCxHxIv0MwmoIwwCis0db/6jjWyJreagn6vAqUnNV+3BgmGN2KUejH7T2TRyZuVQn3a7Es0stwRk7TXol9lk5esGzixjTW0MpjqksHB54fI1tEtmo4S9dhpPPddm2U18Resk4HuHNy58qtW7cefadj5DkjsNasWTMn1qrRaDA5OcmaNWuOeOxZZ53F7bffzq5du1BKsWrVKv78z/+cjRs3YtsnXtxOCHFSKq6n0+nnTSV3FYd407sxs0WcbjyQVwswMlmsVAop+lFSYqYPqQCdObaK0PPR8kIm6x5BBEN9uXnX2QPAD/j5HvjJzioHR1gt63e4/vJBBlQZY0xn9hnrr4Bsd5KIQ5jYCsOnwejjiDgkygzAxldi3fcl3IknSDX3I4MW0ZP3YHfN+WZhkLgb45FbfQ4yCmlM7wUgtepsiusOBKjbKzbQ1Cu14C5bT27xqmO69ijq6NIJShGU9+P2DxMNLCGa2Ik7soZ0+sSeK+m3UaVBHatxkEs9apS1hQTrmKt4u647xy0fBi5uqZ8w9hG2iTAd4sDCHVqKlT3Qbtg3QODXZ/XhYKJGGXNwBHdw0RGCztMY+RIqDkn3DR6IMclkiNNpjFSWuFnBq7sYlo3hpkjlZsf8mbkCcbuOyOZIFUqzYv+ksQTPbyDMrhEqXyLVN0BITBD7pIaXYR3SnjQFXkNnfDnZHGahjzBo4ZQGcIoljGoOlEQFLRQ6foV8iVT/8JyCkCqdJqoOI8bGcF0XW4aIdIl0oTT/Dclk8GMfYRg4B1XFNgslAq+OUyjhHuV9pFwbyxtB2I6uMxcF2tpZKJEeXNSL4ZohViW8+him6yKE0M9toR83O98zlMGOlhPVJkgV+45agNPMF7tj13/YfsdC4udLOP3DWN19lEph5HQCgzu0Audw43UE5r67MzBPO3LlGT1h7XWqGLaFsFzSueMvX6HSKcy6jkFNLVqBsGx828Iu9veu7XBIE8zmFFbfIpxjnHOkZeC1+jCcFM7AMh07KWOMSlZ/LLspwsAllS8c9fwHt2lkc7q6SCZLKl/o3Wcjm0eZQv+dpWa3dzLmyoUs3vqcEViXX345n/70p2fFYt1+++0YhjErQ/BwCCFYtWoVAOVymf/4j//gj//4j09mlxPQqdlxq4ry25huBmFayE4Lw9GTwkLVEgId71RrBUxW2kSRopRzD1jNpOKp/R7TzYh8SldifmJfi5/s1JPw0j6bpf0OF6zJcdqi7nG79h5ovLIHmelDSTAeuQ1z70NEfSsRXjeVfeUFLFq3kdqTWkSpug74VFFA+8l7AShsehne7sfwx7eTXnMu0u/QeOC7GG6a0qXXzLoWM53TgezjO8mfc+Uxj4EOFs/oUgIyxsoPkF13IShJduOxVR2fD53ynScO/VkZS0pK7NKwDuYV4oTup1ISgU6514GzPioMEancnHpVhp0GYcxbQHFmuRa7OHxEK50QAjNbnHdJj5ksRWHaCIQuj2CX5rbhZpDVcV1W4hCBY6SymMVBosoYKgxxRnR/rEweme/vWcxmtee4OgNtJrjXSfdqY+ksyBRheQyrOIRh2YSVcezBpfNW2xZCdC1GqrfciFU6siXh4LUCe9fh6LE+mqABPV6ppdoCEtWn8fZv1assLFo1R1wBuh6UaXdrHNm9bMnDYRcGEIbQpQqOgtGNPzxc9pq+tpQO7j/oo0AIAzOVgdDrWUpOFjMFTYWTwpgpL3MYi+vREMLAzBYx3DRGpoAQAndkda/cxBGPddKYudLcD9wj9d1J4S5a1Rtn6GZyWw4q8PT7QRjHbP0DnZGJaaH8Ti+DsHe+VIb4CBmqz2aeMwLruuuu4+abb+Zd73oXN9xwA+Pj4/z1X/8111133awaWNdffz2jo6PccccdvW2f+tSnWLlyJQMDA+zYsYPPfOYznHXWWYct7ZCwMCgZdwsA2nqx34ldIGOd0TRP3ZYTwQsipmseYSiJ4piWF5FyTIq5bqVnqbj7iQY/fKxOvRPP28bV5+R5xbn9c39R3t37ZzC+k07pDIzWFIW9DwNgVXbpX1ouS857IY5rE62/uLe2WGr5Br3cShd36TrS3fXRhBCYmSKDr/pdzEyhV3hR+h2dXp7KMnDV9brI5FEqc+tClaaebMWBcgPGktO7GZd5Che9Zt51946ZWGdsyTBABh5mKtsNBtUZR8JyCKb3HnGSlKGH8Js9F9PBbQvTQlgWRjpLOKWLO7pDy+YIIMNJdbOY5pZziNt1rOLgvALmUOzS8BF/Lyy9eLIM2vNO1Ibj6ngnNz2vS8cZXIaZ1taQmUw0I5XFHVkzb8anEAbO4PLepGjYLqaT7k1SRiqnK2EPLe/WpEofcUI20nmUnSZuTOPkS71sssNe7zxf7cK09bmOMybIzJUwM0VU0ME6jDtPWA5Ytq68PrNo8xGeT2HZx1yh3rBdLaCOFKdnWvpeHHLvzFQOpFrQD78jYdguWC6yWdEJDyeI3bcI1IH7eCRxeTBCCNxFx78W43yFYo1UhqjT6H24HMvqA71+dIvfhs0KVjo/O3PRTkHq8OsbPpt5zvS4WCzyz//8z/zFX/wF73rXu8hms1x77bW85z3vmbWflJI4nv0Cr9frfPSjH2V6eprh4WFe97rX8c53vhPjWV4F9rlO3G4gO3WdSm2YSK+JsB3sp5H6PEMQSRotn8lqhyCMsS0TwxCUcm7PJThWDfjCj6bYV9GWjaxrsHrIpelLlFJkHMHKQocrzphbWykIJXZ5T+/nTHs/I0uLtH74TUIUVreAJ0qSXXchTkpP9tl1F9LZ/gvsgaWULrmGsVv+X6Tfxh5YMm8Npznrb/ktvaaiZWtL1Dwv+kMXV5V+C6UEImdiGOaBr+PuEh8Ig5mFi08EFUdgGjotX8YEk3u1O7C7rpiwnK7pXh0xA0f5bZSlaxtJ2+ylXCsZ68WeTQvTSRMCVml4TtwO6InWcDO67MTBRROjAGEYWIWhYzLxHy3ORZgzwdHG/BYY09EVpVPz1+USwsDKlbo1lA4+7vCv3INLYgjLRjjp3j22ciXMVLbnhnUGlhy5/4aBzA3ijKwk1Td4QoJBmJa2JhznGoHCMHEGlugSLIcp86En1Iwu7hlHGKZ1xCVfjuv8ph67o1lQ5nsGzHy/tkqeonXuhGlhpNLIdu1pXf/xiuCTgS6UG3VrttnH/dwYTkaHvx3yzFj5PtQCzBnPBM8ZgQWwdu1abrrppiPuc/PNN8/Z9r73vY/3ve99J6lXCYcjburifjOTyokuj3EwUiqmqh3KDQ8/iEm5Fn35uV9r28Y9Pv/DSTqBJOMYvPb8EhesyWGZB16cvh8wun/f7AP9JuHUPjruACmvhi6qo5D1SYyxJwhHnwRhMPDS3yAs76e97Rfkz3lp73DDzTD8+j/o/Zzd+CIaD3yX9KrZFdYPhwDMbJ8uUFgYmH+drmYVJSOM0jBKSrQIEN06YvZs14Bh6P/kiQssGfoIO9Wtx6N6xQC18NK1bgzAMJ2ey2c+lFKoVB6rfwmyNY0oaFdsz1Vn6AndKgxi9y8+rJvPzOR1rNXBfWzXu8t8HPuCw0dCdK9LmOa8E4UWQJmT5rYQtqtLbXTbN5z0LEF5LCgng1k4MXEFXTHrHL8FC/TqCkerIWWmskS1qW4SjH1cLqUjIZxUd+yOv73jDTBfCMxUjthyeqtOPFcxs0VdJb9RPuLf7+EwujXuDrW+6TUZn3kBeSI8t+9owrMWFYf6C/YYTdXHQiwVk5UOE5U2KcekL+/OESDVVsTd/397dx4fVXnvD/zznGX2zGQPEJYQkMVKBHdEcakVUStWrWJd0Nsq9qJWvPantl5ar9ZS2lvaq7f12uVC0StqtbZUxFo3KqhVpLXiUlllTUK2WTLbOef5/XEmQ4YsJOFMYsLn/Xrxkpw5c+aZx4H58jzf8/1+FMFfPgrDsOxioP9yRhkKvD37i9N6+ym4W3bBUzQSErDv3LMMGC31aFq7EgDgn3QKtFAZtFBZh9Y0Bys49mx4KidmeiJ2T0oLgF0t2660HOuw6mU3n4XdC8407FwkTYfQ3PadeKGynL+MhKJme6kByDRp1npcEd1+zZTdlFVRoXh8dv5RKmHfLZbJq7P3CnO3fA4mICBVl32tdLs+ZJYJ4fHZ26beAijDfd1+0dlNuZFtzWKlk3abj1DPVq96StE99hg7WXVSdJe9DeXg5zv3+m54hvV+68ZJwuWFFiyHyNN7FJkikmYyBj1Y6tgW0Gdh7npD6B67A8Ug3AJrT9HdcJWOtNMS+rJimvkzNViDqc4M7v+j9JllJeN25WsHkkXThoXWRBqN4QQirSn4vS642noEpuKAkQR8hdi4PYb/W7cfRmax5piRXlxzeumBcw+iNO2Ev3kHUukmxMvGQ43VI9RiJ7bLJvu/7ooqu5p4S73d783jR/C4c3s8diEUuMpG9ezkTC6Skml5km7YAxwUCJmtEWgFRTCTrXblb2kBqgYtWGyXL+gkcBKqDpm26zRJ0wAMo8N1u2WZB5K/FdX+V2rjXgCAEvIfOO4NwAg3AOiY72OvdqmQqv3Favchs3O2pGXmVGg+5PadywOhe7LVsM3WCPTiYb0KGntCuDxAXOtii1CHe1jnCdxDRVtrnHxR3D7oxcOhZvLLjlSK25vJLRz8nyXVH4JWOjJbib03hOayA80hMA9tGGBRn0lpwQw32O09hAo1UJj9cjQTdm+1w+l2njYs1Da2IhpPIZU2oSkqgj431LZtvuh+WOuWQ5gpPFd4FV7aYhdbGFvmxjlTQpg8wpO7ohGpA5KtQGkVrOY9cG/4P7RViVFqKyC8QZiwA4C2gMRVPgbSMtH6id07MHjC+XlLgJXmga0SobsOdKrPsIwUoNj5SbJpn107SNp9y1RfMNOnq+NfbELTMluJbT/bK009SXq3G82qOQnlqjeANCSElDl3sdmNlOu6fG9C0dBWwr6tdYeVStgrUb3YalN0N7TCCqTqtgOZMeih7pPW+0LRdHtcXawsDOXgqj8ouhvu8jEDPYwBp+huuLu423Iwch3iBpKuCM0F/TC2tD+LGGBRn1mtESTrdmTuChPQgyXQSyrtJq2xZih9qDHWEkvBo6twu1Q0hhNoaInD79HhDWhQ2gVLRrQJxl9WwGfZNaZad30MYAJOn1iAi08oyq19JS1Yn6yHuvlVQEpETvwqtLqPoQFIaz7oioTVUgu02FWpS8+7Ac3rfwcj3AB35VF23pHLC1f5aPiOym2m3BtmrBlCc3eZ+CtN016dUVT7L9v2b0FaMGMt0IuH24FUPAIz2gwg0x/O5YVaUNLpLfVC0ewaSpmGqcLlhUzGITN1eOzEdMVumHtQMGGlEoDLmxO4KW4fFM0up9A+b0bRMzlVlgUr2Qqh2Ldqi7a+fpoOKFb2GmqwFOnG3fbdT73cHtFDpTBjTTDDjXANr85Lz0TF7YNW4FzbDKKuDJXg6nAIIaC1K8g6FDDAoj6RUiIdrgekhB4shTQNpFv2w0oloBcNs3NXetmYM540sLc+CrdLRUmhF43hBPxuHW7XgS2jlGHhzU+iqNz8LI5SojClgCokTiuqxbhx03HcWH+HL0Tr/T9B+/Tt7M++lm1wJ/bABJCqnILSycch/NKvIdNJuCsnwFU2GmUXLoC0rOydPcO/sgiA6FMV9Ow40ikIy7IL80kJK27382q7prQMuw4PMomdQsnWnDJjLVB9wUzyqMhsqdk5W22BjbusYy0jIFNjxrIAy7Lv1PP6kW4Nw4w227fU+0OwEjGkm+vs8g7tmy2nk3YZhnbbdoruhuILwIpZOYnEbXecGeF6KJ4CSABWrNm+Zd80oLgCAGLZ812llRCKAiPc2OsvGKFqcBWPQFpRoefpL2XF48+pk0RE1BsMsKhPrHgEZrQpe2egUDVowRKY0WakGvbAMlLQenHXoJQSjS0JJNMmkoYJ05JIGyYCBQe+eLfWJfD4+gY0RlJYXGQ3Atwz6gsYtetPqDR3Y8RIBeK9PwCWBRkoBUZNRUrxwrUnU7dqWDWMfVvhbdqczSGShSOgFQ9HyRf+BdH3X0Pw+POy70e0SwU63LuL7O1SNZPInmmhkYzbgVRmSVyaZnbLzb6DTYM0zcwdgBKuksoDJRh0F9pKhR8qZ0EoKiTsAA5CgeovhNFSDyiafU2P3w7kdA9S9TvtVSdFte/6y9TkOpjmCyGdTuWsYAnNZa+kubxwl4+B0F1I7t0CKx7Jrs61D7CEUKAXj4DqDULpRaHDNqo/BMVXcFhBLxFRvjDAol6TUtrJzFbul3tbUqwZa4GiuXq1tRKLp9EUTaLA54IiBCKtCRRu+RNE827ASGKbbwoe2nIUJIBJvha4hQGpeVBZcyJk3Tq7yelfH4dosRsJCwBm024kR5wAT6YoZcmMS1H79A+RrrcLiAqPH5bXLtboHja2Q00qR1kmhKraCeaZnxW3D1b7O27Ega0CoWp27o9lwJLSLpPQLom7beut7ffdEkqmRZwFqCoUbwCqv8gOUDwHktT1wnIYkUY7edwbsJP69c63NBVfELpQcgJPIQTc5aMztbHs96EVFCMRaQSEgFA7jtMuuNr38h0Mrojos4p/O1G3rFQCRqQp91giBjPaCKWLFaq2eig91ZpIo7apFYCErilQVYHClk+g7n4PItYAkYxiWMMGABZOrPbjX461E9BRVGkX0SwbBwDZ4CpZaedJKfWbUdj8EQDAUzkhU1rhQAKmXj4WnTZwbkdKaVdKP0xt+U8y83LStFeMkCmKKy0r014iE2BlCobahftSUL2B3GBGc9mBVaZeU7cyK1iwDCia276zcdjYDtX0hapBKyiGlU7YY0on7IKNnWz1Krq702r8ituXMx7FE8hsYSpD6u4gIqJDYYBF3TJbw0jV7YAZa8keM8L7cyqJ90Vb38D9zXHsrIsgnjRQ4MtcT1rA5tcBAK/Ej0arpcOnpHDF5DSuPLUErohdHFQW2TlHsnxc9rqJimOgTZ0NFI+EgITcsRGA3TAZADyjJmXP1XvQIkIaSRixZljpVA/OTcOINObcsZe9E9Ay7UKambwqaRn2ipbS/ufckgDC7c0U9DQ7tDoRQtg5Qpledd0Riprpq2ceCOC6CCxVXxCKosJKJeyWOP7QYSV5Ky6PfY2eBIJEREMIAyzqlpWIwoyHkWrYDSuVgBmPwox0vXrVFdOyEG1NIZkykUyZ2FUXxY69LdizPwopgZDfDeXTdyHW/S/w3nNQYg2IWS6siddglxgOADi5sN7+sm/KVF8vGgkpJVqDYyA1DyxXAOox52JEaQCFk0/OeX1PZSbAGtnLAMs07bwny+j+PCMNI9YMoblgpeL2e26NwGhr+mxZmbsDNXs1yzShePwQuscuCdGuKnobRXdnGqeKTpv6qt4CKD3YXhOKYldfN4xDFsZUPH4o3gKYsWboheWOJJCr/iJ7K3KQF1IkIuoN/o1HXZKWCTMRg+oLwWwNI7HrY0BRYJlp6HrPO7+HW1NoaI4jFk9DUxUoikAiZSLod0NtK6cgJYwPX4XLbIVotot8vp6ajK+fPxqjI83Apk8h9m+DHFkDEW+GhIBVMALhaBJulxeJGTdCVTUMH15qv8bYY9Hy5h8gzbTdBzATiLiGjYVrWLVdhbugBGiIdD94y7SbCx/UoLgtWV0IBVJaMGJN0Ivtau1Gcx3g8dvNjUUmsd0yALcHsFR7NQt2pXDV67fz2aS0e6C13wZUdTuJXdc7rabd44bZiprpq5c89GqXENBC5RBuH1zFwx2pLq0GQlDcXiSMvrfrISIabBhgUZdkOgkY6WzTYWkkIS0Lmr+wx9cwTAv79seQMiwEvC4YlgXTkigM5CbB79tThxFmKwypoMnyw4JASc2pGF3iBtyZlaamT4GG7QAAK1CGpqREyO/G8FI/PK6inEbDissD79gatG7eAM+oo7OvIxQVZeffBABIJBKHnoO2ZPRkPOe4GWkGAGjBYntlSPdALxoGKx5FWu7L9NdTIYQKmCakZUF1+WAZdg8/KZApmVCAdONeKP7CDu10hKrbq166+7D6tIm2hs9C6dEqklZQ5GgFbyEUO0A0Dj+XjYhosGCARV2yUklYZjrbW070stksAMQSBhIpE6GAfXegqnZcQUmbEhvf/RAjFKBOKcc/x1+BIp+G40Zn7q7zl0C6CyCSEcgPX7bHFhqBEaUBFBV4oGda4RycKxQ6ZQ5cw6rhq57a63FnteUtxaM5hyUsIJNfJY1UNghS3D4oqg4zHoHi8kFaFqRpt7RRdBekbm8hCsUOdhRNh1ZYAVfx8A41l4Sm2a1zvIHDK3aZafhs9yXkH3kiov7AHCzqkpWK43BrWEdjKSgCOVXY2zNNC0+80YCStH0HYMnosZg5KYgpo9u1SxACsrQKAKAkw4CioezYGSgv8mWDq84oLg/8E048vORq0bYNeKBtjTTSUFTdvsvPSNvNTb0FEELYxTZdXljJVrt1kKbbq1mwK6q35VwJJRM8uX1wDx/XaUFLoeoQugfqYbaOEIpqryKpqp1YT0REecd/zlIOKS07id0XhJWIHlZwkkybiMRT8Ljafcz2bwN0L/bKYkR2bcPYHc/CF5uKcR67h53eRW+y1vIp8O/9EK5h1Sg+9Us9zz86TBLIbK8dOGalk4Duhmj7PaxsECSEsCujxyNQPQFIy4QRj9jXUVR7Fcuy7DsK2+pYdRF8ClWDGijscAdhXwhVhzTSTDQnIuon/NuWcljJuF3N2+W1V1p6kftjmBYisTRaE2lIALqmIJU24QtkPmbNe6C89SgSig9L9l+KL/n+gUmeFC72vQNNWHYQUjQqez0pJRIpE2nDggyNQsFl30Eo0POmwIerrTaV4vLYZQ6k/bM0UtAChYBQkG7Ync2TaqN6/LD8IXu7MJ3M5GNlAirLzPTo03tUHd51UF5WXwlNBwz1sCvSExFRzzDAohwyFbeT2Y00pGX0uPmmlBL1zXHUNbZCVRVA2qUZdM1uufLHjc2YvO8VTADgsVpRqLSiymPfwaeJzN1lBeVApqilaUq0xJLwuFUE/Tr8XheC/r4nevdJpg+gcHns4Mg0AU0Bsu1jBNKWBeHyQnEdCLAUXwFcmssOojS7abNdokEFLA1CVXPO7w9C1extSQZYRET9ggEW5TDjUUCo0AqKs42GeyIaT6OhJYGA1wWXfiAvSmxag9Sn7yMeORbjfduyW21fPtrEmKYI0P7mvOLRAOyGztHWFIqDHpQX++DWByYokJZhb+u5PHY1dMsELPtuPKF77PpULrddvbx9gVChQGTay2Rb2mQSzKVq2YGO1s8Blqb3e1BHRHQkY4B1BEs310FaBvSi4RBC2HWv4pHsdtehgivTstDYkgAEEI6lIICc4ArSgvnp3+G2UpjrfzPnuUcHmiD22NXhraPPhdj+DuSoqUilLcQSKVQU+1FW5D1QJ6u7cSRiUNxex/rSGdEmKLrHDjBVzZ4PNRNgpS0I3W0HXULYv2/XI/Bg9lagbt/Jp2oQ0gI0N5R+rmquuP39HtQRER3JGGAdoSwjhXRTLWQqDqFq0EPlsFIJIHNHXE80tiSwZ3/MXslRgAJv7hZe7a49GG7ltpiRhSMhmndB7LN7BEqXDxh7MuTYk5EyLMTiKZQX+VFe5IXSg+DKSidhZUooqJ3ciddblmEHimYiBkXTITw+Ow9Lc8NKRGBZFrRAcTZBXSssh+Lq+i6/tsbHQtXsZHZVs1sMqf0bYB1OQ2UiIuo9BlhHEGkaMFvDUP0hmLFmWMkYFLcP6fpddkFMINsT71BiiTT2Nyfgc2vwuDueH09Z2PjuRxiuAbuVERh21EQoZhqyoBxi4y6IcK19YsDO8Uqb9rZgRXHPgysAdjkEfxBWKtnDWTjE9RIxu+5UawSWkYSqlwEAhMsNGW2ChF1xvY3ernl0Z+xtRC+QeT9CUaEWFEFx976mGBERDR55q4P197//PV+Xpj4y4xGkarcjVfcp0s31diNejx9QFKRqt8GINADi0PlOrUkDdY2tMCyr0+AqmjDxyMt1KDf3AQDKxlRDjD8NcuJZdiJ7e4FSpE0LkVgKZYVelPUiuJJS2pXWXXZT5G7fe6wZZiLW/fUsy94yDZZB8fgzFdrtVTlFc8FKJ6B4Ar1eDRIeH4R+IKDSQ+Wd9hYkIqKhI28rWFdccQXGjBmDiy66CBdddBFGjRp16CdRXsl00t5Sa64FIKEV2KtHqrcAVrIVRks9VF+w22u0RJPY2xBD2rAQ9B3YEpTRBljrf4O9rjFY3nQi9kctzCu0Gx1rZaMPXMBfDCkUOxcJQNJViGgshbIiHyqKe5ZzdeD9JKBomRyo8P6cVjk550kL0jQhhAIj2gzVH+r0PCsVh+L22ytiRhpmazhb+VyoOhTdBa2gpNf9+fTC7le5iIho6MnbCtYPf/hDjBkzBj//+c9x7rnnYu7cuXj88cfR3Nycr5ekQzATUTtICJbYeUTKgf/9itsHrbACSjdVw5MpE/saY5ASKAy4sytNhinx/ptvQU9HMTq2CbPkWozxJ1CsRCEhgMKRBy6iqID/QJFQJViGYSV+VBT7oCqdfxyllJ2uUFnJOFR/EKo3CEXVga5WsUw7WV0vrYRQNVidrGRZ6SSsVBxasBRC1aH6CqB6Cw4UA1U1KN4QtEDPm1y3EUJxLAGfiIgGh7ytYH3xi1/EF7/4RTQ2NmL16tX44x//iHvvvRcPPPAATj/9dFx00UU4++yz4XL1c22jI5S0TFiJuF02QCiA2vELv7t+d1JK7G+JI5kyUVRg16raUZ/E33bE8EltEnON7dlP00nurTjB0wgkAATLgcx2WDxpwDAkPJ5iuKP26tao8dXQAt23grFawzBTcbiKhnV4T6q/EEJ3AZoOaaazleelZQJSQqgapJkGNB1aQQmkaSFdtx3S47d7CCYiMCONsNxuuEoqs6tNitsHLViSLbegePxwlYyw86mIiIgOIe9J7sXFxbj66qtx9dVX49NPP8WqVauwatUqLFy4EAUFBZg1axbmzJmDE044Id9DOaLJVAIwkhA9vEPwYJHWNJoiCQQy24J7GhN4+9W/QEogkhqJ0UUNAADrc7MhPnwRSqLZfmJm9SqeNGCaEgV+DXrpcJj7P4bQdKj+7leEpGXBMlJQdXe2Irp93LR76+luCEWF4vbBijUDbh+sZCvMRAwCgBYqgzTTUDwFEIoKraAIRnMtrEQMZmsYljcEtXgE3MFCqAXF2SBTCAG9XUAnVO2QYyUiImrTr/sWbrcbXq8Xbrc7my/z0ksv4ZprrsGll16KzZs39+dwjihWOgkrU9eptwzTQn1zKwQEdFWBGW0C3vgNLve9iSv8b2Jh5QYAgCwcAVSdAHnGTZDlR0EqKuTwyZBSIp40UFrowaiKIEKVdk6WVlhxyK0zK9lqN0JWNLvwZ4Y00hCqC0qmlY/q8cMyDJixZkjTgF5Sma1dJQ0je9eeoruhhUrtXoGBYliBUujFw+3Vqm5W8IiIiHoj7ytY0WgUL7zwAlatWoW3334bQgjMnDkTCxYswFlnnQVFUfDiiy/iBz/4Ae6++2489dRT+R7SEclKJSBk357bHEkg2ppGYcANI20g+fqjGIlmWNKuPlDcug0AIMuPsp/gK4I8cS5SyTQsCBhxA163hsLM1qJn1GQUHHcuPCMmdPu6UkrIVBx6eRWMyH5I0wQy5aOkadjbgW05UrobgAUIFe5hY6F4/DCjzZDpJCClXRg0QysohpWMA94ioHl73yaFiIioG3kLsP785z9j1apVePXVV5FMJjFlyhR861vfwvnnn4+ioqKcc8877zyEw2H8x3/8R76Gc8SzElEIvWfFLQ3TgiIEhABi8TT2tyTgdWvY25zGx+tewTlKM8KWBzuOmotjav8IEd1vP7EtwAJgWRLRpAmP2y77UFroha7Zq1VCURGcek7nrx1ptLf/hGLXnPIGoBUUwUpGYcXC2fOkmYbqD2ZXnRSXB2qgCHrhsOxWnurxw4g22hXX2xX2VFxeuIePgxWPg4iIKB/yFmDdfPPNGD58OK677jrMmTMH1dXV3Z4/adIkfPGLXzzkdbds2YL7778fGzduhN/vx5w5c3DbbbcdMlm+qakJS5cuxdq1a9Hc3IyRI0fiqquuwpVXXtmr9zUYSSMNK2knuB9KuDWFfftjUBQBTVUQjacBSOipCJ57dReu1TcCAPZXno7PTRoFWfFF4I3lgLcQCB7IWWpNGvB7dYyqKICUEi7t0PW1pJSAlHCVjoSUEqrbB8UbgKK7obh8MMONB87N1L9qo7i88Awfn7MFqvgCsJr2QnV57UT4drgdSERE+ZS3AGv58uU4+eSTe3x+TU0Nampquj2npaUF8+bNQ1VVFR588EHU1tZi8eLFSCQSWLRoUbfP/cY3voGtW7fi9ttvx/Dhw7F27Vp897vfhaqquPzyy3s8zsHIjDXDSieguYu7PS8WT2NPfRSmKaGqAqmUBZ9Lgf7B81B2/Q03ZWpjmoEKVE07yf6haCTkzPmA5gYyQYslJdKGiYreNmrOJK5rBcUdykXYvfty9zgPDhgPzi9TdK+do6XqPQouiYiInJK3AKs3wVVPrVy5ErFYDA899BAKCwsBAKZp4t5778X8+fNRUVHR6fPq6+vx1ltv4fvf/z4uueQSAMD06dPxj3/8A88999yQDrCkkUaqqRaK7s6pe3WwZMrE3v1RGKZEyJ8JRiwTYuMzEPs+giUFElKH26VCTJkNtEtOl/4SpE2JdCIN05QwTQs+r46gv3dBjbRM+7qdNZlW9Wx41baFeKigSXF5IDQXFJf7kI2riYiInJS3uwiXLl2KOXPmdPn4xRdfjIceeqhX11y7di2mT5+eDa4AYPbs2bAsC+vWrevyeYZh331WUJBboiAQCNjbUkOUtEwYkQZYiah9J14XLEuirrkVrUkDQV9bFrkF8bdnIfZ9BEMq+N/oGXhr/NchZt0BFNtV+aWUiMbTaIokkUqZ0FQFhQE3yot8qCj2Qeuk1la3LBNQtE7vdBSaDqEo9l2BmXINbTWvuiI0HYrb123xVCIionzIW4D1wgsvYObMmV0+fsYZZ2D16tW9uubWrVs75HIFg0GUlZVh69atXT5v+PDhOO200/Dwww9j8+bNiEajWL16NdatW4errrqqV2MYLFL1OxHf8QFS9TuhuH3dlkNoiiTQFE4i6HPbuUlSQry/BmLvBzCh4BfRs9AQGIfTJ+YGqK0JA4oCjKooQHVlCOMqQ6gsD2BYqR8Fvt5vyclMGYnOVpvsAEuHNA27qrumHzLAAgC9qAKqv7DXYyEiIjocedsi3Lt3L0aPHt3l4yNHjsSePXt6dc1wOIxgsGOvvFAohJaWlm6f++CDD2LhwoW44IILAACqquKee+7BrFmzejWG9qSUaG1t7fPzDxbP3NUWP8y726RpINWwDzANCLcXAirSiUTH86RE0+b3kfznm/CWjIcxYjJMy4D44E9wN2+HBLAieho+SlfipmlBpNPp7HMN00IskcbI8gB8LkBaaSSTPRibZcKKR6D4OvYDNOOtUH0aZCdzKqWFlGEAqRSkZdg9E+Md31NHmp261ck1nZpv6hnOd//hXPcvznf/yud8d9XTti/yFmD5fD7s3r27y8d37doFt9udr5fPIaXE3Xffje3bt+M///M/UVZWhvXr1+OBBx5AKBTKBl29lU6n8eGHHzo8WmD79u2H9XyRikFt2g3p9ufkSh0sHEuhYtMf4TLjcLXsBLa+kn0sJVWsjE3HxlQVaoZLuNL12LPXfswwgXjSRNCvYr9sRmMvPowiFQeMBKQnaOdaGSkIaUHqHohEBJa/CFZj55Ga0rwXSioGYZkwA2Vdntdbhzvf1Duc7/7Due5fnO/+la/5dqqFX94CrJNOOglPPPEErrzyyg7J53v37sUTTzzR60T4YDCISCTS4XhLSwtCoa7bmLz66qtYs2YN/vCHP2DixIkA7CT8hoYGLF68uM8Blq7rGD9+fJ+e25l4PI7t27ejqqoKXm/fe96lm/bB9ANqQUmX5zRFkpD734VuxiF1L6LwoSDdAFMK7DaL8Wf1DJQfNQy3VnowPKRlInqJcGsKihAo8LlQVuiFS+/dLrMZaQJUNZuAbkYbIS0LWrAUZqQBWtloaKHyzt9XYwhG3XYoBSXQy0Yfdl9Ap+abeobz3X841/2L892/8jnfTnaUyVuA9Y1vfANf/vKXccEFF+Cyyy7LBiKffPIJnn76aUgp8Y1vfKNX16yuru6QaxWJRFBfX99tna3NmzdDVVVMmJBbOXzy5Ml46qmnEI/H+/Q/SQgBn8/5BGqv19vn60ppQexPQAaCUD2eTs8Jt6bQEE4jWPs3AEBy5In47sYqmJaFyZV+fOnEIlxX0DG/qSWWRDDgw/BSP3xurU/LqOmUDkX3QGgaFN0DI+kCFAWqywXT7YbbXwCti/dumMUwVQG9dCQU3bnVz8OZb+o9znf/4Vz3L853/8rHfDtZIzFvAVZ1dTUee+wx3H///Vi2bFnOYyeeeCK+/e1vY9y4cb265syZM/Hwww/n5GKtWbMGiqJgxowZXT6vsrISpmni448/xqRJk7LHN23ahJKSkiH1Lw6ZjEOm4lDcnd81KKVEUzgBNbwbangvpKLi9cRRMKw0Rpd48LWzyjr9gEVa03BpKkaU+uHz9KwifIfXNtJQVN3etrQs+5gAFFWDNNOQ6FjLqj01UAStoPtaXkRERJ8Fee1FOGnSJDz66KNobGzErl27ANjJ7cXFffuSnDt3LlasWIEFCxZg/vz5qK2txZIlSzB37tycbch58+Zhz549ePHFFwHYgdmIESNw6623YsGCBSgvL8frr7+O3/3ud7jlllsO/41+hpiJKKRhQPgPBEFtzZY9Lg3xpIFILIXQp+sBANbwY/DKJyYA4Myjg50GV2nTgiUtVJQE+xxcAXbDaaG7ISEhMwGWgH2HoEyn7Dsdu6lXxerrREQ0WOS92TMAFBcX9zmoai8UCmH58uW47777sGDBAvj9flx22WVYuHBhznmWZcE0zezPgUAAy5Ytw9KlS/GjH/0IkUgEI0eOxF133YWrr776sMeVD9IyD33SQYxIA9L7d0G4crcGw61p7N0fRWHAA8uyoDVshdKwDVKoeN06FtGEhUKfiprRnS+1RltTKAp6DtTI6iOZTkItKIaViEGa9h2AEnaAZcajUDQXhMqCoERENPjlPcDat28fPvjgA0QikU6Lel588cW9ut64ceM6bDkebMWKFR2OjRkzBj/5yU969VoDxUq2IlG/rddBlkwnoLi8OYU1U4aF+qZWGIaFuqYYVCEQ3P4aAOCN9CQ8s8k+b+bkIFTlwAqRadqrXoZpQddUlIa8PVpB6uwW13RzXeZuRru/oEwnIFNtK1gCQtEgjTTg8na7RUhERDRY5O3bLJlM4s4778Sf/vQnWJYFIUQ2wGr/BdzbAOuIYJl29fUu8qi6oniDOcU3LUuioSWOWDyNogI3LAtI7HwfSrQeMcuFP0SOQcCtYObkIM6YdKCIqGFKhGNJBP0ueN0eeD0avO5Df1TMRAxWPAotWJINlKRpQNF0qMFSWMk4FI8PIh6GtCx7m1AICM0FoWmAqgIKAywiIhr88vZt9uMf/xgvvvgibrvtNkybNg3XXHMNFi9ejPLycixfvhx1dXX4wQ9+kK+XHxIUd9+T76WU2N8Sx/6mOAI+F4QQUFWgYdsnKADwTmocTjumHOccE4RLs0stxOJppAx71aw05EVFSe/a3UgjBTVQBDPaBLWgGEJR7arrqg5XSSWgKHaVdkUDpLTb8QgBxeWBoupQVJ15VkRENCTkLcB64YUXcMkll+DGG29EU1MTAKCiogLTp0/HqaeeimuvvRaPPfYY7r333nwNYdBLpk3E4mkoQiDTwSbr4DhECAEJwDQtSClhmBbqmuLwqibcH74EqBqaRp8FX2QnoAIjJ0zA2CmF2eenTQuGJTG8xA+XriLgc+VsGfaIZUL1FUBoGsxoE7SCkmzfQKgHyjoomg5Iy35Digrh8gKqDuFg6QUiIqKBlLcAq6GhATU1NQAAT6YeU/uy9rNmzcJ///d/M8DqgmVJ1DXG0BBOQlXs7VUBO0CRyGy1Ah1+d+D3An4zDPffn4aI1gMA3q8rxEw1DAsCVROPynm9ZMqE36OhtLBnuVZdsXPA/DAijfZYTQOqtyD3mkKxF7CkCUBA6C77l+ZM9VwiIqKBlrcAq7S0NLty5fV6EQqFsG3btuzj0WgUyZ40rztCReNpNLcKFPrdUNU+BDymAbH2CYjWpuyhYyNrAQVI+8qhH1QFPWWYKC/qe3Bl59cJu1mzpmdqWxmAaUDx5N6dKBTFDhUtmd02VH0hR4uHEhERDaS8BVg1NTV49913sz+fddZZ+NWvfoWysjJYloVly5Zh6tSp+Xr5Qc0wLDRHElB1T9+CKwDY/leI1ibEFT9Who/H9YG1CCn2CqJrWDXa389pmhKqosB7GDWuYJkQqgqhZbb6NBekkQIEINSDrisUSGFXnYeiAEKBq2RE31+biIjoM6Z3jeR64ZprrsHIkSORSqUA2K1zCgoK8P/+3//DXXfdhYKCAnz729/O18sPavGUgXjChN/bx/g31Qqx+XUAwNPhqfh7agxa9aLsw7J4TM7piZQBr1uFR+95DSppmTllN6RpAIoGoeoQigrF7YOVTgIQOXc2ArAT3e2LQAiVie1ERDTk5G0F64QTTsAJJ5yQ/Xn48OF4/vnn8c9//hOKoqC6uhqaxlvyuyIhofQl8Ii3QPx9FYSRxE6jGO+kqvHlU0rgUY4DPnoJUgiYhaMQjaVgmZa9wiQligMeCGmiJx8JaaRhRJsAoUDzh+xK7JZpl1nIlGdQPX4YjfuguL0dAiwIxc4nsyy7PAMREdEQk5dvt3g8jm9+85s499xzcdFFF2WPK4qS0wuQumeYEqbVsTgrYKexSwmYloRh2UVBox/9FWMb18OFNAyp4JnWEzHnhGJMP6oASE2F3P0PyMKRaEkCRUEdQZ8bmiqQDu+Hz2XAbA1D6G6onq7rb0kpYcSaoRcPB6REuqUWmq/QzrVyH0hmF7onE3DpHZPXFQVQxIE7DImIiIaYvHy7eb1erF+/HjNnzszH5Yc2aSH19jNQdmzDJy0SnRS/71SxEsVErRkAsDVdhpWx6ThuyhicMdluig2XD3LmfIRjKQTcKoaXBKBrCqS0YJpuuIdVw0xEYTTXAZ0EWFY6CZmKQ5omFE8AevFwCE2HlU7CSrXaBUXbJc4ruhuK5oKiuw5sCWYIoUAIFZaVZGFRIiIakvL27Xb88cdj48aNuPzyy/P1EkOSEg/D/HAtQgBCvcw5T0LHjtLTkBwxDdcV6BhWmLtylEyaEEKgosgHPVNc1F5F0rN3+qWtfdnz27e9MVsjdoV2oUALlmTv+NMKipHc14y2cgtthO4CNB3C3Ul/Q0WxC3mZpl0Ti4iIaIjJW4C1aNEifPWrX8XSpUtx5ZVXYtiwYfl6qSHF8hVi2+Rr8cbbn0BTBS6YVghXF3cSCiGgCNjBihDQS8dhvCfQ6bmmJRFLpjGi1I+A70AgJI20XQRUc0FxSyia3RdQmmkY0RboReWAlBCqAr2oAqq3IOe6iscPRdNhGemcuwXt0gtBKK6OpRdE5s5BKWSmRyEREdHQkrcA66KLLoJpmnjkkUfwyCOPQFVVuFy5KypCCGzYsCFfQxiUTEvi/za5UZc6CrOPDcE7rtCR60ZaUwgF3CgOeQ56wTQUX9DextPdgO7JbPsloBYUwkrE7KR0ly+niXQbxe2FcPkgrGiHcgyu4hH2atXBhGLXv4LSYfuQiIhoKMhbgDVr1izeft8HzVEDdc1J+F04kD91GJIpE7FkGl6XhvJiH9SDAh5pmtmm0vaqUwHS9TuhuLzQfEGkG/ZACgFXaGSnwZC9ZViMtJHqkLDe4e7BtuNKpjRDZiWLiIhoqMlbgLV48eJ8XXpIKwnq+NrsKujNu+DWDy/4iCcNpAwLw4r9KAy44XZ1tlokcyqoq24/0kKBGiiEFiqHEW4EjBTULrYeAUD1BGB6A10GVJ1SNAhF2NuFREREQwy/3T6DTppYjIqCvv2vsaRE2rTQmjSQMkyMKPWjotjXaXAlLcve/muXnK64vVB9IWgFJVBcHqgFRRBub4d2N+0pHj/cw8b2arvPXu1SOt9CJCIiGuTytoL17LPP9ui8iy++OF9DOKJYlkQiZSCZMqFrKhQVGFbsQ1FB1/39pJnO9A5sd/efywtXaSUUn53MrofKoHr8HdvdHET0cqtPqJrdk5BbhERENATlLcC66667unysfW4WA6yuJZMmWlNpu+o5kNM/UAi0a1Vj302o6woqywMIeF1QVQFN7T54kUYaQnPlBlhCQPWHsj8r7s6T2w+XULVssjsREdFQk7cA66WXXupwzLIs7Nq1C48//jj27NmDH/zgB/l6+SEhlkxjWIkfLs3eepOZEEtAtFVmADKlGlRFQNfUbH2rNmasGVBUKC5vhyR0aaah+oMDcjOCUDVAUe1fREREQ0zeAqzKyspOj48aNQrTp0/HjTfeiEcffRTf+c538jWEQc/r1lAc9HQImnrKMlIABISqw4g2QvMXZRPRpWlAWiZU7+HfqdgnigKoKrcIiYhoSBqwb7czzzwTq1evHqiX/8xTVQXFQXevgysrnYI0DQCATCUg3D64K4+C4vJBWkb2PDPWDD1YCjVQ6OSwe0wI1U6K5xYhERENQQPWCG7nzp1IpVID9fKfaQL26pUfrTAiiR4/T1omFN0NM52EHiqDZaTgKhpuJ6irqn3XIAAr2Qqhue1+ggO1RScUCFXnChYREQ1JeQuw3n777U6Ph8NhvPPOO1ixYgU+//nP5+vlBzV/QQDecePg0XsX/AhVh+r2IrlvG8xEDEIo9h2AQkDR3LASUQB242YtWJKX5PWeUr0BCJX5V0RENDTlLcC65pprOk2ellJCVVWcd955uOeee/L18oOa6nKjoLCq788PliBVuwNqIATF7QVgV1WXlmmfYFlQdE83V8g/oelQ2eiZiIiGqLwFWL/5zW86HBNCIBgMorKyEoFA15XB6fDoBcUwW+qh+kPZOweF5gLaAizIDncUEhERkXPy9i170kkn5evSdAiKxw+tsAKq90AQKzQNbWWzJAAwwCIiIsqbvGUY79y5Ey+//HKXj7/88svYtWtXvl7+iOcqrcwpGCoUDRB2exwhFK5gERER5VHevmWXLFmCaDSKs88+u9PHH3vsMQSDQSxdujRfQ6B2hKrZ9eAtE0JRGWARERHlUd5WsDZu3IhTTz21y8enT5+Od955J18vTwdpqzllGSmAARYREVFe5S3ACofD8Pv9XT7u8/nQ3Nycr5eng6kahKJBGim7PILCAIuIiChf8hZgDR8+HO+++26Xj2/YsAHDhg3r9XW3bNmC66+/HlOnTsWMGTOwZMmSQxYsfeuttzBx4sROf5133nm9HsNgJDJ9/2Q6BaG5B6T/IBER0ZEib8sYF154IX72s5+hpqYGV199NZRMSxTTNPHoo49i9erVuOmmm3p1zZaWFsybNw9VVVV48MEHUVtbi8WLFyORSGDRokVdPu9zn/scnnjiiZxj0WgUN9xwA2bOnNn7NzcYKSqEokCaaQiXe6BHQ0RENKTlLcCaP38+NmzYgAceeAAPP/wwxo4dCwDYtm0bGhsbcdJJJ+HrX/96r665cuVKxGIxPPTQQygsLARgB2z33nsv5s+fj4qKik6fFwgEMHXq1JxjzzzzDCzLwoUXXtjr9zYYCSEgNDcgBBTNNdDDISIiGtLytkXocrnw61//Gt/73vdQU1ODpqYmNDU1oaamBg888ACWLVsGl6t3X/Rr167F9OnTs8EVAMyePRuWZWHdunW9utYf//hHVFVVoaamplfPG8yEpmfuIGQFdSIionzKa6azoii49NJLcemllzpyva1bt3a4VjAYRFlZGbZu3drj6+zfvx9vvvlmr1fQBjtFd9vlGngHIRERUV7l7Zu2ubkZ+/btw6RJkzp9/OOPP8awYcMQCoU6fbwz4XAYwWCww/FQKISWlpYeX2f16tUwTfOwtwellGhtbT2sa7QXj8dz/us0M5VG2rAgkykowrlxD1b5nm/KxfnuP5zr/sX57l/5nG8ppWM3geUtwPr+97+Pbdu24cknn+z08e985zuorq7GAw88kK8hdGnVqlX43Oc+l80L66t0Oo0PP/zQoVEdsH37dsevCQAiEYUSa4AZEwC3CbPyNd/UOc53/+Fc9y/Od//K13z3Nn2pK3kLsN58801ceeWVXT5+1llnYeXKlb26ZjAYRCQS6XC8paWlxythn376Kd577z3cfffdvXrtzui6jvHjxx/2ddrE43Fs374dVVVV8Hq9jl23jRWPwGiug15RZZdtOMLle74pF+e7/3Cu+xfnu3/lc743b97s2LXyFmA1NjaiqKioy8cLCwvR0NDQq2tWV1d3yLWKRCKor69HdXV1j66xatUqKIqC888/v1ev3RkhBHw+32Ff52Berzcv15UeNyyvF6qvwPFrD2b5mm/qHOe7/3Cu+xfnu3/lY76drBGZt7sIy8rK8MEHH3T5+KZNm1BcXNyra86cORPr169HOBzOHluzZg0URcGMGTN6dI3nnnsOJ510EsrLy3v12kOBUFSovo45bEREROSsvAVY55xzDp5++mm89NJLHR7785//jGeeeQbnnHNOr645d+5c+P1+LFiwAK+//jqefvppLFmyBHPnzs2pgTVv3jx84Qtf6PD8Dz74AFu2bDlial8RERHRwMjbFuEtt9yCN954AzfffDMmTZqEo446CgDwySef4KOPPsK4ceNw66239uqaoVAIy5cvx3333YcFCxbA7/fjsssuw8KFC3POsywLpml2eP6qVavgcrkwa9asvr8xIiIiokPIW4BVUFCAJ554Ar/85S/x4osv4oUXXgAAjB49Gv/6r/+Kr371q33aOx03bhyWLVvW7TkrVqzo9Pidd96JO++8s9evSURERNQbea046fP5cOutt/Z6pYqIiIhoMMtbDhYRERHRkSqvK1jJZBIvvPACPvjgA0QiEViWlfO4EGJACo0SERER5VPeAqzdu3fj2muvxe7du7MFQkOhECKRCEzTRFFREeuFEBER0ZCUty3CJUuWIBqN4sknn8SaNWsgpcTSpUuxceNG3HHHHfB4PPjVr36Vr5cnIiIiGjB5C7DaWuXU1NRAUQ68jMvlwte+9jWccsop3B4kIiKiISlvAVYikUBlZSUAIBAIQAiR00dw2rRp2LBhQ75enoiIiGjA5C3AGj58OGprawEAmqahoqICf/vb37KPb968GW63O18vT0RERDRg8pbkfsopp+Cll17CzTffDAD40pe+hEceeQThcBiWZeEPf/gD5syZk6+XJyIiIhoweQuwbrzxRvzjH/9AKpWCy+XCTTfdhLq6OrzwwgtQFAUXXngh7r777ny9PBEREdGAyVuANWLECIwYMSL7s9vtxve+9z1873vfy9dLEhEREX0msJI7ERERkcMYYBERERE5jAEWERERkcMYYBERERE5jAEWERERkcMYYBERERE5jAEWERERkcMYYBERERE5jAEWERERkcMYYBERERE5jAEWERERkcMYYBERERE5jAEWERERkcMYYBERERE5jAEWERERkcMYYBERERE5jAEWERERkcMYYBERERE5jAEWERERkcMGVYC1ZcsWXH/99Zg6dSpmzJiBJUuWIJVK9ei5tbW1uPPOO3HKKaegpqYGs2fPxh/+8Ic8j5iIiIiORNpAD6CnWlpaMG/ePFRVVeHBBx9EbW0tFi9ejEQigUWLFnX73Lq6OlxxxRUYO3Ys7rvvPgQCAXzyySc9Ds6IiIiIemPQBFgrV65ELBbDQw89hMLCQgCAaZq49957MX/+fFRUVHT53B/+8IcYNmwYfvnLX0JVVQDA9OnT+2PYREREdAQaNFuEa9euxfTp07PBFQDMnj0blmVh3bp1XT4vGo3i+eefx1e+8pVscEVERESUT4MmwNq6dSuqq6tzjgWDQZSVlWHr1q1dPm/Tpk1Ip9PQNA1XX301Pve5z2HGjBn44Q9/iHQ6ne9hExER0RFo0GwRhsNhBIPBDsdDoRBaWlq6fN7+/fsBAPfccw8uv/xy3HzzzXjvvffwX//1X1AUBf/2b//W5zFJKdHa2trn5x8sHo/n/Jfyi/Pdvzjf/Ydz3b843/0rn/MtpYQQwpFrDZoAq68sywIAnHrqqbjrrrsAAKeccgpisRh+/etfY8GCBfB4PH26djqdxocffujYWNts377d8WtS1zjf/Yvz3X841/2L892/8jXfLpfLkesMmgArGAwiEol0ON7S0oJQKNTt8wA7qGpv+vTpePjhh7Fjxw5MnDixT2PSdR3jx4/v03M7E4/HsX37dlRVVcHr9Tp2Xeoc57t/cb77D+e6f3G++1c+53vz5s2OXWvQBFjV1dUdcq0ikQjq6+s75Ga1d6gAKJlM9nlMQgj4fL4+P78rXq83L9elznG++xfnu/9wrvsX57t/5WO+ndoeBAZRkvvMmTOxfv16hMPh7LE1a9ZAURTMmDGjy+dVVlZiwoQJWL9+fc7x9evXw+PxOLoCRURERAQMogBr7ty58Pv9WLBgAV5//XU8/fTTWLJkCebOnZtTA2vevHn4whe+kPPchQsX4uWXX8b3vvc9rFu3Dg8//DB+/etf47rrruO/NoiIiMhxg2aLMBQKYfny5bjvvvuwYMEC+P1+XHbZZVi4cGHOeZZlwTTNnGNnn302fvzjH+NnP/sZHn/8cZSXl+OWW27BjTfe2J9vgYiIiI4QgybAAoBx48Zh2bJl3Z6zYsWKTo+ff/75OP/88/MwKiIiIqJcg2aLkIiIiGiwYIBFRERE5DAGWEREREQOY4BFRERE5DAGWEREREQOY4BFRERE5DAGWEREREQOY4BFRERE5DAGWEREREQOY4BFRERE5DAGWEREREQOY4BFRERE5DAGWEREREQOY4BFRERE5DAGWEREREQOY4BFRERE5DAGWEREREQOY4BFRERE5DAGWEREREQOY4BFRERE5DAGWEREREQOY4BFRERE5DAGWEREREQOY4BFRERE5DAGWEREREQOY4BFRERE5DAGWEREREQOY4BFRERE5DAGWEREREQOY4BFRERE5DBtoAfQW1u2bMH999+PjRs3wu/3Y86cObjtttvgcrm6fd7ZZ5+N3bt3dzj+3nvvwe1252u4REREdAQaVAFWS0sL5s2bh6qqKjz44IOora3F4sWLkUgksGjRokM+f9asWfiXf/mXnGOHCsyIiIiIemtQBVgrV65ELBbDQw89hMLCQgCAaZq49957MX/+fFRUVHT7/NLSUkydOjX/AyUiIqIj2qDKwVq7di2mT5+eDa4AYPbs2bAsC+vWrRu4gRERERG1M6gCrK1bt6K6ujrnWDAYRFlZGbZu3XrI569atQrHHHMMpk2bhhtuuAEff/xxvoZKRERER7BBtUUYDocRDAY7HA+FQmhpaen2uWeffTZqamowYsQI7Ny5Ew8//DC+8pWv4Nlnn8WoUaP6NB4pJVpbW/v03M7E4/Gc/1J+cb77F+e7/3Cu+xfnu3/lc76llBBCOHKtQRVgHY577rkn+/sTTjgBM2bMwOzZs/GrX/0K3/3ud/t0zXQ6jQ8//NChER6wfft2x69JXeN89y/Od//hXPcvznf/ytd8O3Xz26AKsILBICKRSIfjLS0tCIVCvbpWeXk5jj/+eGzatKnP49F1HePHj+/z8w8Wj8exfft2VFVVwev1OnZd6hznu39xvvsP57p/cb77Vz7ne/PmzY5da1AFWNXV1R1yrSKRCOrr6zvkZvUHIQR8Pp/j1/V6vXm5LnWO892/ON/9h3Pdvzjf/Ssf8+3U9iAwyJLcZ86cifXr1yMcDmePrVmzBoqiYMaMGb26Vm1tLTZs2IApU6Y4PUwiIiI6wg2qFay5c+dixYoVWLBgAebPn4/a2losWbIEc+fOzamBNW/ePOzZswcvvvgiAOCPf/wjXnnlFZxxxhkoLy/Hzp078cgjj0BVVVx//fUD9XaIiIhoiBpUAVYoFMLy5ctx3333YcGCBfD7/bjsssuwcOHCnPMsy4JpmtmfR44cibq6OjzwwAOIRCIoKCjAKaecgltvvbXPdxASERERdWVQBVgAMG7cOCxbtqzbc1asWJHz89SpUzscIyIiIsqXQZWDRURERDQYMMAiIiIichgDLCIiIiKHMcAiIiIichgDLCIiIiKHMcAiIiIichgDLCIiIiKHMcAiIiIichgDLCIiIiKHMcAiIiIichgDLCIiIiKHMcAiIiIichgDLCIiIiKHMcAiIiIichgDLCIiIiKHMcAiIiIichgDLCIiIiKHMcAiIiIichgDLCIiIiKHMcAiIiIichgDLCIiIiKHMcAiIiIichgDLCIiIiKHMcAiIiIichgDLCIiIiKHMcAiIiIichgDLCIiIiKHMcAiIiIichgDLCIiIiKHMcAiIiIicpiQUsqBHsRg9O6770JKCZfL5dg1pZRIp9PQdR1CCMeuS53jfPcvznf/4Vz3L853/8rnfKdSKQghcNxxxx32tTQHxnNEyscfIiGEowEbdY/z3b843/2Hc92/ON/9K5/zLYRw7PudK1hEREREDmMOFhEREZHDGGAREREROYwBFhEREZHDGGAREREROYwBFhEREZHDGGAREREROYwBFhEREZHDGGAREREROYwBFhEREZHDGGAREREROYwBFhEREZHDGGB9BmzZsgXXX389pk6dihkzZmDJkiVIpVIDPaxB75lnnsHEiRM7/PrRj36Uc95TTz2FWbNmYcqUKbjooovwyiuvDNCIB5cdO3Zg0aJFmDNnDo4++mhceOGFnZ7Xk/mNRCL41re+hZNOOgnTpk3Drbfeirq6uny/hUGlJ/N9zTXXdPqZ37JlS855nO/uPf/88/j617+OmTNnYurUqZgzZw5++9vf4uDWvfxsO6Mn8z0YP9vagLwqZbW0tGDevHmoqqrCgw8+iNraWixevBiJRAKLFi0a6OENCb/85S9RUFCQ/bmioiL7++eeew7//u//jptuugmnnHIKVq9ejZtvvhmPPfYYpk6dOgCjHTw++eQTvPbaazj22GNhWVaHLx+g5/N72223YfPmzfjud78Lt9uNn/zkJ7jhhhvw9NNPQ9P41xTQs/kGgOOOOw533nlnzrGRI0fm/Mz57t6yZctQWVmJu+66C0VFRVi/fj3+/d//Hfv27cPNN98MgJ9tJ/VkvoFB+NmWNKAefvhhOXXqVNnU1JQ9tnLlSjl58mS5b9++gRvYEPD000/LCRMmyIaGhi7POffcc+Xtt9+ec+yKK66QX/va1/I9vEHPNM3s7++88055wQUXdDinJ/P77rvvygkTJsi//OUv2WNbtmyREydOlM8991weRj449WS+r776annjjTd2ex3O96F19nfGPffcI4877rjs/wd+tp3Tk/kejJ9tbhEOsLVr12L69OkoLCzMHps9ezYsy8K6desGbmBHgJ07d2L79u2YPXt2zvHzzz8fb7zxBrdpD0FRuv/ro6fzu3btWgSDQcyYMSN7TnV1NSZPnoy1a9c6P/BB6lDz3VOc70MrLi7ucGzy5MmIRqNobW3lZ9thh5rvnvqszTcDrAG2detWVFdX5xwLBoMoKyvD1q1bB2hUQ8uFF16IyZMn4/Of/zz+53/+B6ZpAkB2fseOHZtz/rhx45BOp7Fz585+H+tQ0tP53bp1K8aOHQshRM551dXV/DPQB3/9618xdepUTJkyBVdffTXefvvtnMc5332zYcMGVFRUIBAI8LPdD9rPd5vB9tnmBvAAC4fDCAaDHY6HQiG0tLQMwIiGjrKyMtxyyy049thjIYTAyy+/jJ/85Ceora3FokWLsvN78Py3/cz5Pzw9nd9wOJyTI9cmFArh/fffz/Moh5YTTzwRc+bMQVVVFerq6vCrX/0K119/PVasWIFp06YB4Hz3xTvvvIPVq1dn83/42c6vg+cbGJyfbQZYNGSdfvrpOP3007M/n3baaXC73Vi+fDluuummARwZUX7ceuutOT+feeaZuPDCC/Gzn/0Mv/jFLwZoVIPbvn37sHDhQpx88sm49tprB3o4Q15X8z0YP9vcIhxgwWAQkUikw/GWlhaEQqEBGNHQNnv2bJimiQ8//DA7vwfPfzgcBgDO/2Hq6fwGg0FEo9EOz+efgcPn8/lwxhlnYNOmTdljnO+eC4fDuOGGG1BYWIgHH3wwmwfHz3Z+dDXfnRkMn20GWAOss73hSCSC+vr6DrlZ5Ky2+T14/rdu3Qpd1zFq1KiBGNaQ0dP5ra6uxrZt2zqUHdi2bRv/DOQB57tnEokE5s+fj0gk0qHUCz/bzutuvnvqszbfDLAG2MyZM7F+/frsv3wAYM2aNVAUJedOCHLG6tWroaoqjj76aIwaNQpVVVVYs2ZNh3OmT58Ol8s1QKMcGno6vzNnzkRLSwveeOON7Dnbtm3DBx98gJkzZ/brmIea1tZWvPrqq5gyZUr2GOf70AzDwG233YatW7fil7/8ZU7tPICfbacdar47Mxg+28zBGmBz587FihUrsGDBAsyfPx+1tbVYsmQJ5s6d26MPGXXtq1/9Kk4++WRMnDgRAPDSSy/hySefxLXXXouysjIAwC233II77rgDo0ePxsknn4zVq1fjvffew6OPPjqQQx8U4vE4XnvtNQDA7t27EY1Gs184J510EoqLi3s0v9OmTcNpp52Gb33rW7jzzjvhdruxdOlSTJw4Eeeee+6AvLfPokPNd9uX0xe+8AVUVlairq4O//u//4v6+nr89Kc/zV6H831o9957L1555RXcddddiEaj+Nvf/pZ97Oijj4bL5eJn20GHmu/33ntvUH62hTx4LY363ZYtW3Dfffdh48aN8Pv9mDNnDhYuXMgVlMN0//334y9/+Qv27dsHy7JQVVWFL3/5y7jmmmtybuN96qmn8Itf/AJ79uzB2LFjcfvtt+Oss84awJEPDrt27cLnP//5Th/7zW9+g5NPPhlAz+Y3Eong+9//Pl588UUYhoHTTjsN99xzD/+R0c6h5nvYsGH4j//4D3z88cdobm6G1+vFtGnTcPPNN6OmpibnfM53984++2zs3r2708deeumlbPVwfradcaj5Nk1zUH62GWAREREROYw5WEREREQOY4BFRERE5DAGWEREREQOY4BFRERE5DAGWEREREQOY4BFRERE5DAGWEREREQOY4BFRERE5DAGWEREefbggw9i4sSJaGxsHOihEFE/YYBFRERE5DAGWEREREQOY4BFRERE5DAGWEQ0ZNTW1uLuu+/GqaeeimOOOQYXXHABfvvb32Yff+uttzBx4kSsXr0aP/7xjzFjxgxMnToVN910E/bu3dvhes8//zwuueQS1NTU4OSTT8Ydd9yB2traDudt2bIF3/jGN3DKKaegpqYGs2bNwtKlSzucF4lEcNddd+GEE07A8ccfj7vvvhvxeNzZSSCizwRtoAdAROSE/fv34/LLL4cQAldddRWKi4uxdu1afPvb30Y0GsV1112XPffnP/85hBC44YYb0NDQgOXLl+O6667D73//e3g8HgDAM888g7vvvhtTpkzB7bffjoaGBvzmN7/Bu+++i2effRbBYBAA8NFHH+Gqq66Cpmm44oorUFlZiU8//RQvv/wyFi5cmDPG2267DSNHjsTtt9+ODz74AE899RSKi4vxzW9+s9/miYj6BwMsIhoSli5dCtM0sWrVKhQVFQEArrzyStx+++146KGHMHfu3Oy5LS0tWL16NQKBAADg6KOPxm233YYnn3wS1157LdLpNH70ox9hwoQJeOyxx+B2uwEAxx9/PObPn49ly5bh1ltvBQDcf//9kFLid7/7HUaMGJF9jTvuuKPDGCdPnowHHngg+3NzczN++9vfMsAiGoK4RUhEg56UEn/6059w9tlnQ0qJxsbG7K/TTjsNkUgEmzZtyp5/8cUXZ4MrADjvvPNQVlaG1157DQDw/vvvo6GhAVdeeWU2uAKAM888E9XV1Xj11VcBAI2NjXj77bdx6aWX5gRXACCE6DDO9kEeAJxwwglobm5GNBo97Dkgos8WrmAR0aDX2NiIcDiMJ554Ak888USX57Rt640ZMybnMSEExowZg927dwMA9uzZAwAYO3Zsh+tUV1djw4YNAICdO3cCACZMmNCjcR4chLWNp6WlJSfgI6LBjwEWEQ16lmUBAC666CJ86Utf6vSciRMnYvPmzf05rA4UpfNNAyllP4+EiPKNARYRDXrFxcXw+/2wLAunnnpql+e1BVg7duzIOS6lxI4dOzBx4kQAB1aatm3bhunTp+ecu23btuzjo0aNAgD885//dOaNENGQwRwsIhr0VFXFrFmz8MILL3Qa7BzcoubZZ5/NyXtas2YN6uvrMXPmTADAMcccg5KSEqxcuRKpVCp73muvvYYtW7bgzDPPBGAHdieeeCKefvrp7LZiG65KER3ZuIJFREPCv/3bv+Gtt97C5Zdfji9/+csYP348WlpasGnTJrzxxhv461//mj03FArhK1/5Ci655JJsmYYxY8bg8ssvBwDouo477rgDd999N66++mpccMEF2TINlZWVOSUf7rnnHlx55ZX40pe+hCuuuAIjR47E7t278eqrr+L3v/99f08DEX1GMMAioiGhtLQUTz31FP77v/8bL774Ih5//HEUFhZi/PjxHUom3HTTTfj444/xyCOPIBaLYfr06fjOd74Dr9ebPeeSSy6Bx+PBL37xC/zoRz+Cz+fDOeecg29+85vZ5HQAmDRpEp588kn89Kc/xeOPP45kMokRI0Zg9uzZ/fbeieizR0iuYxPREeKtt97Ctddei5/+9Kc477zzBno4RDSEMQeLiIiIyGEMsIiIiIgcxgCLiIiIyGHMwSIiIiJyGFewiIiIiBzGAIuIiIjIYQywiIiIiBzGAIuIiIjIYQywiIiIiBzGAIuIiIjIYQywiIiIiBzGAIuIiIjIYQywiIiIiBzGAIuIiIjIYQywiIiIiBzGAIuIiIjIYQywiIiIiBzGAIuIiIjIYQywiIiIiBzGAIuIiIjIYf8fGJLBbx8PN2QAAAAASUVORK5CYII=;" vertex="1" parent="1">
                    <mxGeometry x="290" y="170" width="600" height="400" as="geometry"/>
                </mxCell>
                <mxCell id="5" value="" style="shape=image;verticalLabelPosition=bottom;labelBackgroundColor=#ffffff;verticalAlign=top;aspect=fixed;imageAspect=0;image=data:image/png,iVBORw0KGgoAAAANSUhEUgAAAlgAAAGQCAYAAAByNR6YAAAAOXRFWHRTb2Z0d2FyZQBNYXRwbG90bGliIHZlcnNpb24zLjMuNCwgaHR0cHM6Ly9tYXRwbG90bGliLm9yZy8QVMy6AAAACXBIWXMAAA9hAAAPYQGoP6dpAADwR0lEQVR4nOy9d5gkV32v/57KHacnz+aoXa20K61ywloQOQuMQWCDuNwflg04Yxu4vviCeQz4MQ6IJDA2RkRhbNkkgQJIiCCE4iprtXlnd3LnynV+f5yenumd2ajZlRbqfR492qnuqj51qrrPp75RSCklKSkpKSkpKSkpC4b2TA8gJSUlJSUlJeVXjVRgpaSkpKSkpKQsMKnASklJSUlJSUlZYFKBlZKSkpKSkpKywKQCKyUlJSUlJSVlgUkFVkpKSkpKSkrKApMKrJSUlJSUlJSUBSYVWCkpKSkpKSkpC0wqsFJSUlJSUlJSFphUYKWkpKSkpKSkLDCpwEpJSUlJSUlJWWBSgZWSkpKSkpKSssCkAislJSUlJSUlZYFJBVZKSkpKSkpKygKTCqyUlJSUlJSUlAUmFVgpKSkpKSkpKQtMKrBSUlJSUlJSUhaYVGClpKSkpKSkLCj79+9n06ZN3HPPPc/0UNpcccUVvOc972n/fccdd3DOOecwOTl5Qj4vFVgpKSkpKSkpC8onP/lJzj77bM4777z2tu3bt/O3f/u3XHXVVWzatIn169ezd+/e4zr+tm3buPbaa497f4DLL7+c5cuXc9111x33MQ5HKrBSUlJSUlJSFozJyUluvPFGrrrqqo7t999/P9dffz2NRoM1a9Y8rc/Ytm0bn/jEJ9i3b9/TOs4b3vAGvv71r1Ov15/WceYjFVgpKSkpKSkpC8b//M//oOs6z3ve8zq2X3HFFdx9991861vf4pWvfOUzNLpOXvziFxMEATfddNOCHzsVWCkpKSkpKc8Q1157LevXr2fHjh28+93v5rzzzuPiiy/mn/7pn5BSsn//fn7/93+fc889l8suu4x//dd/nXOMIAj4+Mc/zgtf+EI2btzIli1b+Lu/+zuCIOh43ze/+U3e8pa3cMkll7Bx40Ze9rKX8ZWvfGXO8a644gquueYafvnLX/K6172OTZs28fznP58bb7zxqM7plltu4ayzziKXy3VsL5VK5PP5ozrGd77zHV772tdyzjnncO655/LKV76Sf//3fwfgP//zP/mjP/ojAN7ylrewfv161q9fz1133QWAlJJPfepTXH755Zx99tm8+c1v5sknn5z3c3p7e1m/fj233nrrUY3rWDAW/IgpKSkpKSkpx8Sf/MmfsGbNGv7sz/6M22+/nU9/+tOUSiW+9rWvcfHFF/Pud7+bb33rW3z0ox9l06ZNXHDBBQAkScLv//7vc8899/D617+eNWvW8MQTT/Dv//7v7Ny5k0996lPtz/jqV7/KaaedxhVXXIFhGPzwhz/kAx/4AFJKfvu3f7tjPLt27eKP/uiPeN3rXsdrXvMavvnNb/Ke97yHM888k9NOO+2Q5xGGIVu3buWNb3zjcc/FT37yE/70T/+USy65hHe/+92Ait+69957ufrqq7ngggt485vfzPXXX8/v/d7vsXr1aoC22/Gf//mf+fSnP82WLVvYsmULDz/8MG9729sIw3DezzvzzDO55ZZbjnu8h0SmpKSkpKSkPCN8/OMfl+vWrZP/9//+3/a2KIrk5ZdfLtevXy+vu+669vZKpSLPOuss+Zd/+ZftbTfeeKM8/fTT5d13391x3K9+9aty3bp18p577mlvc113zue/7W1vk89//vM7tj3vec+T69at6zjmxMSE3Lhxo/zIRz5y2PPZtWuXXLdunbz++usP+75/+Zd/kevWrZN79uyZ89qHPvQhee6558ooig65//e+9z25bt06+fOf/7xj+8TEhDzzzDPl7/7u78okSdrb/+Ef/kGuW7euY+6m+cxnPiPXrVsnx8fHDzvmYyV1EaakpKSkpDzDvO51r2v/W9d1Nm7ciJSyY3uxWGTVqlXs2bOnve2mm25izZo1rF69msnJyfZ/F198MUDbbQbgOE7737VajcnJSS688EL27NlDrVbrGM/atWs5//zz23/39PTM+ez5KJfL7bEeL8ViEdd1+clPfnLM+/70pz8lDEN+53d+ByFEe/vVV1992M8DmJqaOvbBHobURZiSkpKSkvIMs3jx4o6/C4UCtm3T09MzZ/u0iAHlynvqqae45JJL5j3uxMRE+9/33HMP1157Lffffz+u63a8r1arUSgU2n8vWrRozrG6urqoVCpHdT5SyqN633y86U1v4nvf+x5vf/vbGRwc5LLLLuOlL30pl19++RH3HR4eBmDlypUd23t6eujq6jrsWGcLsoUgFVgpKSkpKSnPMJo216Gk6/q8750tXpIkYd26dbz3ve+d971DQ0MA7N69m7e+9a2sXr2a97znPSxatAjTNLn99tv5whe+QJIkR/XZR6JUKgFQrVaPa39Qgec33ngjd955J3fccQd33HEH//mf/8mVV17JRz/60eM+7qGYHmt3d/eCHjcVWCkpKSkpKacoy5cv57HHHuOSSy45rAXmtttuIwgCPv3pT3dYy2a7EBeCRYsW4TjO0yoACmBZFldccQVXXHEFSZLw//7f/+PrX/8673jHO1ixYsUhz3X63Hbu3MmyZcva2ycnJw9pfdu7dy/d3d1zrIVPlzQGKyUlJSUl5RTlpS99KSMjI9xwww1zXvM8j2azCcxYpGZbv2q1Gt/85jcXdDymabJx40Yeeuih4z7GwbFQmqaxfv16gHbpiUwmAzAnduzSSy/FNE2+9KUvdZzrdImH+Xj44YfZvHnzcY/3UKQWrJSUlJSUlFOUV7/61Xzve9/jr//6r7nrrrs499xzieOY7du3c9NNN/Ev//IvbNq0icsuuwzTNPm93/s9rrrqKhqNBt/4xjfo7e1lbGxsQcf0/Oc/n3/8x3+kXq931L2q1Wpcf/31ANx7770AfPnLX6ZQKFAsFvmd3/kdAP7qr/6KSqXCxRdfzODgIMPDw3zpS19iw4YN7VIMGzZsQNd1Pve5z1Gr1bAsi4svvpje3l7e9ra3cd1113HNNdewZcsWHnnkEe644455XYATExM8/vjjvOlNb1rQOYBUYKWkpKSkpJyyaJrGJz/5Sb7whS/w3//939x8881kMhmWLl3Km9/8ZlatWgXA6tWr+fjHP84//dM/8dGPfpS+vj7e+MY30tPTw/ve974FHdOrX/1qPvaxj3Hrrbfy6le/ur29Uqnwz//8zx3vnS6cumTJkrbAetWrXsUNN9zAV77yFarVKv39/bz0pS/lD/7gD9qxav39/XzgAx/guuuu4//8n/9DHMd88YtfpLe3lz/+4z/Gsiy+9rWvcdddd3HWWWfxr//6r1xzzTVzxvqDH/wAy7J46UtfuqBzACDk0wn1T0lJSUlJSUk5iPe9733s3Llz3krxzyauvPJKLrzwwgUXmZDGYKWkpKSkpKQsMO9617vYunUr99xzzzM9lENyxx13sGvXrnktWwtBasFKSUlJSUlJSVlgUgtWSkpKSkpKSsoCkwqslJSUlJSUlJQFJhVYKSkpKSkpKSkLTCqwUlJSUlJSUlIWmLQO1nFy3333IaXENM1neigpKSkpKSkpC0AYhgghOOecc572sVIL1nEipXxa3cIPdcwgCBb8uCnzk873ySWd75NHOtcnl3S+Ty4ncr4Xcm1PLVjHybTlatOmTQt2zGazyaOPPsratWvJZrMLdtyU+Unn++SSzvfJI53rk0s63yeXEznfW7duXbBjpRaslJSUlJSUlJQFJhVYKSkpKSkpKSkLTCqwUlJSUlJSUlIWmFRgpaSkpKSkpKQsMKnASklJSUlJSUlZYNIswpNAHMeEYXjE9/m+3/6/pqXa90RzpPk2TRNd10/2sFJSUlJSfgVIBdYJRErJgQMHKJfLR/X+JEkwDIPh4eFUYJ0Ejma+S6USQ0NDCCFO8uhSUlJSUk5lUoF1ApkWVwMDA2Sz2SMu0nEc4/s+tm2nlpOTwOHmW0pJs9lkdHQUgEWLFj0TQ0xJSUlJOUVJBdYJIo7jtrjq7e096n0AHMdJBdZJ4EjznclkABgdHWVgYCC9JikpKSkpR03qhzpBTMdcpVV9T22mr9/RxNClpKSkpKRMkwqsE0wau3Nqk16/lJSUlJTjIRVYKSkpKSkpKSkLTCqwUo7ILbfcwpe//OUFPeYVV1zBBz/4wWPeb/369Xz+859f0LGkpKSkpKQsNGmQe8oRueWWW3jooYf47d/+7QU75ic+8QmKxeIx7/f1r3+dxYsXL9g4UlJSUlJSTgSpwEpZEKSUhGGIZVlH9f4zzjjjuD5n8+bNx7VfSkpKSkrKySR1EaYclve85z3813/9F08++STr169n/fr1vOc97+E973kPr3jFK7j99tt51atexaZNm7jttttoNpt88IMf5MUvfjFnn302V1xxBe9///up1Wodxz3YRTh9vLvuuosrr7ySzZs387rXvY6HHnqoY7+DXYRvfvObueaaa7jpppt48YtfzDnnnMNb3vIWdu/e3bHfgQMHuOaaazj77LPZsmULX/jCF/jwhz/My1/+8hMwaykpKSkpv+6kFqyUw/KOd7yDyclJtm/fzt///d8D0NPTw6c+9SlGR0f50Ic+xO///u+zaNEiFi9ejOd5xHHMn/zJn9DT08P+/fv5zGc+wzve8Q6uv/76w37W2NgYH/rQh/jd3/1dCoUCH/vYx3jXu97FzTffjGmah9zv0UcfZXJykne/+93EccxHPvIR/vzP/5yvf/3rgLKuveMd72B8fJwPfOADFAoFPv/5z7Nv3740SzAlJSUl5YSQCqyTjJQSP4jnfS1OYrwgBi1C1+SCf7Zt6ccsKJYvX05PTw/Dw8Nz3HOVSoXPfe5znH322R3bP/CBD7T/HUURS5cu5U1vehM7duxg1apVh/ysSqXCl770JU477TRAFfp8y1vewgMPPMD5559/yP1qtRo33ngjPT09ADSbTd773vdy4MABhoaGuOOOO3j44Yf58pe/3D7OxRdfzJYtW8jn88c0HykpKSkpKUdDKrBOIlJK/vITd/Lozsln5PM3rOzho+96zoJZbUql0hxxBXDjjTfyhS98gV27dtFsNtvbd+7ceViBNTAw0BZXAGvXrgVgZGTksOM4/fTT2+Jq9n7TAmvr1q0Ui8UOkZbL5bj44ovnuCBTUlJSUlIWglRgpRw3fX19c7bdfPPN/OVf/iVveMMb+JM/+RNKpRJjY2O8853vxPf9wx7v4KzCabfg091vdHS0Q4BNM9+2lJSUlJSUhSAVWCcRIQQffddzDu8i9Hwcx0bXFr7v3fG4CA/HfMe66aab2LBhQ0cA+y9+8YsF+8zjYWBggMnJuVbD+balpKSkpKQsBKnAOskIIXDs+ac9jgUkEY5lPKsaC5umeUQr0jSe580JSP/Wt751IoZ11GzatIlqtcrdd9/NBRdcAECj0eDnP/95GoOVkpKSknJCSMs0pByRNWvWsG/fPr797W+zdetW9u7de8j3XnrppTz44IN88pOf5Kc//Skf/vCH+dnPfnYSRzuXyy+/nDPPPJM/+7M/48Ybb+S2227j7W9/O7lcDk1LvwIpKSkpKQtPasFKOSKve93rePDBB/mbv/kbyuUyr3nNaw753quuuoq9e/fypS99ic9//vM85znP4WMf+xivf/3rT+KIOxFC8KlPfYr3v//9vP/976dYLPKWt7yFp556ikcfffQZG1dKSkpKyq8uQkq58PUAfg3YunUroNxP8+F5XrssgeM4R3XMOI7xPA/HcZ5VLsJfRYIg4GUvexmbN2/mox/96CHn+3iuY8r8NJtNHn30UTZs2EA2m32mh/MrTTrXJ5d0vk8uJ3K+j7S2HwupBSvl14Kvf/3rJEnCqlWrqFarfPWrX2V4eJgPf/jDz/TQUlJSUlJ+BUkFVsqvBbZt89nPfpZ9+/YBqnbWpz/96ePuiZiSkpKSknI4UoGV8mvBlVdeyZVXXtmxbdolm5KSkpKSstCkKVQpKSkpKSkpKQtMKrBSUlJSUlJSUhaYVGClpKSkpKSkpCwwp5TA2rVrF+9///t59atfzRlnnMErXvGKo9pPSslnP/tZnvvc53LWWWfxhje8gfvvv//EDjYlJSUlJSXl15ZTSmA9+eST3H777axYsYI1a9Yc9X6f+9zn+PjHP85b3/pWrrvuOvr7+3nb297Gnj17TuBoU1JSUlJSUn5dOaUE1hVXXMHtt9/Oxz/+cc4888yj2sf3fa677jre9ra38da3vpVLLrmEf/iHf6BUKvH5z3/+BI84JSUlJSUl5deRU0pgHU/fuHvvvZd6vc5LX/rS9jbLsnjhC1/IHXfcsZDDS0lJSUlJSUkBTjGBdTxs374dgNWrV3dsX7NmDcPDw2kdpKPglltu4ctf/vKCH7darXLttdeybdu2BT92SkpKSkrKM8mvfKHRarWKZVnYtt2xvVgsIqWkUqkcd485KSXNZnPe13zfJ0kS4jgmjuOjPt70/492n5PBzTffzEMPPcRVV121oMctl8t84hOfYM2aNaxatWpBj300HM18x3FMkiS4rkuSJCdzeL9yuK7b8f+UE0c61yeXdL5PLidyvqWUCCEW5Fi/8gLrRBKGIY8++ughXzcMA9/3j/m4x7PPiSSOY6SUC27tmz7PMAyfUUvi4ebb932iKGpbQlOePjt37nymh/BrQzrXJ5df9/mWUtL0E3Rd4JhHdpAliSSM1X+WIbCMQ+8z+726JrANccLm27KsBTnOr7zAKhaLBEGA7/sdVqxqtYoQgq6uruM+tmmarF27dt7XfN9neHgY27aP2kImpWyPc6EU9NPlfe97H9/61rcAOPfccwHVduZv//Zvuf/++/nnf/5nHnzwQXRdZ8uWLbznPe+ht7e3vf/nPvc5/uM//oORkRFyuRzr16/ngx/8IEKIdpmNv/iLv2i//+abb2bJkiUn5dyOdr4Nw2D58uVzrKApx4bruuzcuZOVK1eSyWSe6eH8SpPO9cnl2T7fUkrCSFngLVMHIIoSEinRhEAIEEKgaZ2/g/VmSCIlxZwSHF4Q0/RCXC9C0wS6rqEJ0DS1b60R4pZdDENj8WABTYNaM8TQNaxpwSUhkRLXj6nUfWQQI+MEYRkUizaGoZEkkkLOImPpNLyIWjOceW+S4Icho+NjXLz5NEpd+QWdq4UMWfmVF1jTsVc7duzg9NNPb2/fvn07ixcvPm73IKgbMpvNzvuapmlomoau6+i63t4upUSG81tMkjhGhj5SA23WPguFMI9duL3zne9kamqK7du38/d///cA9PT08OCDD3L11VezZcsW/vEf/xHXdfmnf/on/uAP/oCvf/3rANx4441ce+21/OEf/iGbN2+mVqtxzz334Louq1ev5hOf+ATvete7+NM//VMuuugiAIaGhjrm60Qy7RYUQhzyM3VdR9M0MpnM07pXUmbIZDKH/N6kLCzpXJ8YgjDGD2OkhKwzs4wey3xLKUlkK0QhkTTdkCBK6MpbGLrGZNUjihIc2yDrGDiWQZJIgjDGNHV0TSClJIolUZwgBNimThAlVOsBfhDhhzFRlBDGCUGkfu+KWQtd16jUfZJEtkWVEIKsY1DIqs93/YiRSQ8B6IaNRDI85uL6MUEUs31vBU0TrFxcbFmeBBJJTzGP60fsm1DHd/2QiYpH3Q3xw5hCxqSvlGF0qsnYlIdE4lgGpy0rEU757B1rkHNMFvXlsS2dyYpLrREQJZIwiokTiSEk1XqMYdkLfn8vpHHjV15gnXvuueTzeb73ve+1BVYYhvzgBz/g8ssvP6ljkVIy/MX/g7/38ZP6udPYS09n8Vs+dEw30PLly+np6WF4eJjNmze3t7/vfe9j48aNfOITn2gfb926dbziFa/g9ttvZ8uWLTz44IOsX7+ea665pr3fC17wgva/N2zYAMCKFSs6jp2SkpJyIonjhLobtq02UZQgpcSxDRxLb/+mNb2QRIIAgijGD2LKdR/XiwhCJVgc20AjYqwa0j3RxGkm6JqGJgSJlERxTBAmJInENHQV0+lHhLFUD9xSkkiJH6gxZB0DQ9eoNYP2eG1Tp5iz8AI1BsPQcCydMEoIo5hKPSCbMck5Bl4QU2+G2JYSYQD1ZkC1GRDHkqYXsXe0TqXuM9CTJZ8xGZtycWydc04bwLY1xisee0frNJoh65d34/ohN/9iD0/tLePYBpNVr20R0zXBssECy4cK5BwTy9RZNpCn1gz40b372HWgetTXRdMESaJiY89Z10/DC3lydxk5z3sNDZ5/aXQcV//kcUoJLNd1uf322wHYt28f9Xqdm266CYALL7yQnp4err76aoaHh7n55psBsG2ba665hmuvvZaenh7WrVvHV7/6VcrlMv/7f//vZ+Asnh2uv6eD67rce++9/MVf/EVHcPjKlStZtGgRW7duZcuWLZxxxhl85Stf4cMf/jAvfOELOfvsszFN8xkceUpKyjNBFCdo87igjoUgjDF0jURKpqo+XhBhmzqmoWEYGkIoi47rKctNXymDY+lU6gFeEKFrGhJJGMZM1nyabqgOLKYXdYll6Di2TqlgKxdWzSdKJEJAHKtl3jI0kJJyzaevlAEJ1UbARDVi14EathUgNNH6pZckQBSquCQkVBoBDS9ESlQiVAK1ps9kxacrb7FiUZG9o3V2DlcZr7hIKXnBBctZs7SLkckmQZjQU3QwdEG1EfD9u3axY7iKY+sMlLKMTDXxg5jugnK3TVY84mQ+iQJsn+j4847792EZOq4fdWwrZK224Ks01P/VuUvGKx4791fZuf/QQiqfNekpONiWznjZZarmU8rbrF7SRdYxmKh4PL57iiRR7shqI+C+J8ba++ccg1zGJJcxMVrWN11EM27HZymnlMCamJjgj/7ojzq2Tf/9xS9+kYsuuqiduTebt7/97Ugp+dd//VcmJyfZsGEDn//851m2bNlJGzso0+Pit3zokC7COI7bMUEnwk12PC7C+ahWq8RxzIc//GE+/OEPz3l9//79ALz2ta+l0Whwww038IUvfIFCocCVV17Ju9/97tTdlpJyihMnEoGyOsRxgh/GmIYSPNNIKSnXfYbH6tiWwdL+PJom2gu4ECqw2TA0pAQ/iKg1A1w/JkoSuvMOXXmL0ckmY2W3fexaM0C0XFJAK45IdLjdJqsehazJvrGGcnPpGiBBCMIwxjJ1eooOUiorTBAq69RUzefBJ8e5/8kx9o3WEZpAEwJdmxGIY2WXpHX+SwcLLOrNUK83+e4vH6XhRywbKGCZOmNTTSqNoG2VOV6+8oPH6etyGK8cOhnI82N2j9Taf0/VZtYZXRf0FB1MXQnRJf15BnuyjEw2qLshA91Zdh2osmO4ihtHWIbG8qECWcdk67Zxas2AQtbidVecRsbWydomAz0Zmn6E60fsGamzb7RGECY0vJAdw1WCMOaSTYvYcu5SilmLph8RxcrqZeoaWceglciNpgkaXojvx5QKFjv2V/nZ1v3kHJPnnL2Y/u5ON2Cz6bL1sacw9FRgLRhLly7l8ccP7167/vrr52wTQnDNNdd0uKqeKYQQCGt+cSHjGJGAZjknJAZroSgUCu05ne3ym6a7uxtQcWhXX301V199NSMjI3znO9/hYx/7GN3d3bzzne882cNOSUmhlenVcnHlsyam0Rkj6voRTS/CsQ1yjtHxUCalpFIPqNQ9KnVlybBtA8+PCKMEQxfYpk4+a6FrgpobUqn5CKGsPA03JEkkfhADKh3e0DV0XSAlhFFCnCQYmgYCJsouuYxFvRmQsQ2qdZ/Jqq8sVF0ZBnuzKl7Ii3h4xwSjU03iWNJXclg2VOA/bn2C+58cJ+sYrFxUBGCi4jEyqcrrLO7LkcuYDI83aExbtI6SfNak3gzZM1JjzyxhAxzWmmOZWssCpalz1wS5jMlAd5YDEw227S0z0J3lrNP6WNKf58k9ZW775R7GKx6mrqn4pbI6T00TbFrTy0suXkm1GVCu+Szpy1NsidJESnq7MpTydlscTsdxhVGCpgsylqFitIKYcs0DIRjqzSIlGIbG3tE6j++a5PwNgypmSwgsU2eq5lPIWoRRwtqlXZx9Wh9W615ql8BBBcqPV1wKWZNsxiKOEqrNgKYfMW3QTKRsi+DxikdPMcOLL1lJwTGpeyFj5SYIgS6UZdD1nl2Z9ofilBJYKc8Mpml2lDLIZrNs3ryZ7du3s2nTpqM6xuDgIG9729v49re/3S55MO0ufLaVpXi2I2UCSYLQF+7ru5C1X1KeeZJE4oUJTS/CtJTwASVyxqaalOsBYRSTdUx6iw7dRYcoTpTFpR7gtyw8pbxFLmO13VvVZsBE2UUCGUvdf7VG0LZIxLGk6UfqGEHEvvEG3QWbJf15SnmbuhuyY7hCECacvqKbHfur3PvYKD1dDueu62fXgRpP7RolloJMNsPm0/p4YleZO+7fy9iUOycWRwjIOiZBEBPGh65T1/QiHtkxObNfa9/h8UbH+zRNYGhKQGxa28d56wcwW1ltsZTIBGIp6e/K0NPlUK77PLW3zN6RKqMTU5x/5jKWDHSxa3+VREr6u7N0F2zyGasVj5WQtY2j/q5NuzpXLSpSrvucs26AXMYkkRKkGm8QxZRrPkM96rNAZfv1dmXIZ0zCOKHWDEikJI4TEEoEW5ZGGCVMVF0sQ8cydWzbwLaUeLJNnaiZ4Ng6F2wYIoxj+ktZYilpuAHLBwsM9uaoNnzGyi61RkglDujO22i6wPUiGl5IIWexbLCb7qKtXLyJpNLwCaMExzIQQglr1w9peBGlnI1jG+yfaFBvBPSVMnTlbIJIiXgpIQo0grqJYz17DRGQCqyUo2DNmjV885vf5Nvf/jYrVqygu7ubv/iLv+Dqq6/mj//4j3n5y19OsVjkwIED/PSnP+W1r30tF110Ee9///spFots3ryZYrHIvffey2OPPcYb3/hGAPr7+ykWi3znO99h6dKlWJbF+vXrF6wGya8qcaNKVJvAHlq9IKIoCTyCiX3YgysR2rP7B+vXASklDTfE9WNyGYPMrAVZSkm9ZRWS0OGOa7vPGgGjEzV2j/pIe4p8zmtbSmqttPtC1qKYs3C9iL2jNQ5MNkkSFWyttbLTMrbBVFUtntPU3ZDRSZdHd04yOtVk2UCBYs5k5/4aYaTEQNYxcf2Qrdsm8FuB4AJYubhIkkh2Hei09kxz2y/3HLSlzM8f2j/nfYWsSVfeZqLi4fpR2/LUV8pw2rIShq7x+K4pRqealPI2V71oPbahsXesjqFr5DMmq5Z0gYRHdkyQSMnivjw9XU5b/Egp8YK4FSul3IqGJlSMlqWjaQI/iLENnXPWDXDmyi527IxYtrSLINY4fWXPjGUoiqm7Qdsd5npRWygqJ6dg2pqHnPkbCaap09vlIIA1S0sAjFVcZe1puSyDIGZxX47B3hxNL1TxVhImKi7VZoBpaG1LpWVoqvyBbWCZOmEUKxFuaFimzoHxBpNVj8WLc3TlbcIowQtipmoehUyWod6cOvcwxjZVMkBvV4aeokPDizgw0WBsygXU/bNqcZG+UqbDSqppgu7CfF6czm05x8AP4477f5pms0l1wkhdhCmnPq973et48MEH+Zu/+RvK5TKvec1r+MhHPsJXvvIVrr32Wt773vcShiFDQ0NcfPHFrFixAoBzzjmHG264gW984xu4rsuyZct473vfy2/91m8ByoX44Q9/mH/4h3/grW99K0EQcOutt7J06dJn8nSfVcRuHc3OdAgfGQUkzSoycBH2009RlqGPDHxkFCKe5U+Epwr1ZkDTiwijmGLeppA9/END0wsp13yafoQfRDS8iChKsE29HdwLUG34NLyIuBU03hHaI1VEkqap6CTTEG0X397RGl4Qs2ZJF64Xc+vdu5moeHhBRMZWqflrl5YIopj/uPVJmn7EactKbF7XT5JI9o3VeWpvpUNsAew/yAJ0sHjqKTrESUKlHrBjWLnNLEOjt5Rh/3gD29K5YMMge0Zq7DpQo787w7lLdPK5DMMNg3ufGAXgivOWcdHGIXKO2V5UpZTUmiENN0TTYKA72yFE90806C44eH5ELCXn9gxgWwYCFT8WJwnnbRhEm7V4u36E60XEMsG2dIZ6sji2oeo2eUrMlRsBSZJgtUolTNVCXM+n2oypNHwWD5TwgpiqG2AZGjnHxDS0tovO1DUsS0egsgyFoJ3tBxC1sgsNXWu7afc7DXaPVDF1nSV9OTShLFdhmOB0OSwdKKDrGhl7ZknvLWVwPZVNOFvgzMY0dLryM68tbVmlZgv3LmCwp/N3xrE6pYMQgnzGZPXiLroLNlJCMWe1a24dD7qukX2WC6gjIeS0szTlmNi6dSvAIV1knuexY8cOVq1addQB3XEc43kejuOctFpQv84czXwfz3VcKKRM8IefwiwNoOdmCuIG43sJRnZhLz0Ns2vgaX9OWBklHNuLvWQdemb+on1SSqLKGEahG6EfXyZos9nk0UcfZcOGDad0baZpS4+Uymo0HVDd8CK6C3Yr2LiqrDcSHEtn6UCBMFbp9JahkXEMco6FRGXETZRdqk2frpyDrgkc28A0NCZrXjsDzw9ihsfq/PKxEQ5MNFncl2PV4i42rOxRFgQ3ZKLqMTxW574nRtk31sAyNQxNo9kKKrctnaBVv+l4EMDi/jxnrOph6UCeXftrNLyQFUNFMrbBeMUlCGNE6LK2O2HtxjMQmsZUzePBJ8fxw5iLNg7RlbOpNQIsS1fuzCDCMnWypoYYeQLsDPSuJI6TdimFOE7agdKWqWObeocFo+6GNP0QDVSZBF0FrhdzFoWszUTFJWiVFjA0gdBUYHjWMYkCn8hrYuW76C46FHMWuYw5R0hMjyGMlKtP1zWaXshUpc7Djz7BWWeuZ8lgt4plC2JsUzukuDkWkkQyUfHI2Cq+7dedE/lbcqS1/VhILVgpKc9SZByRRD4y7qz1koQ+MomI62WMYv/TdhMmgY+MA0gO3f9SxiFRfRLNctCzJonvEjfKmD2LntZnHw9J6BOM78XuX44wTBWTJuWCuTeVi0Wi6xpxIhmfahLFCaWCQxDGHJho4AchojmJ092PZVrtoOMDEw2klNiGSpkHlfG2bW8ZTSiXT9NVWWjTl23ncI3v/Wwnk1WPpQN5VgwV25l305lgtqm33W3TVBsBj+2a4ns/23nIcwnChIAEy9QwdY2Gp+6ldcu7OX1FNxnboOlFjE41eXjHBE0v4orzlnHhGYPc+cAwY2UXQxf0lTKsWVJi1eIiWWdGYJ+1th+iAHQTZt+HlQOE1THGyw3QDHqLDlvOVZZpP4wZLTfJOaZyh3oB+YxKzRcxhPUmshkS6k10TQWC+2GEJgTZjEkhZ9Jwo1ZdJyXAkkTi2DqrF6sHkWnroVV0WNSXw7EMBnuzqnZT69oKYLzsMlH1yOsBhYxL98qVZJ1DCxhd1+ZYI7vyNqYWM9Ft0dvltCxVgnxm4awvmibo7372VYhPOTypwEpJebYSRxAGyHgmu0lKiQw8NDtL4jWQoYewnt4Pb+I1kHE8R8gdPJZpNyJA4jeJGmWM0sBJj9uKmxWSZg0ZBQjDxCtP4tUqdC9f035PECprT8Yx6cqpAOM4kWQds+2OCaNYVZcOYvwgwguVy2W6ZlBXziKKpcpgAg5MNAnjRFmYtATNr1GfsgnNLMWscocEUcz2fRXufWyU4fEGTS9kUV9uVtaYQNc0+rszlAo2P75vHw9sG2+Pe+9onb2j9TnnPC2uunIW554+wBmretk/WuHJp4Z5YjTCD5VLq7tg01/KsmpRnrxeY3BoCUIzWNSXawd126bOwKy090RKwjDhN5+7FqGprL4oTrhyy5oO8R5FCX6kWqWErX8LmZCtDxPnegh15bpCgCxXMXyfoSU2PgYTVZd8RmWcBVHMYHeWSsOn6cUsHSjQ2+Ww60AVt16nt2hjOTZiKI8bqErgA90FCjmLfMZUwjdOcIMYb1bqfyFrtV2p82G3rF6zWTpYYFFfjqQaE07VcNIVMWUBSW+nlJRnKTKOkHFIEs1UdCaJkHGEZmeI3QaJ10B7GgJLxhEyCpBJjEwOLbBkHCFDvz2WZDpuK45OqsCSSUxUGUdGHjJWNZP27BkjKE/SdAboLWWIYsne0RqTrZpBjqUTJ0pI5ByDQs7CD2Oabkg4sZ/EcBCZLnR9ptaRhHYqv6Xr7DygCik2vZAoljiGxAhqJGZINRBMVDyyjoEmBI/vnuoY8+x6RIfisrMW87zzlvLYzinKdY9SwWGwO8vSwXy7OGWxFZw8HYC9vFvnN/rLxGYG2bsaw5z5Ofc8j+07GvSVHDKOQ7UZ4PkqQ6vQ6isXRgmVhhqbZWh4QUxPwcH1Iupe0GoDo6xMXhijCUHG0pGo9jBLinlCz6Na87EI6evLEyeqYrmVWNhxjp7+DLGZRROCphdiGBpLB/P0lzK4fkTdDentyqBrgrVLS4RNHXlgFKEbOCUbzZy//6eua+QzKmD96aLrGlHgQhKphxrjV8sFJ5OYuFnDyJee6aH82pEKrJSUZykyCpVlKZhZoGUcQRKrorG6QVSbRC/0IMTxuSNkFEIcInSTJAwO/b44UiLMV0HOSdCcWZAOsQhOkwQucX0Kac/fWD0JPISpAmO9IGrXYZJAb9FpWyWiOKE2MUF9ZIymFxAFo3hGEVlv4oiY3funODDZbNdT6uvKIISy/hiahhDKdTQy3kRoqsbS6K5JKqGJK2oYulCvTzZxLJ1FfTl2HaixY19l3lYdirmFH4WAi85cxBmresg6BvvHG1TqAXGirGNhGLNvrM6BySbrl/fwkktWMFDKMlX32bi2l67czHz6obIYTcdOub4KcHdsg9DzcWtNLCcm0xOQJKp1CkI12K00YqZqPg1fks+YDPV2MTzWoNYIVLq7kPR1OfSVstiWzr6xOiMTDXRdY8VQEdmq0m3oGj1Fm1LBUfE/rUxDIQSJr9HdyKJnBM5gfqaaemyQuAIhVaD+2qWldmPh6WDvrGN2uBtNQ0fTBZ6MIRGHdVkvJFJKEt89shX3FCVx60SVEXQnhzDSThonk1RgpaQ8S5GJEjVJ5LfrVMlIWbDQdfRMnrhRJm5UO55OZRIftVVJRoGyiJkWMjqSwIpIAleNyXdbVq/5F8E4TijXfar1gF7TxXAnibEJooQgjLETqZrVxhHegZ3UzR5Gm8qKEkZxe6Eem2wqy5Am1GujOxEND1MHGYZgwFjZo8tM6BkyiHUDJDy4bT+7D9To68rghzG7DlQp5mzOWdfP9n0V7nlspB2PdCge2zVjiRrqzbJqcRelvI1laniNBnFtAmFlyPcO0NuVoeGFVBsBZ67uZVFvrr3vmiUl4tb5AuDVoDkFPcvVn0HEVN2jvztLvRkwXnHJO6p+0XRBzQSJTCRWK6uwK28TlCXlMEu55jM+MgrFwVbTXTANweJei9NXlLDtDBnHUG1ldI29YzVKRZv+blVfaFrwrBgqkMSSXGbapSjaafmdcX6zCo/GEULGyMBFhr4qopxEEMcwS7BomkA7ijZhMo6QUkCSnDSxI+MQGQYta+6xFRs9FZBxSOJ7yDhMBdZJJhVYJ5g0SfPU4FCFNp/J65eEgVqS4lgtWrqpFgGksljpGgiNqDqGnisihIaMQ/zRXVi9S9EO0TFgNm1RpRmHbOE0/T4hlcUr9hoqJmvWIjhdwFDVWgrYO1KjXFfFDWvBBKVkgvEJjV2jAWSmyGY8FQ8TNIkP7KduhxhdA2QdA8uwabghGdsgiGJcP0ZKiS5DpsoN7t4lGKsGBMlu9pW3tXvE5Z37WLm4i1ozOGStpQeenOlvZpsaK7sFvQWLbHcvUQKWqVLzm17E8Hid/u4sZ5/WR3fBIYwShEBlrtXHYbQCjgNDQ6DN/SmNIiWQpitWxy2BpDWq6I0phN2HH2tIAUsHCizuz7fajlTxgxghYPWSLvpLmXnvTc1U9YQKhTzNSJJdUSLTCtAOPJcnvBEKWYtsdsYi1t+dIZ9V2XGz+wJG1XEEgrXLejq260dIk1eCKFGlQwIXzXLaVlaE7IgfPBqkjFUMFxIZnyQLVhQiEzXOw7nJT1WS0EeGrhKPhzc2pywwqcA6QUxXKW82m2QyafbHs5qWJUaYc2Mvms0mUiYnpKBd7NbQnPwhswBly3VGoiwBQjfbC8E0eqZAXC+TNGvouS4S3yVxG+3F7ohjCDwQGkLTlYskiUForZYlsl2fKe9WyFsO9brL5FP76U6aZE2NqUqDSkXQcCM0TVDIWkxWXMJYNaTVNUF99x7GK1XCQhbbFO12Gg0vRHObJK5LELtsr5TZtqfMtr1lJqse+YzJactKaJpqajsyUafanL0AqgW4lNGo+wl1L+KhVvNa29J5zlmLqbshmhCsXFRk71idR3dMMNCT5TlnL2FdT4I+uQMMGwYXg3no76nnR9TcEE1TtYuybhM9loT1Jv5EBStbwLF0opbVKYzVPWObOksH8hRzFl6rFYnwI6SR4EY+uVyRxX15uvJWu5bQ6St62rWQDldHSEYBQtNwMjksv4ljg9Z6fxzOf78KITrcctNEjQoATrH30DfLfCQRIFRNJ68B+e72fSR0qzN+8CiQUaTKbMrpY594VAxigjAO7yY/VUm8prJ8H+O1eKaRUgl07RSOiUsF1glC13VKpRKjo6pQXjabPWI6/XSz5+n9U04s7fmOYwQJ2qxWG1JKms0moyMj5AkJ9z+FzJeI/SbCsLB6Fz+t4O4kcAkn92P1LZ23WKiUkiTyEabVisVSi40MVZPbaYRugJREzYoSWIFL4tYOa42aTbNWxRQ6aDqEHlEYsn8qZLzSRCYqBkjTBJWJSXryBtVyFc/ScP06GdukVhlDFk1sSyeOEg5MNMhYBlnHZHisji4ShrQYrSuHj4eh6aoaeTNg254Kd963iwPlENjf+m+Guhty3xNjHdsMDc5ekWPDgIZlagwuX06/v4c48NjLYnaUVdHOSzctprvYKTAvBHjuWjX/UhKO7sYPIfFdgqkaWkb1xAvDhFi2LHIIhIBYJiwfKpDPWFTqAfW9+0l0i6IhyPRlmAw1XD/CMDRKBZtS3iHrGDiW3rYCdQED3Q4uwySWjbE4j1nonmMlEkJgGkd2pyWhr+5B3WglIQRwHAkPUiYkflMVDz8G9zJAEoWqv6ppEzerrTZOMVImaIZ51PdheyxxCJqOSBKSk+Sum3YLCl1HBodupnwqIpOYJPRaoQanlsBKmlXCyhj2otXHHWP6TJMKrBPI0NAQQFtkHYkkSYiiCMMw0LRT84Y6lWjPt6ZaU2gH1/IBilmboldDhpJgdHdrMQtBJkocHafIklFI4jVJwgBtvmrssYpjUU/VM7WwktBHHCS+heUQNyrInoi4UVVZQ24Ns3uo8zOlJIgSDE2g6xpjB0bYv2eMbM6ht8dBegEjB8rsryQUMha6JSjkLDQZ45VhtOzhCOjJWwSxjhskFDMCvegwVfPYsa/KzgNVdh+osnes3nbd2QbkbR0pG9R8SRiPczCOAQM9OdYu62HtshIrChHDBybZ2chiGIKsbTAgJxgqSJx8AUJfuaHyArwYwzRZ2WWycs3QnGMnicQNVGX0jGOQJJJq3Sfn1TFtG0dE6EWTwLHw/JhSwSbrmK2muBFRLMllTAZ71ENSV97GDbNEnkAkAXbRYLDQQxglmIZ2WLeaDAOIQhUoHgdHdMEdDhn6SoxMt1g5Rndcx5habj0ZeAgnd+SdpveNfNA0NNMm8ZszmaUAQlexTcfQ53LaKifhpFlcktBTC7hmdMQ7/iqgklii9vV5thI3qwjL6bBWJaFH4tZbsX2nphcoFVgnECEEixYtYmBggDA88o+f67ps376d5cuXp27Fk8D0fC8qGJjE2ItWoc1yE5qmSTQ5TOQL9GyxvV1GIeHkfoRuYPUuOa7Pno5ZOdQiouJYIoSm+pApq4CqgXVwvI9mOa1g9wp+o07FE1iTZXJFl4afUHdDSBL8ZoOgUcPWYgoZjcn9+5ESpppQ9+vglnG7SpR6+7BMnUrd50f37mV4tMZvrIhZ0pflru0+9miF85YYTDbhv382xlMTI5TnKUWgmv8m+KGqmTQbx9Lp63K4YInkvNUFcjShdyXketQbJneztjti7fpB5cILXBgdQ5oZml6I74dooUeclDEbIeg6YVIloYtCxiJOEhpeCAg0AY5tkHUM6g0lAJb25ehyMlgZh8RrYBQFdqsC95EWVykTZBximAZJGJP4DVVt/yjEkgx95fawMyTu3HpXR4sq4TGrRIYQJMdpfZFRoKykSJLQRzsWgRUGCM1QDwLNkCTwVHKGBE3X2/cxR1n9X0YhCB2hiWO2fh0viddE6GbLTT5dquGZDwafvp7Trv64UUFzcsfU5H362goro66NTJ511iCZxATj+zC6etFmdaZI3AYy8kgC/2mVonkmSQXWSUDX9aNy+SWJclHZtn3S27L8OpIkqqqzKSNsTeKYOtqseZcyIWlWVRzULIRhomcLhJPDaHYWI9997J8deEpkHeKpUsaqRAOarlw3rYVKxWKpWJ9K3SeMJBnHQPND/IlRRg9MUolNjPIUSXSAULOVVaU+ht4YwxYxYQIHxhIMJ0ehqFrjhFGCFhs4OZOt20Z5YNs4D++cImpZoZ7YCzAtCHz+5z6BH80kAGitQO2Vi4qsWFRk+aAqHilr44zu3olnFAlqZepek7WbL6RYyKlsurFtBKZJ7IMeuMisJPAjwnKFxKuTmGUSuwvZmMKsNomzFo5lMNRXwAiArI2LRaIZZHIGfneWyaqHLmCxWSXX24+ZyasCoyKhsm8ncbNG0TEI6yquTRiWsr4cQlzFXgMZ+ujZIqLljiOOwTRVeQvv0PvOua5RoKrOm5a6B1olMo64XyvZot1rbzqQ3FL7CsMg8d1D7n/YY4e+GpMQJEGrDEcUqLk5zDlJmSi3U8vaLhCqfIeUCE1DaEYrOy8+unNMYvVeTUNKQRKHJ9yapDIIfYRhqGsbqvpqR5NtN3399EzhhIwtnDoAgD24st29wOwexCj2HfUxlPtTqo4HYavf6BHKqiwkUiZE5VGMQm/HnKrixhF6rgsZeEi/Qdw0262/ZBIT+w2SMESGnQ8O/uguEu3UiNZPBVbKKY1MYpU117O4I6hb/fhFh+ytN+sAkExnLXUG1crAR4b+vC48zXSQrR89zXI6nrCSKCBpVNCLfYdcHBKvgdD0Qy7s09mCiZSg6+3zkXFEPRSMVautJreqnIEeBYjJcaQf0N3Xg2iGxLbEyGfBq0NShnwGzAwWEDQivviTcWpelZdtLrFhSYanJmJuvOMJ9k/NWA5WLS6yrMfiZ4+OE8awqs+k2oyYaKomtecvt7jgnDUsX9KrsgKro2DnVC85QEQuQ10mZG38bJYD+yexNPUgkYQejUYAuQQZQDIxTkgJS4TkjRinaBGZMaLkYOsSzSyi54tkHBPL0AirHkbepCjyKntNQmZRnqHeLIQujA5jaD5WvhcpJeHkCGZzHEtoRJWxGSFgTAuBEHFQQK3ab5ioOo6eKWINLEdoBshEWW7M1jX0m0flWosDVyUVGBZJUCEJA/R5xEcSBYST+1WhTaERN8oI08YeWDFzf8QRWsuCJXSzZT06thgqNSYPhEAYJnGzRpJ38Ud2YJYGMQ4X9N4qxSDMaZFnETdrCMNEaBpoWks0zR+sLpOYxGu0rcMyiZVoNC2ElMds/ToelHs0VOUlphM94hA4vMVk+r5IwgBn6fqFH1cUErcSD5IoIPGaxG4VNP2Y6t4loQ8IhG4oUROFR6xbt5AkvktYHkPoZse9FFbHSbwmTiZPEnhqnG6DJArQDKvtStdMi9irM30HJKFPXJsito7eyvpMkgqslFOa6QrjMvRhlsCKG2X1430kgZXEqFZ2cwVWEnjqCz/LPTgbLVMkqk6oQMz+5e3tUXWSaHIYSzMwCnOtWyrwNEBYmdZTZdB+qmy4IV4QIRpNGhWPSqVKjxXRk/EJ61UmJmqMRRk0TQVTa616UUlsQGOKPaHF7n0uq/OwY+ckP922l3qtjpAJ65bkOXOJxu4Jn+8/WKHhK6Hzb7d3BpJnLcGlKw3OOnMFS5cvRjSneMkqj8DqosvRiJsVdtQdShmNPtOFwTyYOkno444NI60cztBqDEMj8Zv4sUbcDNGEgRaHBI06bmIiJybJOyaDg3lkbOPVa2QWOTiaibQySrSKGKuY4DeaaH3dHTEaApVWL3RduU1b1oesYxP5ZTyvSVSbxCwNELs1wslh9GwBzXTaMR9A2wqVNKuIfHeHQEm8hhLL2S7iZo2oPoWR71b3iqYhhEbSCIjcGtY8AisJXIRhKfeTlCRuoyVAdFXmIvRhnv2i6iThxH71GUglynSDpGsAzc60yyOIWQJL+k11Lx3CnTK9eM3Z7rXGZFjI0FeCsjaJTGK0TH5ONXUpE0DVMJsWmgDCNJGBC0miYsM0veVOnV9gxfUpwqkD2ENr0OyMElfTLiwx7U49OuvXweOTvntUrk5V1y1qu93me9Cadz+3TlybVKIsXPjA+LjVBkuirk/sVkFC4tVI3AaakyXx3SP+viV+A6EbrfttWjyeWKJ6GaHr6JmC+v40K8SZXFtgTYtHGfokfpPYran7N/RVIWPDUvFXcYBu50g8t/3goOJWXZJI3SvPdlKBlXJq08qeOvhHMfZUqYIjuRiEjCGRYBhzauAkQRMhtEPuL4RQxT6rEyTFPjQ7q5oiV8daWYLD6Jn8HHfD9FOz6idYV24j06Zc89m5v4LrBhj1EUTDRctlGPMCdLNObXiSqXpMtmhgWzMiQAI7xiNufjDkiZGQGVdeZ4zPrskKN2+ttP9e2mOxbpHDHY9WiRJwTDhneYaXbTDIZwwwGiCVVSFjCjJZ9XOh57tZO/273lBPxb6MqE1OUBIhRFVqlUliqWHW6phOBsfWmar6NP2EnFun1NVFvpCQLw5gZyzAwpEuJg2E1AgRaKZN7FaVq0SIecRBa5HXDISuk/itIqymrX7kTQvpN4kbFcLKKKChmUpUzY6pEy0x4B/Yjp4rYXT1o+e6EEIjqk+RJDGmaSPtiLhRQbdzM7XIUNbMuDaJ7OrvEGdRbart1jFLAzPuqGmLj4SoPqVEW67UXoCSKCCqjKHZmY4FNKyMETXKWC0xImaXaDtMJqGUkrg2STi1H7N3KUa+ROzWiarjmN2DLReZqeKo/CZRbQKj2KvmbeoAVv9yhBDETXUtktDHKPaiO4W20ARlwUrcBrQW9OlznK8iu4xDgqkRknqZqFnBsjMzZUI0HZCHtX4djnBqlKg2jjMt3A5D3Kx2xjROu+MPg5SSqDqmBHISk/ge6MdnFYobFRXcfZCIjd0q0+Uv4nqZ2K2p3xq/SVSfhMoocbOK0T2E2T04r0VLykTFcU3HbAnRUUhVtpIakkgl2hyqLdGhmOmLOjPHMokJJ/YhDAttcY64UQZNI25UVXyfaSvx2PptjhoVJbAsR3V88BrKbRj6IIUS/W6tnXwxLTRl5CFOgZJlqcBKOaWRSdzupTd7W+I3W5Wk57p9Okhi9UXWjY4aOFJK4kZ13tpYs9Esh9CtEVYnsPuz6ofEb2J09atFrTKK1buEMIppehGWqWNFAWEQ4CU2ouHjV+q4ddVMGK9JvywjqSJKXWBZVCo+B8aqRL5LsXcINMFd2+rcs6NBFEvKzYiphjp/XYOenMFYLcI24NLVFqsXFWiGcM+OBrvGfZb2WJyxJMNvnF7E1AUv3NhFGEvyookIXMgV1aLZLOOOD+M2PTQvRCYeuqYaFpuG6knnNwOCShOj6DCYiektFNE0jciMiAIfqWXI9vajaxrFjAbVLCu6JaWumDDSMGclc+hOjrg6gTBshGm14p1URuS8cW6aBq2YEqHpynISR8ry6NXVU76rBEPcrGLkew55HfVcFzKOiJtV4kYZPVdCzxaJqxPodq59rePpBWGWuNHsDHGzSuI10bMF1S+xNkE4tpck8gnLYOS7iWqTJKGH0bKsaJm8soIIQdIogxAYhR5lffUbc9xzmp0lqoxjFvuUJWKW7p83kzCJSdwaQXOCaPJA67swquIHyweIJkfU96blIpu2OGmGpcRstouoPNISekX8sT1IrwGaTlQZVzFWs4SmEJr6e1b7JClahS4PetCJ6lMkbg2tdc1lV/+MBasl2GQStYXF0RLVp4gm9ylXkls9rMCScUjs1juEhdC0lsWopu69Rhk9k+9wyyXNKlFtAi1bIGnWiL065A4vThKvodzB+a72ceJmFf/AdtANrJ5F6IVe1cEgjtrCSwhB7NaVkMl3owNRZRQZx2h2lmBsFzIOVUbzQSIrrk0hfbf9MCGERtKytskkJhjZSVyfIokj9EwBq28pem7+dlbzEdcmCab2Y/evQM8WWudUU/XQRJOoOq68CLmu9vbphyYQ7eQcQh8tU4AkaWVDLyL2GmituLgkiVX2tGkTN6romTyyOgXRs19hpQIr5ZRmOhZldjbetP9eylilxB9WYCVIWu6MWab+g60Nh0N38sTVcQJNJ25W0FoZScLK0JwcZ9jPUa4HuH6EYxn0mw3qY3WqAgyvTuyNEuUhK3xywQEIPYRTQGo6SEkxn8GfGmEsKfKj+8vcv6tJudlpFbBNwbkrczz/zCK9BZOaG2PpEtua+YpfuGb+hcqxNBwAmQPTAd0gjBIagY7lDTNUKmB1lUisHK4f4QUxfhAjgULWorQoR66ngDwwjDDy6tzrk1i6hT4w2F5YcxmTTM7GlKESLk5nbJtmZQjdOhq0XabtxWGeuCKhGSSB2xYs6rqp+yGJAoxMAc2RRNUJNDvbXrgPhdCNtvsvcWtEtUlAYLQW+Gk3y8EWGaEbKpi3PomMfLXI1ybRrAxGtkBUnSCY3E9c6xyHit1rZYi5NYKRnYRTI8jQQ7OcOQumZmeIapME5RFo1YvqHIhou7Xj6jj61F6CfQFYprKk6gZxo0w4sY+4Nome6yKqjoOU6C0rhzkrgFozLWTsEI7tIc4USNx6S/RJJRbdGgc3adR0AxnNxC1qVoZwYi8y9DF7htCsjIrLmRpR529nlYWmWZvj8tGdAtHEvnYcmgw9jGIvQjeJm1WiRkXNlZ3FyJWI/Qbh+DBq8c4SVScwin3thIDpMcWNCsLOqODqwEOb1WZKc3KE5dH2vABE5RGMZhWzexFoGsH4XvUZhoWcrv+V6W7ff2F5RH0HTHV9k8DFH9mJ9F2MljVT6CbBxHCrpIXAH9mJLTQlsN06MnDRcyVAENcmVa0xTQMro74fOXV/CMMkmtyPZjptq+P0uIOx3erhw5gVI1ebIsoUSfwGYWUMI1dC03XiRhV//zaM7kXqOM0KSeBhdg8hNJ2wMgZJosS2k1cCbWKYpFkl0Idx7DXq/qqrBwakVAWQW99DoTWJG2U0K0NcL6PZGSWY6mUVC6kbCMtGeg2i8ojK7Gz9bgsEsVtTDxChi5brVvGPfnXOd/jZRiqwUk5pVL++qBXMqUhCn6T1JH8kc7+QMQJDxVJEM1lL00HPmjNPjaqDUBaMiHB8L0hJXWQZ31uGJCJya7jFHLlCid5ihqYfMXxgCitMKPXYCDODtCI0y4PqKI2my70HDB7ZN8HeSdUq5/kbu6g0M/zwkcn2ZxYcjS0bivQXTQxdsHbQbvehAyhkOhffgy0IcSJx/YgwijF0naxtECcQRhDEPpoQ9PSU6OkaxGaWlQhVVyqMEiQS3ZOYZoTwygShr35MhcAo9s0fbN1KhZehh5aZmw2lOzniZgWjlZl1OLeFME1oWVRArfVhZUxZalquXRWPJI4pc0rohrJgzfOaZqjsPw4Sa7qTJ5zcTyQ0QGDkSu24Hs3KEFfHkXGEUZw/nk/PFFSwfOS3Fpu5lhchNHQnRzi+F6Hr7din9uuGQdyoqLjAWhmRRGi5ImZ2ViyS0IhqUyB0Zd0Rh/+O6E6O2K0psVLoad1DAs0wSQJ/jvtcWBmSut++JrqTQxoWYXmU2KtjdQ+pa+Q32xYbhFBlT0yrQ69pdoY4DghGd7WzaqeD4oPxvSojTjeIqhNE5VHlgrIy6NkulYXWKBNVx4mqE8g4xh5aiQzV8bRsQbn0kR33qWbaaF122yI+XbohLI8RN2toTpbYrWMUe1rX1lGFfQMXIp9wbBfSbyA0oeLmTFs9xCURWrZAOLmfuDapLHeNsprT1oNZMDEMQiOY2NcqVaG352E6Dk0I0VGYWDMspJUhnNhHVJ9SFiGpLHEIDSM/c79N9y4NDmxHJjF6ptAWX0a+RBK4BGO7iWoTrcKz0zGDao6FEEiUJVUJ5SZGqZ+oNqkEs51tl5KAlpBtfQ+nra9xo6JczIXe1oOGQBhG+1xiPcAf2QkywSgoC66WyRFN7Sc2bPU7pql51aLpMjdH/o1+pkgFVsopjYwi9QM2S2DJyFc/MuIoihXGEQhHVXGeTn3XDeV2nBVEfMRx2DkiI0O9GXBgwkUTQrnTpKQvI1QlTSnJ6yFYMWhZVdvAsBFeBbda5gePh/z4KZ/4oNjNG38503R484osm1dk2bAk0yGoQImoJIEonmntU3NVoUdNqBYvxZxNkkhqzYB81qS/lKHS8Kl7IbomsEyN7qJDzjHIZabT9DuteJom2jFgicgTVcbVZxhWe8E93Lzp2SK6c4j+enZ2/sKr86CZDlrPTGFRPZNH+k3QjQ5Xx9G0DDpahGW36iZ1nt9sa9SccTo5EreOPstSMu/7juK8tVbwfxIGc+ohaVZWtV+yHLRCD3KiNuc66NkicbPatgweTX0hPVOYU4pAs3NEtck58YWaaaN1D3ZsE4bKIEvcKv6BHeqYbbGm3LOJ11Bu3YPGo2WKyGAmYD2sjLU+12q7UHVU307Dyc3EfrXKm4TlUXVPCE0t3HEEAhU3mfHRDlGOYfa8Cd3A7Oprx60Zue4Zt2gr9i2c2ItR3keSGcToHZoJKg8D0EXbhSaKfcjQV7F8mcKMiMoUiarjBON7lPVqljtbP0Kw/vRDSdKstYX9obJJ9VyJxG8iMOfcr5qVaZUscZU7XUBcrwBJWwhKmZB4zdY8lBCaCmYPx/eoh6ckxpzOCg299oOCZjmtcSUYVqZtxZ0Wqu3xZfLqe5zMuIo100EYNjLyMVrfEWGYKv72Wd6cOxVYKac0MvLbT5kzmSYNtQAeRbsNEQetIGcDGbmtOlPGYYVZFCd4fkQYSRKZ0PRCmn5EFEEUx2RtA8dufbWkRdSso2e7EZVhaEzieSFbJ0zG6mXCKGGkErBzPMAN1PP7kh6L81flWNVvs28q4Lv3l0kkXHVJL2ctn38RDqKEejPA0HV0HbwwRiaSYt6iu+igARNVj3LNRwjo784y2JNB1zS6izZeEGPoGpZx6KD++dBM+5iDY4VhHVWdoWNFMx3l4jyBCMNGhlNo1tHHqggxs8AuFNo8sYHCMDEKasES3vyZbULTj6tu25zj6IYqenmU11HNQVcrKF7vuMeEpnckHRy832yLjVHoVdagg9z+882Hni2S+E30Qg8glEVF19EzRWQcEdXLGMcQczS9+B+M5uShWUdqBlq+p0PkiYNiwJRVda4YF0JZPRO/gZ7vPubaX3q28zwO94BzOCGvBNPMOR6cBS2ENmceph8ulNVvVqPwg8ekG4ijrCBysDtftWOaPWenRqX9VGClnHIEk/vRDBOj2KfcFIbVboiMEO1+gcRhu3DifEjZCsjV9BnX1XRLGq85xwUTJwkTFY+pmkcQJiqbBYmuadiGju1oaJrR/nFs+jH/fY/H3Tt3knf2MpSXBInG/nJEEMs54xkoGlx5fg8blsz8KK/ot7lgTZ4kkdjm3BiiOJZ4oXL1DfbkKBUsDF0jiBKSOCHjmOiaGs90PJapawz2ZNvbdU0j5zy7qjs/WxFCYHQP/cq0Unk6HMmyMh/HUoV83v01DaEdXfNfYZjoxswib8yyIE5bpRYCzc6gSQH6+NO6L9R4SwsypmeCp9Ob9VeVVGClPOtJQl+1M2k9nSfNKtK00Qs9Kt7GtFoxGpEK8IxUVpRKIz5MqYYkVmUIdL1VPTpp1xeKvAZuBGYQoWkaXhAx1bIAZWyDYtZC0zqPWW5ETNQjNAGP7/f46ZN1aq6K5ai5ETUXQP3dXzRYN+RgGRrdOZ1lvTbLeq226JmNqQvQBXEs8aMYHUEsE7wwbok7jf6+PD1Fp32exjxtW0xDY+lAAU2QCoSnQTp3KSkpR0MqsFKeFSRRoMzA81W1duuEldF2XE0SBohp/3urIbIMfeWTb23XMgWQCTIMD9lbbFqQCTG7Zk/ExGSN0eFJ3EhHGAm6DmGYgICunI2udy6wlWbED7ZW+PmTdZKDDFP9RYPXn22iCxgPMziWTnfeYEn34duQhHFCEstWpXYIY5W5l3VMYpmgCcHi3hy5rIVt6vMKs/k42vf9upKEPuPf+yx6tkj3b7z+iHWUTnXCqQNz2pikPLs4nur8SRRQ/cV3AOi65Mq5nSKSpFXv7NDdJhaSqDaJ0M0Fd5U/20kFVsqzgnByP0LTsfqWznktCX2VUh0GyvUeh8hEqN5rswLRZRy16ry0LFaagUxUpsnBC0gS+kivrqxYsxrmjo2Ms6duYHsB+a4elXWVJGRsA23WD5GUEj+S3LO9wbfvm8ILlbLqyRtIKRnsMjl/dZ6zlmcxpYoDW3W4chGzcP0IP4yxTI0wUMH6uiZYNligKz9zDP0IZQeOBZnE1O67BXvxWuxFa57WscLyCIlbf9rHOR6S0COcPIA1sOK4Fg5v18OE43sIgbHvfJLeF76tbTk9GmQcEYztIXFr2EtPnzc26HhJQg9v96MqTqbQjdW3rPOzWwUwg9HdiL4VRzxec/v9TP3oK+ROv4TSpa/BH9lJ88m7cZafibPsdNXI2bCOWN7iROAf2IG/7wkyq87C7Fl00Gvbmbr9a+TPei75DZee8LGEE8MkcdhuU3S0SClpbrsHs3sIq28pUXWc2oM/Irv2POyhVUd1jOq936e29Xb6Xvz/YQ+t7ngtmBimdu/3ATBKAzjLNmANriSuTjB5+1dVVjOQO+NShG4y/v1/wVm6nuK5L2Liln8nOLAdZ+UmsmvPo3b/LSA0+l7y9jkxlfVHfkLtwR9RPOcF5NZfdFTjjr0GUWUMe3AlcaPM6H/9A8IwGbjyj+fEZh0JGYWqeO0paDlOBVbKM45qIVJHJglmaXCuGPIbyMhvB56346T8Rrvys0RlDMb18kwwZLs9RGcaelSfIhjdTVivkCTQ8GLcyCP0NSbH9uIU+8k6OhitVPNZGWNBlPD9Byvc+XiNYFaz4+W9Fq86r5s1g/MFWR96kZ3O/IulJI4TgkilEC7uz9OVs4gTlQGoaQsrqA7G2/0ItQdupbntHgZf/14Sv4m3+2Gyq885onWj8cQvqPzsv+m54newF5/G+HevI/Hq9L/yXVizWghN027zMk/16agyhubkWmndY9QeuA2EQM+VKJz1vPZYZBxR/eX3MPuWkl1zTnv/qTtuwNv1EKVLX0vu9IuPeR7cnQ+2/iWIyqNM3PyvDLzqj444B1JKGo/9jOovb2rXU9OLvfRc/kasgblzcDRIKUn8ZjsoeepHX8Xb82j79b6X/V570Y0bZSZu/jfCyf0AaLkSYt0L5hyv+cQvEIZJZvU51LfeDoA3/CQA1bu/QzC6i+YTd6uHjiTGKPYxcOWfHF3zY99l7LufwepbQvdvvJ6wPEr17u+oemIyofvyq7D6l6mHoESi2RmCsd1M3fkfZFadRXHzC1rjTJj80ZdJmlVqD9yKnu8GoeEsO52ui15F5RffIW6UqfzsRjTDJnvaeYcckz+yk8YjPyGY2EfiNeh9wdVzhMpsouoEzafuJRjZ2S6Q6e97HIDuLW8ks+os3B0PYvYuwSwNtPeLq+OYBx4l7usCZzEAzW33UP7xDWhOnqHXv5fyz27E3/cEzSfvJr9xC9bgShKvgb/vCbRMga4LXkYSeDQe+xmZlWdhdPVRf/RnEEdU7v4u/a94Z1tkuDu3MnXH12ay6PY8Sn3r7arlzEHtcIKRnap4anWcxiPjNJ+8p32Peju34u3c2n5v/aE7KJ7zQlVuwc4Slg9QuetbIBPKP/kmwdgejEIvmu1gDaxUldsn92MPrW5ndUb1Kca/82niRpme57+FcGKfysqOAqZ+/A16X/Q2hNAIRnfTeOIXFDZtwejqB9SDdv2RO9HzPRQ3Px9v7+NM3PxvaE4We9Fa8puei9mziGDf4xhTe9pN0J+tpAIr5RlHxiEyUgHpcbPaUcFaJnGreGJIEvlqUZZS9QwL/FYpBdUTLvZUgT6tlVKuqlujFiknB5pG2KhS3rWNesOnFhrsa9q4IzVM0wQhyGjgaHMzCKWUbN3j8j/3TDFRnxFsOVvjxWd1cdm6wpyYrGn8QMVd2ZZOIiWuFxHFKgMRwNB1NKHKH3TlTYo5h66c1XptYeb4SAStp924USYqj1B74Dbc7fcTjOyk+zdef8j9ZBQqURGH1B64rVWrSLXoqT/0Y3qe99vt98bVcTKP38bkz3YDEj1Xovclb8ec9eM6+t//jNmziP5X/SGVe27q+PHX8yVy6y5Ux956O/WHf4wwLDIrNiIMk7A8grfrIQCq9/2AzJpz57UgeXsepfLL79F1wctxlq4nGN9DODFMZuUmvH1PAND7orcx9eMbiMqjVO75HoWzn080dQCjNDgnk0zGEVN3fA13hxJnmpNTyRbVCca+8yl6X3A1zrINrcbgGYxiLzKJcbc/QFgeIaqOE1fHAeh+3u9g5EpM/eSbeHseRQYuZu8SMqs3K3HVSouPG2X8fU9gD61GJomyWEzuB01HM22SRpncw98jXrYUnMVIKanc9T80HvmJmuupUcKJfe3rkvhNVX8JleU5/TATVcdpbvsludMvAdR3qbntXvRcF1b/slYxzOl5fYRoaj/R1H7yZ/4G1Xtu6hCEk7ddT+k5r2Pq9q8io4D8xi3UH/0p0m9SmzqAUewju3qzsgA2VWNjVbBSlSlpPPITZBSqkgAtpu78Bu6uh9ALPQQjOyGJleXQsvEPbMff+3jHtao/9GPsodWElTHi2iT20Oq2ePT2PcHED/71kD3upu78BvWttxNODqPZWQZe82eqKv7EMJUffI5M4FLe8XOag6vo/o3XU7v3B2rOvDrV+2/Bb91bSEl9649ga+fxo6kDqutAfQp3+wN0XfRKVWICCMd24+99HGfZ6TS33cPUHTcAEnvxaTgrNhKO7cbd9ZAKlRAa1uBK9FwX7lP3EYzuUgU9p+/X0EMYFl0Xv4ragz8irk1gLz4Nf98T1LfejowC6ltvR3NUcVpkgtHVT1QZo/nEL+adG83J0ffydyA0nfGbPqfqcQHVe25SnoYW/r4nqN37A5wVZzL+/X9Bhh7+/m30veR3qd77fdyn7mu/1+pdTOXu74BMSNw67vb7cXc8gFHsJ6qMkgGk+5vAAM9WUoGV8owjo1AFq2s6UW2yo0aOirOK2o0+haGEkBCaik1oPcC0SzXEcUemkjBtgrE9hJVxmn7E+ESFphsgnS6SOEbToJi1cBxlFt81EnPPz0cZ7LLIFRqM1yLGqyF7JwP2Taknw1JW57UX9LB+sdNRi0pKSRAmWKYqdSClpO5GJFKiC4EXxMQyIeeYdOUNTENXrXNMDU3T0A9hpZJSdrhCTwThxHD73+72B3BbQqX55C+VS+MQ7r7Gk3e3BVUwuovqfT+YOc7Ore3myP7oLsrf/QzmrCrocaNM49GfUrr41eqztt0DMiGc2Ie362G83Y8AYA2sIBjdRTC6i9y6C4nqU8qyhbJa+vu34SzbQP2hH7ePnbh1Go/cSeHsKzrGG4zvZfKHX1LC8J7vYQ+tZuLmf1Pvb1kLjGIf9pJ1dD/ndUzc/G80Hr5TCZPW07LZt4zeF7y1HU9Sf+QnSlwJja4LX07ujMuQgc/Und/A2/UQkz/8Ms6KjbhP3Yvm5Bh8/XtpPPpTqnd/d858Tt52PWbPoo6FJpzY1xZDhc0vQHdylH/6nwSjuwGoPXArwYEdCMNi4NV/hDAtxr57HVTHqd7279gveTu1B3/UsTjWH7yt43Ob2x9Q3zPTZuiq/0viVnF3PUT17u9S23oH2XUXQRIzcfO/EYzuUjvpBr0veCvOknUAeLPETPmu/yHY/xQg6H7um6jeexNxdYKJ7/9L+z21+28BQNhZpN+kfOd/YHYvaovqzMpNdF30KqLaBN6uh6hvvb19DrkNlyKjkOaTd+PtfrjjXMLJmXsZIciedgHW4ErKP74Bb+9jRPUpxr79SaTfRJgO+TOfQ/HcF1G772aQCWb/crJrzlUW8jgie9r5VO/+Dt7uR9rHTvwmUz/5Brn1F1H+8TeQgUtiZtAij2BkByP/9TEV+9me7x8CYC87neya82huu4fEq6uwiP7lNB7/Of7+be33R5VRKnf9jzqFluCt/PJ7BON7WvMmya6/iNIlV6rfhQ2XUIpeq+KqWjF13p5HcZ+6D3//U6oSOtD93DfhD28jt/4irP5lZNeeR9JqjD327U8Sju1uWzanv9dapkDfy99BMLITd+dWhKYRNyrqPtB01cOyWWX8O59W1sk4Qs/3kIQeUXm0dYw8hbOeR+Wub1F74Lb29xdUy52R//i7lrAVGF19RJUxJn/45Xbz8p7nvonmk7/E3fEAUWUUDBNv4HS0Q5T3eLZwSgmsp556ig996EPcd9995HI5Xv3qV/PHf/zHWNbh4xxqtRp/93d/xw9+8AM8z+Oss87ife97Hxs2bDhJI085HDJURT2NbBeJWyVxa+26OMq0HKJZWVUgLzJV5V+hq6fsaaORpquGoEbnLa1nC0RRzNRUmbEpjxiDfHcXui7w/QDTEG0xF8aSL9w52WpDEwHNjmOZuuC5ZxS54swizkElExIpqTQCTE2jGUQUMxbVpo9jGQz15tEEjJZdbEOnvyeLZaisxdr9t5IU+3Bmubk65kYmjP3PtYTlEezFaylseu5hXRzHSzi5r/3v2kO3dywO5Z/+FwNX/vGcFHuZxO0fY2FlkIFLNHUAAKPYR1Qdp/HIT+i68BU0HvoxJDFRYZDe57wW3asx+cMv4W6/n64LXg6ahrvjgfaxp+68AZIYs3cx+U1bmLz1iwRjyspW+cW3O9wg7u5HMPuW0nzqXgByp19C47GfUbv/VvzhbdhL1pHftIWkWWXili+03SrhxDCVX3yLxK235kAtns7KsxBC4CzbQHb9RTQfvwukRMt2kTSrhON7qD1wK6VLriQJA2WNAEqXvqYdoyLsDD3P+20mvv95/P3bcFtjS7wG7vb7aTz689ZnbcIeXIWe66L8s/9SVoxWc+ue5/0ORvcQk7d+kag8gtmzmMJZz20vWsHYbuJGmdr9t7Y+/7VtV0vx+f+Lie9+BupTavFq0XXJlTQe/RlReQRQBT/j2mRbuJi9S9BMC83sI3f6pdRbFo76I3cSju0hGN2FsBz0TIGoMkb17u9iLz4NpJyx0EBLXIGz4kyyq8/G6Opn7NufgDjCWrSGzPIzqd5zE0axl94Xv52pH30Ff/82pm7/iqqUjxJY0zWXrL6l+MPblNAUGvlNW9BzJXIbLsHf+zhxs4o1qGKkvD2PgZSYPYtwVmxsu/LqD91BNHWAiZv/rW0ZkqGnBItM2oKh9/lXzwnG7t7yRqZu/xpoGrl1FzJxyxfw9zyGv+cxNY89S6iueS7Lh/qp/eh64tqEmu8LX0H13u+377n8hstwlq4nu/rsjuM7q85i6odfwugaQM+XaD5xN1FlTF3Xy36T8p3/QTS1n9qUcgFn111I6dLXdLjZhWFids8U3rVaMWPTFkAtUyCz6myyqzfP7DOr7lXXBS9n/LufAU2jdPGrEaaFu+thChsvR3dyZFacSWbFme19p91ziddg7DufalthraHVdF/+BtztD1D9pXqIyJ52IbkznoPQTar3/oDEq2N0D1G65DVM/ODzyChAz5Xoed5vY3QNMPLNv1M9DYHCWc/FWboeZ+l6/NMvVpX4l57Jnt27eLZzygisSqXC1VdfzcqVK7n22msZGRnhIx/5CJ7n8f73v/+w+/7pn/4pDz30EH/+539OX18fX/jCF7j66qv57//+bxYtWnTYfVNOPO3K64aJdCX+6C7sgRXo2aISUVIiTJUpKJNYZRq2BBXtiso6cb2OXigBKlC86YUYuka14TNVS3CcLHn70Lf8T5+oUW7GFByNJT0WbpDQVzDpKxj0F03WDtp0ZefunyRKXOUyBn2lLOPlJuW6T6lgM9SbxWnVn8o4BgLRdiX6w9vUU3OrtYzR1Y+35xGcZRvaFa3DieG29cLf8xjB8FMM/tZfHrIw4+GIGxWaOx4gt/7iDtdZ3Ky2RYbaoMRVfuPlNJ+6l6gyirv9AbKnnUcwMYwwDMyuAbxdDxPXp9CcHKXLfpPJW78IqEW6eO6LlPXn8bvInX4x7h5ljfJWXYTRvQjbWo6WKZC4Nbx9j6sq5I1KO/ZHthbZ7NrzsfpVMHdUPkA4NaIsHEJQPP9lbcuCEBrEEWbfMroufjXB2G7CiX34+7fh799G4tbwDzxF0qxilAYxin14ux+m8djP22OenufMqk3tqShdciWZ5WdgdA8pS9zwNsZv+iyNx+8iv2kL7o4HVfuWQg/Z087vmG+h6fRc8WbGv/854kYFe3AV7s4Hqdz9XWU9sTL0XH5V20WlOTnGv/dZkAldF7yczEo1jv5XvAN3x4M4y85QhUJLgwjTRoY+1XuV1cUaWEF27bntz9YyBRpnvIjio99HenX0Qg+lS16Ds3Q91sAKxr93HdbgSqyexdQeuK197rOTTDTTIrfhUmr330L1F9+ePil6rngzZs9iRm74MOHkMN7uh9EzqqinsBz0XKkttPMbL1fH7V1M34v/P4Kx3eQ3XIYwTCVGNQ2h6XQ/942M/tc/tGPIhG5iL1nfMZfdl7+BiVv+neyaze1iqVbf0jmJMdk15zIf2dWbqd5zU3ts3c99E+H4XuoP3dG2qGRWnT1vpptm2vS+4Or2313nv5TKL76NsBxy6y/CXH8ZU/v2oxd66H/5O5i68xtopk3ujOcQVSdoPPYz9GIv9pLT5h2bPbCCwde/DyEEUX2K5pPKmqs5OTKrzkLoJu6OB5BxhNW/nPymLfPGMHaM2c5ilAbbYtpetOawgeL20Cr6X/EOhJ3B7Bo47FzCTLkSPZOn7yW/S/2hO3CWnIa99HSEEOTOuJTGYz8j8RrkTr9IbTv9YjJrNuPvfQJ78Vo0O0vfS34Xb9/j5M+4rB1vWDz3xZR/+p9omQK5DZfNjHHRGuxFa3CbzXnH9GzjlBFYX/va12g0GnziE5+gVCoBEMcxH/jAB7jmmmsYHBycd7/777+fO+64g09/+tNccYVyF1x00UU8//nP5/Of/zx/9Vd/dbJOIeUQJIHbbj2i50sqvuTADuzFa9XTrBAI3VIuQoBW24W4NtVOoxemg5ZN0EyHKE4YHq9TawRomoZAUsx2lldIEsnOsYA7nhDsu2eE5b02O0ZVu52Xbi5xyWlHl06sxJVPIWuxuC+Pbek4pk7dnCS57waS086H1hPjwe4/b1fLtSElUz++AVCNZXOnX0zp0tcCtGNIrKHVyNAnnNhH7f5bKV36GkC5dmoP3EbPc9+EOatFSeOJuwlGdhA3KmTWnEN27blM3PpFwvE9xI0ypYtehbfvSRWf1hJbRmkApGw/OedOvwRhOdTu/QHN7fdhDixn7FvXolkZhq76P/gjqu1JZvU5OMvPQM93E9enyK49F3vpesyexYSTw4zf9C/KbdA1QJJtVRrXdLJrzqH+0B0qpqcVN5ddvZmwPNpuvZFZcw66k0PLFkma1bYL0hpcRf6My5QF0K3ReOxnABTPezFC0+h72e8Rju3BH91J7d4fUH9YuQ81J0fvC/8XcbPadi0Jw6TvJW+n8cTdkCSYPYvb8yg0HWfZjKXbXrwWa9Eagv1PMfnDL7fnqrD5BfO6cDU7Q/8r36XuFa+h4mRa1pPs2nM7gsftodX0veTtxM0KmdUzFk3NynRkbwlNw+pbhr9/G80nf9m6BpvnfLZ0inS9+HcRU/vIrDyr/VlW7xKGrvorhGbMca+ZB4mV/JnPwdv7GIlbV26eTc/FWaxEQu6M51B/8DZq993cFkP24tNwlm2g/OMbsAZXYg+u7Di/2dbX2eeuZwqULv1NJm9TIt1eun5O/JzZPcTQb/3lnPM8WjKrzqZ6z00AGKVBMqvOIrP8TNxdD7ctTvkzn3NUx8pvvBx7yTr0fDeaaePNqpyvZwv0veht7b8L57yQJPTJrTv/sKKoXcMu362C6bffj7NiI0LTyazcSGblxmM+Z2tw5YzAWrz2yO8/xkzJaYx8idLFr+rYphkW/a/6Q2QUdhR51UyHzKqzZn3m8jmJINn1FyqLXM/iBc3EPdmcMuWb77jjDi655JK2uAJ46UtfSpIk/OQnPznkfo888ghCCC67bEYFZzIZzj//fH74wx+eyCGnHAUqU8rtaGZq5LuRkU80dUC1vTFMlSouk3aDVyG0drbZ9H66k0NKyVjZpd4M6S44dBdsSgWnLa7CWPIfd03wV9/Yy2d+OMEjI4JKM2HrHpe6n9BXMLhwzdx2GAfTcEPKdZ9yvVNcgQpmN/feR7DvCaZ+fANheQR398NM3fH19oIspcRrWXUQGlF5pP1D2Nx+f9ul4LUymLKrz6brwleoz378LqLqBEkUUPn5jURT+2k8OvMd8Ie3Ub7zGzSf/CX+8JOU7/wG5Z/+Vzs4uPn4Xfj7tzHxg88z9aMvU3/4TgDMnsU4S08H1A+tUewl21ro/eEnqd79HUhUEHs4NdJOA7f6lyKERveWN1I4+wpy6y9GCK093riumlTbq85WNSdaZNeq7C9v51YV/4QSCtOLXGblpna18OmSBO34nBUbEbqBs3TGypHfeHk7HkgzbezFaylufgGFc16o3qAb9LzgrRiFHnV+LXdK9rQL0OwshU1bKJz9PEDVEToUxXNeBKjAYxm4mD2LOzIZD0Y1vNXQM4WORTK3fm6Wo71oDdk15x4xJX1mIVRNNzMrz5r3fXquRHbteXN7BrbKLxjdnRZ8q3dJ5/vsLAOv+kOG3vA+Bl71hx0LY37jbyBMW2V+bf0RAM7S08muPY/eF/4veq54y2HP4WAyKzeSbQnJ3LoLjmnfo8Eo9mK1BF7x3Bep62KYdF/2myA07CXr5i0TcyjM7qGjahOlZ/L0bLkKe9GRBc40pUuupHj+y+g6/6VHvc982AMrZ/59DJ+/UOhODiNfQiYJcaNy1Fl/Qmhk1543p0THqcYpY8Havn07v/mbv9mxrVgs0t/fz/bt2w+5XxAoK4Z+UHNW0zTZt28fnufhOCe2f1nKoZFxqOrtmJ0LgJ7tIqqOI6zsrNgf0SoMqrXeUyCMEirlZitIXFBvhkxWPfKZuZXWvTDh8z8cZduIslQ5pmBVd8L5p/Xw+IGAJw94/OaFPUcsxllrhmgaLO7LoQmNbMbANnUVrI9qejwdoE0cMfH9f1HuL8Db+xi9L3graLrqjWZYlC57LVN33IDZPUjsNUiaVby9j2EvWtsOZLaXrMco9GAvWYe/7wnKP/9vZeFrxSm4ux+h65LXIISg2goetpedjhA63u6HVRwRtBpZh4x///PtbCm/laZv9i4hu+ZcYq/eFjlGsbcdZN4+J1Tq93TMktmrFiX7YIvF4rU4yza0MskE1sqzYGSy/brZs6htDQKpgssXr1VusK4+jK4Zi5zVv6zD2uK0YkEyazbj7ngAs385xfNeMu/1Kmx+AWZpEL3Q015AhRB0P+d1NJ/85YwAayFb2axku+YtNGoPraKw+QWE5REyy8/EWXHmUScg5M54Du7OrdiLT+uwOB4rs5/4raHVx13AURhGO4haWA76rAzeI6E7OXqe9zuUf/qfKs5HCJwl69rxa8dD6dLXUjz3xfP2/JtNEgXKhXYMvSfjZo3SZa8j8RsdNa3sxWsZev17j7rJ+LEgkwQZ+W2X/3TJmCO1DNLsLIWzntsetzDNw55r3FS/L7NrTMk4wuhZpBpjd/UfsZ7bITteoOoGTgvSo0X1nVQPFzL01DECt6O35K86p4zAqlarFItz4066urqoVCqH3G/FihXEccwjjzzCWWepp68kSXjooYeQUlKtVo9bYEkpaS6gL9h13Y7//zqQeA0Ct4FGARF3NqhNYklSHldZhdJDCgNJgltvEoQxiZRMVDzq7kxAtiYgYxvIJMJXOoqpRsSdTzTZutel6ibYhuANF5dY3SuYnBynv0/jzCVFQN1fY1M1NKGRzxhIIAgThNJ2uH6EbeoM9GbJ2QKQyDjE9ZuUv/MJQFK4/E1KfAiBMOy2uBJOnsSrM/a96zBalgJz0Vq0JWfQfeWfIewczQdvwXvkTmpP/JIgUIuIXuwjMrNEnodz1gvw9z+Fv/exjhT0pFmlsX8HMgoIDmxX7rVzX45mZwir48TlEbRCL9lNV1D/6TcgiVUcj5QwXV+s0EeomWQveg0JtN0e5vKNM5ljLepP3K2sbIZFZOcJJkYQQszJ6nHOfiH+6C7MRacR6ep75k9fGCC/5c0kblVdOyePH4RACPl+gjiB6XtiltjSuxcRGRkiz0MMrKH4ot/FKA3ghxGEEXF9CmHaHQumWLSu45wAKAzgnPsyQiCctT1xG2BkCSoTaPnuecWTdcbl7epmQSxnxnkkuoYoveKP0Jxc51iOEpnESN8lFjMLnbn0DDzPU695KvMtiNR3YvZcz0fcaKIV+4gnh9G7F+H7h7bczUvfCrpe/gcEux9CWBlC3e6Yy6M6J5lAksyIDmEc8RhxbUIlHhR6jhiLBCoMYTojWS8Ozp173YYoVv/NN8bQB8M6pACZnueD5ztxa6rhdLFfZd/VJgGJliketViJamWEbqh6YAePS0qSpnpQk3GECCcRlkPi1iCOQdPoesk1CCdPs1pGek20XFHFsHp1VUjWtJFRSFybUL+1BxVElklC0phCSome7zmqwrNSSuLyqPIyZPIkbhN0k6BaQS88fceZH6h59jwXbYHjsQ4nNI+VU0ZgHS+XXXYZy5cv56//+q/56Ec/Sm9vL5/97GfZs0e5S57ORIZhyKOPPnrkNx4jO3fuXPBjPlsRXh29vA+ZmSdoW0pIIphqtDfFiWS0EuEFyvqiBJU22/PErHBtKi78x4OCRqDekDUlrzwzoSQmmGwZU8bGx2aOH4MfJRiaYDhMkKAy/lAJi1lbYDgGYyOTjM36HHP0STINla0zddsX0YAoP0Cw+Eycnb8gGDqDYHAdmSdvx5zaQ9QSLBW7l/EdO1pHGUcz+8gDwb7HcSuTGEAzN8BU+z1gnLaFzOM/RCBJzCxxrgezvJfRrT9Dr41gAEHfGnaPqhMUq34De98DBEMbKCc5cpkSulumuew8NL+OvU/Vbxouu1B9FHnQk7KgSF4IhJQEA6dhjT5J3Mo6jDLd7Ny5C+FWEQISp6gWPrdCYudBN+Cc1yvX4LCyeA0PDzM/U4fYDkQh03dIIz+k5mP6/tBNqLWyIGWC8OogBNI5TquOVyPJlhBxiNg3fGzHiQJEHIDQkIY90yVgDod+KDwcmlcjaR03U1qC7lbZLwuwYwcidEFoJFYezZ0C05k710mM5tfUdRIawqtgGXlsoGEUmdz2JGhaO3nk6OmCANj2JFrQaB1/5kspQg+p6epaHYQImogoIMkUOz83jtQ5IRFAYmbU/jJB+A317wNjc+7XOSQxwm8gM0WEV0U6xzj3kY8IfSVK7EM0uJYSzauyf2cTac0Ie82rIjUTOV4B3US4VaRTQHh7kHb+MPfHzHGFX1ffdac852URNEFoxMVBROij1UYBibSyJNkSen0CKQQYdTUHuokIdyMQSNOGyEPaBYTXQFoOYmRMjavjM1x17kJDDO9HGra6nla2nZQi4rDzOsQhIlIiSNp5hF9HWlk1Bnty5jonMSDUPdc+50Qd38yoeyjy0SIfiVCfMX0PALt370bun/1LvDAcqTLB0XLKCKxisUitVpuzvVKp0NV16NL7lmXxj//4j/zZn/0Zr3zlKwFYt24dV199Nddff31HTNexYpoma9cunF/bdV127tzJypUryWRO3R5oie9CErULfh6OcOoA8YRALxzZNZEkkpHJJkXhsyw3/9NkzY350WN17t/t0ZPTqXkJjSBmsGjwok0F1g3ZqnkyEIYBY+Nj9Pf1Y7YCKetuQNY2GOjJMF72yToGhazJtNdQn9VE2X3kTtzHfkrhst+iWd7JtB1N85XEK67dTGbDZXDec9v7yDVr8R65k+aDt4JmsPjsyw5yTayivPvnxFMHMGoqJqtvwwVYs1trrFqF39tL476bKJ7zYmQS0/j5Xuzhrcrtp+kMXPzyzifeDTOxM/HQ/yaujNEztEZlot0yil7oYfmKFSRuHb17aM7c+uZriOtluteez9R/zaT95xevZmDZUpLAVdaBQo8qGtssKivSrHvA932Gh4dZNNCHbdtznpShZaEJ/XndNZWdK4gmhxk6+3L0Yi+J3yRplFvjVdclCT1kFCEjH+Mo7qn5iGoTWAMrwTAJh7eh5UtHZSWRcUTSqKB39SOjQP37GFxuR0Ncm8RctIakUSEe6kfPddE//Vqzgp4tYQwsp77zEQ7s3sGiVcux7Zk4ocRrIMMehJ1BGDZJs4wcGiKcWE/PyrOJm1WVut+6dw5Vcf9QJF6DxKujF/tUbTqZkDQqYJjIwEMv9M65t+LaBMLKKJHizAiYuDqO3rUOLVsi8WrKIpLJt91sWq6baHK4ozBxx1gCF+k1QDfQsqvR872EB55SVkkhSNw6ws7Oa5FRNaAEws4Q1ybRi30ktUm0bHFe955bmWBkNGCwtxun2K0sSlKS1KcQdg6SEGE6JF4da9Fa4tqEOr9Cr2pK3yr+CYLEq4EU6Lmiuqf8Ruu71XmeUkri2qQqKlrsU03qx/eCbmAU+0E3CPY+ConKRowbZXUMoUESoRf7CSf2Ips1MPpUAc/JYbRZ10h9xgTW4CpVU/CACscRpo0MXPRcSVkThUCzc4hWTFri1kE3kX4dvdBLXJvE6FmkrPlJ3L7OUW1cxSfmZ9yXysqnamcJw1KZyq3Xk5aVzWvUOLB3D8tXriZbLM17/Y+Xbdu2HflNR8kpI7BWr149J9aqVqsxNjbG6tWHrwu0ceNGbrrpJnbt2oWUkpUrV/LBD36QM888U1XwPk6EEGSzC+9PzmQyJ+S4JwMpJUFlP7Fbx87mjhhL4U2GJLk8+lG4aaeqPnU/oaeUw9Tn/ijunvD51M1j+K2+gA1fWbl68wa//8LBeUssqEbKGuiCnGOg+Qn9PUVKRZtS8dBjl1JSfvIXSK9O7cdfVWUFNF2l+4+puKnCms0Y85xX5rwXkV99tipq2DU3LqL7kiupP/RjtFb9n+yKM+YsSs7pF9B1ugoEjt06jbtuVOJKCHq2vJFM32GCQx0Helout0yG7Gv/VB2nWSHRchiWidANtZAJoTLpNswEZFcLve2sq8zgClVs1SogvSa6bSOFRBZKyNCf9/yNJMCMwcjPtVrGbp049jCtknKptMpH6Jk81ovfRhL47YykOAlJMjkMy2ovenHiI5wisVvFPE7XfxjYOPkimuXgVfII00CbJQaj2iSak5+T3RRWxzEHlqgWKIGHv/dxhK4ddRbUkZr6yjgiyWZxiiVCYqKg3jG/UdDALBSxcnmSvsWwcxuWZXaEQERBE63UhwyaCFNHZvPIJCI3eClC0wmTAIFAt1TLlahWwSz2zevOiupTaKbTEacWJz5Sy6JbFsIw1Xu6ejF7hgjG9gAJmmERuzX0XJf6zMDGKPYQVcbb10zKhDiTxRlchp4pqN8VyySqjKuyJj2DmMV+vKAGxCrYXAhllZuuaxfUMRevxij0oLXcYF41i2aZ6vhEaJqc89sTN2tgWcoa6FWxSyo2MBzfS1SdQLMMEFr7npBJTCwgznaT6V+C3pzCyOVVDb9cHq1VeV8zdGSuQKbUi8wX8GIfIRLVocLQkbGHTBKVSe3VMB1HPTCIrKoTZVsdYjcJXGS+iNM7OBNsnzu941y0bB4ZeuiOQxSYmPkiVu/ithsssgz8/dswugYwu4fwggZCV/EQidcAAVaxG6dvCM2wiGyrFbMX4g8/gSDGzObRcipm1nS62veiXigQE2I4DpFvYRdLJJkMwdheTMdBSokRZADZvo9jt4aZL7aLSWu2Q+ib2N19CMPCC2oYtq1aq+kGmULXgq+VC9nz8JQRWJdffjmf+cxnOmKxbrrpJjRN68gQPBRCCFauXAnA5OQk3/3ud/nzP//zEznkX0uk3yRuVEjCgGBsD/bQKjRr/oUuCX1VO+coMnH8IGa03MA09A5xJaUkiCRRIvnC7UpcLemxeMlZXdS8mP1TIc89ozhHXMWxpOGF1L2YPkP1+puq+tiWTtY58tciqo6120FM12zKrNhI4ewrGPv2JzB7lxzyyRo4bIDzwensR0LP5LGXrsff+zjdv/H6jkyvY0EmUgmrRFXDj+plhFBFQ2dj9S/DbQkss28JMvTRc10kmqdqWCURQrfa89L5IRKBQJg2SeC2g3/bJBGaYbeacGskoaeq4scOmpXpfL9sVe2flZmURCFGtgvhaUcULPPPQYzQNDTDRJiWsry0Ys0AkjBoW9mYJZwSv4lm2Jg9ixCajmZn0fMlourkUQksGYVE9Uk0K3PIGmcyCkC3Wg2Y9Y7zBpDItlVQyxTAaF2DTHbWexI00yJsVtH0CAwTEUpIEuUCQiAcVdRXidlukqCJbnR6CZLQU4tw6HUILJkkqh9ey4Ujkxij0N06jq/64mnquie+i2baaLqJkSuRtH43NNNqJbOItqAQrVpxUW0CmcToTgHNzqAX+1SrH0/1JZVJjN6yMgmhYeS62pmoIFUD+DhEJgmak1fXcZbVLPGbqq7Y4Eo00yac2o9e6EUzbYzSILHfREaR+t3q6lMtuppVtFwXMghUjTIZqRgoQFhZ9GxRjTsO0WyVtCN0A6M0SDCyE83OtL/vMg5BM0iGn1R9VpMEdB0hDRW/MKtzROI1MboHD5vJKHQd2XrQlMh2OZx2DatcCat/BXq2gGba6Lki4dQBNb7exer7aOfaYtKYZdnUcyXCqRGsgeUYhd7W9fPQTKed7BMjkDJBClXbTDds9X1uXSthmEqItrpVyNDHXrSWsDzSzqQWQiUFaJaNZljq+sUB0so86xtAnzIC66qrruL666/nne98J9dccw0jIyP83d/9HVdddVVHDayrr76a4eFhbr755va2T3/606xYsYLe3l527NjBddddx8aNG3nta1/7TJzKrzRRo6IWua5eotok3r4nMEoDmF39qt1N4BGWR7F6F5P4LjIK0A5j5ZJSqrirchM/SOguzPyY7J8K+Lc7xhirRmQtjWagyiy884WDZKxDuzX8MKbZaFDc/ROWGQVWDq5HCoN943VyjtUut3A4/H0q887oHiKul5GhR+70izF7FjH4W+9Vi/NJpPd5byYJ3OMqQNpGJmqBnm5nI1CxRHHU4RaxBlbgbr9fZScV+4lbFp3EayKTCBlHatEVYq6LKVGLup7rIqyMzRFYMo7VE3ISI1BWEz3bRdyoYhQ7rX0ySdQPtFTvnU4B1zN5kmZVjftYBVYcIjRTCQ+hodtZ1awYtQjLQLUV4aAyDkkYYOS7O8qGGIVeour4nPmb85lSEjUqGMU+4vrkIYNsZRyiOYXWAq0jmZvyPv05wjBJnCJyVh84GYVoutm6NupvPVMgiUL1mTIBTbl6oslhNCePni0STOzj4FmMm3WMQndHjzs1EQmYtvo/07eQ2tso9hA3ptCcPIhWeyYh1P2QL6E3yso6aPao/YXWEaOkZQoY+R5it47mqHm2+pYiuwchjpWLrDpOOHkAzXIQdrbD5Sh0s7Wgq9ZceqZAfNBDQBJ4GKWBdsbd7NIGeiZPZtnpyDDA2/cEMorU9zyJ0EtDUBlBGBZWzyL84W2qKGj3orbolVGI1jUzHrOrX1U0L/ah52YEbBL6LQtyrL4PlnI3yjjqaHZOq6TN4ZgWu+1rcZC7VwjR0bRaz3UTNyoYpUH1sHAIASOEhtE1gIwjzK5+9UBR/P/be/Nwuaoq7/+79z5DTbfukNzMIRMSxhgUgQBGxQFQBEXUoCj6dit0BxFs/SFKozSKiLboi69NOzUYfUQRW0UjSKNIC46AooAMCYGMNzf35tZcdYa9f3/sc05V3ao7puoOyfo8D5pUnWHXrkrtb6219nfNgTu4BywpwIUBHu8Ayw7oHaqc61RtVFTvQEmp/50pqX+Y+R6YGdOCtDAE5ZSif9NMGGCmLitQrgMlla5xnOHMGoHV2dmJ2267Dddddx02btyIZDKJ888/H1dccUXdcVJK+H79TpBsNovPfvazGBgYwLx583DOOefgn//5n8HHsRuCGBmlJLzMPhjpOUEvQBdebgDcjut/gB26Tsbp2wbOBYzOXvilLLyhPohYEtKt6OLxYf/oPV+ib1DvFAybIlccHx0JG798PIN7/pJBb6eJfVkXFU//Ayw6EqZgeO8reqviqn8r2ON3A6k5UHNXAUuOg+QWCoUSep++C6p/K7qtBIR4FWIxC4fNT4MHPQTH+mUUtgVJrDoesaVHw88PRv36xkqLDp9D5ZQPeIs4M0yICWyhHmEwwRe7/oWvQ/QJyEqpzgYgtuRIZI2fI7bsWOioAIeIp4Jf6T7g++BmDNIoVhehcJy+rkUxOnvh5/dDek5d+k0p/StbSV//GboWQ5bzkG6l/te6lIBpAFJ/BpSvBYSId8ANU5zjiI7WTYGnF7HQl43HklCZ/prnnaYLM3wvWvRDeDwFnuiEVxjSW9yD4vGoDZTv6TSPWwGPp2B2zQ9qpCpgNVHfUKQqz6sKhqCRed28gdUJOWUnAYNp7zjD1Au3aUMku8AH90A6RfDu+bp+TklAMjAmdDSpnIeR7tWRjaG+OpEonTK4GaSKhom86vsXNkxmkUjihoXYwsMBYUAWs/DYbp1G7tT1WjzRARW0W1FBuru2+JkxBqNrnjYVDt5XxpgWMOEGRKZ36vmlnG7kPExgczsOr1KMhDz4sEinUmNEhEyAG1WRIATARF0UXqS6gn56+yDsBJhhgQtTR3dqflAww9S2JMNFjzD05hDp6YicFYdUZd3xIphjvzCkTU5jIxTd116ryXsxEiKZhjVvGUSqa8zvQJHsBLdiUYbC7JoPv5jVIjnRoX84CwPKqYBxHbVjhgkeS+gfQEo3fJe+r79zPA/MiuljrBj8rK8L6Lmoeh8mOuAN7AoE28xfv2eNwAKAVatW4dZbbx31mE2bNjU8duWVV+LKKyfvAEw0RzllXZNgx/WiU8pDVorRr7/Q/BO+BzerixO97CCUU4YbLFp8+JbgwCh031AJtinAOINgHOmEgT89V8BdjwwBAHYO6gjC4fNtvPWkOdibdTEnZWBhd81ivuPPYIUBoDAA1vc01FO/gjf3RegpD0IN6V1n3ClCFrNALIa4bSD7yC8w8MRvkH7JGUgedUrzSIL0UQl6rdmLj4DZPX/SnkbKKWs/rODX9YjHjREFaQlKgRkGpFMO0nyG9hob2AWgKrCM9BwseMc1WlR7jl5ArLgWVeWc/h63E0Apr1MetdE86WvhEdO1KbKcj9JvAIKaLwPKLUdfrkayC9Ip6WLpmoVMAWCcRYu59lOzwaxYdSwjIF0HQHUx9Ut5cCsG5XsQ8Y7ofWfBr2SllN7VZph60R9umMhUJMqih7hAbOFK+MW89imSPrz8YCR4/GJW//JPdsHomAOR6NBtZrL7wK0YpOtoPy4lgzStqhEWom7nLKQPJkS9wDJs8LgNv5zX5r2uo7fhWzH9nrgVvTiGJr6K6WLlWALW3KX6hwLnYHZCR0eDDQt+OQ+zZyGEFYeHehgDGDiU8oL3SNWJnGpboASYGYNfzEQigTERtRYNN2sMFx8i3hGNoxncjuuOBPv7mh7HrbhOvTFAJNLwSzktaIMfOCr4wTAajDHweAre/j4oLrRQq/lcMsZhdi+Akr7+d8C53kHoew0bO5ptIGBcgBtWsFnIBzNscDB4Fb2bWhYzYLZ+j8aK0Nam0Ie/F02P52JMv6zaeaj9IcCtGKw5S1BxnoWId+holTDhlwu6YD34bOqU6WDw5w4dUfQqUJ4Do1OXIzDDhILS7xUXWnACEHYCrgyi3BMLTk8Ls0pgETML6VQgy3ko1wHiiJq0Dv/S4LGk/mUztFf3RUvPibxban/5eb5EpuBg31AJqYSli6cDntpdwvd/p+t+Xnl0GsvnWpAKWHNYAoIzzOvUX9xSKbiuhGVysMB8z1twNFhmD0RpELE9fw0GpX91qkoR3uBOoGce/HIBub/eD/geMr/7MZx9O9D98rdGr8cvZnVLG8Z1ajOWPGCnYRXsqJFOecQIlPI9uEN7YXR0N9YstRAFAExvu4bvAdyASOni4+HRo1AYS88Bj6V01MeyoQpDAHRUQcQS8LIDCNNr4V14UDvBrBhUobplXkfNGJjgkBW/7stVpw0lamFMf9aUDBZzz4Ho6A4ib3H4+f16F1sxB57oqPtc+sXAe6vT1sdUitWemLWLRlAjhCDaxOwkRCypi63DcSsJoLkJIxOmrkHq6Ib0HPjFXJTS1MJpTl2DXpHqgpfZCze7D1wYMHsWQJYLeryMV6OBjNfFjrRoqC5E4QSJVA/U/h2QngMFCRFL6tRnLAVVKWlBypiO6DAd4WBc1LU2EckuOP3bg3SiAy4MGKmewFi3HgVo7xRPBnVYrKlgYUKniZVTrhpoch4YMkCLAtb83LHQYpQ1RBTD+0L6QXF+QkdTChkgTO1CC72xEFYcnpRBiUMH5LAfP9xOwF54eCTUuRWDlN64SweYaUOVcjoiaBhgQaRNuro3q917WFMT3Aa4/pyEEc6J229MDJHqgjlnEXhgVcHtGLyMo39AhpHM4N+/fm12EFUsIPxuAKDT9ID+Lgpq1gCAmTG9bggb4G7D/WcaJLCISSPdso4sOLrOQ5byejEahv4VJeGXcpDSh2nakBV9nhHvgJQK+4ZK2J8vw3F8WJZRJ64yRQ/f/t99kAo4YWUS57xk5PB1oeiBMaBQdtFT3A8GILfgpZh70gqkM1vgDe0Bt5OwF65C5rH7Udn6KLyBncDhx6P49B91qifeofvGPfswEitejNhSvTOn8PQfo9QgoPuuTWQLe/NJlHoreCELgea/zJXUC6MsF9oqsLRgYUG9h6+dveMpMDsB5ZSaptvC4wBEO7V0+sgEtxNQ/t6aY71AJOjrcMOqSV8gilhBBI/XfLnywPum6aCDx5WU1QiPGWyTLxd1+sEpV6MUQSF7dD0pg0J0FhTp1kQjgkJ36Zah3ArMOYt0yqJ2DL4fpT9GnV8uACHqXvPwqKSId0CkenRUONkJHkvBzw2gvPMZvTCFr4/z+jFIXxdDD1/o4x1gxYRO+aW6o3pHHkuAFWNBmswAPE8L2CaiRkcjDP1vvVLSu/JiSchitm4MoaBinEPKwDw0cPJuhoh3QJYKNa9JgEHpz19QXzeZf1/ctGHNWdT0Od12y9C1P6YFEe+Alx2Iasy0QBxbYDEzBjAG6VVgxBeiySez7juKx5K6vq+JNUnT12DFokgb4ybA9KYBWc7raGeyc8xr6DEEkc6gvm48JqEHAmOsrt0St3QtZu1GJ2bFwIQFpvS/V2XHqy3QAgHKhKG9usKNAcHngFu2FllWEqP65s0QSGARk0YGW+j9Uj6qJxnpC4TbSfj5QXBTCwSRTOtdMQAGMiX0DRZhWwLppB21uFFKYfeQix/+YRD5isSibhNvPaln5HYOUsGTPhbP6wB8F2VHh9STPb2Y25WAMefFAF4cHW/MWRIJLCVlTcPgM+EO7EThyYdQ3PpoJLCcvm0AdANVcIHUca+c9NyFKCXBefUXatMQfpAugfKj9FJ7YPo/BijpQVjBwmeYUJVC81OU0gsWEP0/uBGkPG3UrsDKc6L6FX28qH9eeoAwIOw4PKXTA8yM6eO4GBax0UXQjAvIsIiXVcfAhAkwvZVdpLq0+A8ElnTK2u06aLqsFzKuIyrZgbr51TsC43AHd8PsXgCjowd+MQ9VO27fC4Tg2AKLcaNaSwM0LOZMGIgtflHdYyLZpeu2GK/eg3EA1XrBUOg2q+ex5y3XadtYqiaiEgePJ4JogKGjcIrp9214Wi7RAaN7IZx923XaP/RJCmrKoo0MgaBC8GcVfm5HECwikQ7S0sF3Bhf6XCX1hgve+uVJ19cZetHmAtyMBT8qwkJwNq6NESz4EaFcOeIu6Vq4nYh2Ro5rnMLU0VTGgp1/AsE/TIiO0Qvb628cRDql1JG5Ka47ZkLXM9bOETcsHTl0K3oeHat6rFEjsIQB6Tp1Hllh5FNyCySwiIOCZkXfoaDidgLKrWjPFM8BG6E+glkxMOmDxxLB9TiUYFpc7S8ibhvR7j2lFP7yQhGbHx1Cf06nfyyD4aKX99ZFtoZTqnhIxEx0pSzIbAZlADBsLFg4B0aTgsiwXY03uAvl7U/qFit2AomVa+F2zUPhyYdQfv5xSNcBMww4/dp9vfOkcybUFNYvF/R2eaXA48n6KJT0we14EA3UlgRgvP5LW0mAc3ArDb+Ur0vftBK9zT/85ehVw/WG2ZCeq56kol/F4e42GLpIl5sWeFBsHhbPy1AwAXrLfO2lfL1tOxRmyvch4sEX7vCokQoWc86jiFCtYGGG9gxiQkDYCch8TSrSKUOkuqEc7TukLSH0tnnl+w22IdxOweicB6v3sCDVoe0MquMOinPHUSPHTAvKKVaL0schIpgwYHYviCwr9KC4TsUpCTBRJ4iH06xPoYh3BJEBFgksphojaiFm93z9/jnl6HpaMAbzL3gkqLhhw4cKxsZHFCxMGHVWJiw8Ntiy346aQyb0DtHQuoGZtn4saCvDgv/GvI5h6WJ7pfS/VW/0JsZGqguYwL9bHb0LIpXCAMINDKY9ag1aw3WCfzfVTQNTW7jEDBM8nOMaeDwNJop6fIHoZcHGCSD4HHLd33W4gLXnHQa/WASwc6pexqQhgUWMipcfgl/M1DVHBfRWYuVVgu35uohXSh9ihC9FxhhEPIVi2cWewSJScRO+VNg3VETMrIor11f45v178fddQR88wbBqvo1XH9sZ1VnV4vsKuZIDzhj8UhZd+x6GI4+K6iiMjh7E7eaRBdE5D4pxwClh6Lf/DQBIHvEyMMOE2XtY4EA8gPILj8PsWajTTIY57rorpST8fAZMiMBTRsIb3KWjMqFTMvSXtUh2wul7QVsMuMW6LxUV9Gkz03NRLgy1tFdWLSwYCxMGlFuKvhQZr/eaqnuNgZUDUBMdCOp6IMxo8de7mXyd/gvvF6YBwtcjPTAzFT0O6VXroWrrc1CNYHHDggdVk54S1WsLAyKRhkh1w93fF0WqFBREPKm9iqQfpaNELAm+sHHnmdnVC7NzbnXB5wJgurheRx49iPHUwwTzG4o6XZQ+vgVvuKcaY0HqLXxfpIwK8sdL7VxBqcgHbaRjrblL6qOsQcQp9LxCML/aOkOPCaEIHg+cR/OqlNJCvcUwYUDEU9UfDyJ4DdIDgzFqxK3uOkGhu6+kFuTexPtKjjVOJrShKUIha1owOuZMTHiyIMroe003DbQbJsxAxNaP2UzPgVI6Ehd9b8SrEVYIQ6e8GZvY651hzN6RE1OCrOgC2+HpK+VWdM2LYcGXUkd5MPqiL6XeIZgtOMgXHUAByZpidikVvv2bffj7rjJMwXD6MWm86ug0bDNYSHL9kPEeZMselFKwTIGK42NOZwxq33Ngj/43fKeAzJ6nkQo60Y+2I4YJAzLZA5HfB1nMgsdT6FjzKv0cY0isWovcn+9DceujiLs6rWP2HjZubyXdiiMOe95hut7ErejC65qO8qFPkJHsAuZ64HYClWGNlRFsfed2AjwSKmP/052I0ab2mwm2vAeprKiwVBiRH81wwpobAHpMTFQjdELXHCnfB0z9OmoXLybCCIh+Pcr3dZ1RIDykUwEzwvRjtT6HMQYoXQDPDEurVCnrBIveDp6E6OgJapdi2lSScXDDBk90AkP9UCrYCm6movs0vMbhabxwwQuK2/W4x+cazw3tSxQKxElHFGrTcwAABT7J1HF1p5kc9XPFggL46t+r6UAgEL1CBNHD6g+D8X4GWZQi9IN0Y3uWJ6v3sOhHAbheyPX74Y8acRuOiKWqQrfFhHYQOi2s59Ds7IVIdk3sOmFELuzZOQ0RLGY1tsVihhmtFsywdL1nrYUFY+CGDSmEnodZyuwdOdF2tN9KFvCcuq3MgK5tCQUVAwu264/+ccoVHWTzDrqSNoSoirHd+x388okstg846Mu4EBx4/+nzcHi6BPgFwOwA9jwJ/sidqCw+AanjzkDcNpEplDGvJ4G5CaD/7u/rGh8AfmEoqpdq1oG+Fj85FyKvd4R1nfymOj+q+KrjkfvzfajseAqyqLf82/OWj2/yoFNHRnpuFNLnpg0jPQfOvp3RfcK0lkikIRJp7Qhek1bTB8ngyzFYVKXEWBudpFsOdsoxbQUwhl9O2GaHGaZeJGW1aLu2oFopFfh2hV+GqhrBCsP8YaFqEGGStWaXtV/wYW1V8HrCHVMIf7kzVt1NVFufw4IFkfOgZggNgoUxDmvesmCx13Yh2gVcwuzq1eMP0lsq2PY9boa/DwxgYpy7w4QBphClJSf765wFNVhRgT8wLtHd/GI6qscUJibSuIgsHgAEUTQrqvthE03zhdEupepcx1tNnUgMF/JyDlGB/zgjbkZHNzCReqiJEKbbWVXUml2TsIIJo4y+B25OvfM5Ewbs3mWj1o1qs9MFDbs+mWXX/dCbjcx8py5i2lCeA+WWIT0HMojgAEHqq5irLsCGAVkpjLhIKaWQLTroGyzCMHiduNo+UMHNv+jDn7YWInF14WlzcXiXB/bAV8EeulV/ge95CgAQ6/sbFs2JY8GcBA5f0oUFPQnITJ/eLp3ohBF8CZVfeBzA6BEsAPC6dS1VfMUaxJYfV/ec2TkP8ZVrAaXgDuh8vzV/+fgmL5in4aaFui+apXelRXU4w3yCgnYetdeJogdBsfuY9/Y8iHga9rzDqrVGow82+LUr9I49JmoKqkVU1K3civZy8kOfI1QFFuNBj76aHUOmpd3dgwhZfQQrSMnUOMdH27mDX+1RFC0YW7QDT0odzQuL38OIVq3zd5iqBIKebA5EMg1zzuKgPsvUaUMlJyQsosiN8iND1rF+XFQHpedShSnCyUYUQjEga9KjkxVrnIOpwANqAtEYXTNlVH3IpK+9j7jQP7qCtjkTu14gnhWmLJ0V1hjqlO8BvCetHBPT7aRGMz0d33WqKcJxf0ZbzHg25Rgd3Q2vlQflCrNZYM3ekRNtRznlICrEdXolwM8NQhYzUbiaGbbuOJ+o3zpcrHgoB/8N5ipgADoS1X9su/Y7+I//2YuSI7G818bpx6SxdI6FroQBbP8zmO8AJQcyswcY3KHv5ZUh+54BDjsGIvil6e7vAwCYcxbCSHbDq+ljNVYEy+teiq6zL0Ni7qKmv+661r0JTt+2oO8ggzXvsAnMIBq3zdsJMCuu67mC3YO1RbVhzYJyykCoV4NUSxgxGFMsATrtFUtApOeCDfXrCKMVg18u6HSjOSylFQqg0EbBd6OISF0ES/qBMNHRG+0bVJ03e9j8MMOuWi5wXrf7LhRQyqs6x7NIWJmAcKpRjLDuKUyJKV9v9Q4KzpWvbQpGSoFwOwmjqxfW3CXRFzk3LHjlAjBRcRJFblQUaRxvBIzxmvoy4wDc+8N6JSXBQpuIyaZSAgHNVPMU6ainGrpeD4D+IWSY0XsVtkWa2FBMKLe62WMq4FasWuQuWts4+EBoiSVL+GNgKoyKW8xI9VuzCYpgESPiV0ra708YkGW9pV1WSnD27dSF2sEHn1sxmN3z676ci2UX2/uy2L43h8FsGXHLQDppRYtxoeLj27/agVP4YzhurouLT5+H45YmtLgCwPq3RNeqPP9XiPJQ9PfSlj/XjdMbCgRW1wJYw4rxx+NKLNJzR9w5xO0Eute/DeAC1oIVo37pKd+DO7gHyveati6JrmnFgqhOsI19uAiLJeoiWGELG8ZYUIM1tsAKLQ64YYHbce2UrJRu4hvYa9QdHxo7Bp413KoW4uuUSbCVPRR7KtiGz0ZPqeiaIxWk9BoFEDPMoObGr4tYccMCaowzWZj+q633GbaYc2GOmAIRsSTsRYfXpYB1Hzk/cO8ev7CojbSoQIiOdxGI6ss8d1xNzscaA1TV7fpAIlhA/YaFcZ8rqjtMVRAJjObH9ydcF8YMQ/eZG4ejeqsI7UL0ZoeZs5gb6bkNjdYnio7IBUJ8ltUy6dose8rrxlrJ7JpxYkqRpZz+ghQG/IruVu/u3w3plGB29tYdWyuuyo6HXfsKcD2Jno5qpERKhZ8+OoRM0cO+nIdj/CfwxsSjcBf4EFa1qSqkBPZtjf6a2PNnfQ/ThnIrKL/wRJ2zuLt/DwBdozBcYI0VwRoP9sLDseCtV4KN8YtSurooO2wfw0bwRopMBCMvp2HO92asLkqlGKLFhgkLUCN4UtWg05M6qqJbU+wHM3QvtCg9WStGVHUsPJas25FWtx1f+ZHA0up7jFQON3SYSwaNl4cdykwbqpCB9Bxt/hhu07ZsoFIjGoZH7+SwxdxzxnTJbvCICsQfY+OzS2g41y0DEtolfryLQFgT47kNbaImCuMCSjn6syQahfoELhTUU6oRf2iMeKph1jd2FkZddG2iIknvWJV1TaLbjtB2IWyCKc12M96NE2MR2Ty0zT+vPfB4CrY99XVjrYQiWERTlOdCVopgpqUXAs+Flx2AlxvQO95GwJe6UXOx7CKdqF9AfvtMHr96IotHthXxwoCD5aZufWMUB+ovktkF5pahwn9YQfF6fMWLIdJzoXwXg/d/B07/C/rpIIJldM/Tu8ZiwY4wO9GyLymR7BqzHkJ5rnY9993qtugmix4TwQ6acAFqiOpYqN2QWde+YzRPqtprAJFoCFtTyEoJ3I6DG1YUIZOOFluhwALjEPEOXcAbXSwYYxiJEkHdzTjMC6uOzH61eL0GbliA70dNlKvWAUF6IKrvYtHiCwT2FmGqjrEgVTfBaAk3AsE4fruE2telI1jehBp1awFiBK/nAAVEKHSlB27Yk1+IQk+tMaKRzWDCiBo+h62Wwho1xti42s7UXc8w9Wcl+CxOBWHaVrXJe2vaEaZ+f6fYZPRAme0WDQAJLGIEpFPSOwcNO9hC78LP7wfk6EWLQ7kKhnIVpBP1X/j5so/Nfx4CoNvdnLa6A6uTgfljcTA6TimFyk5d0G4uObouamTNWxbZKFS2/x39P/0KSi88rk1OARid83WrhiCKZaS6IZ0S/GIWslKK3JrbhTbnjEF53qhRBT1/gfs2NxoiK9wwwbloWkjOayIGIdJ1omPr7hOm14IO9cr3tI+OaUO5jt5pmN8PFUS0MEKKSAsBBqX8aqoh2OmFMWplQvNR5TlNIzaRm7vv1+105HYC5rDoY220BAxVfyDGgx2IE/yFHu5MnIRdgu5pp6N4EylE1mnQIFV6gCkbHcEKirNHMBkd13UYD1qqTFz0VY0sVRDBCl8bn5gHVkiwK3G8hp+tIDLInYCtyWyCBf5XExW7xIFDAotoil8u6C9Nrn+JKgB+KdvUFRrQBe2D2TL6h0qI2UbdTkGlFO56ZD+Kjm53s2HdHLzl+AQsRwss5hRRzOeRyTsYzFVg7dfpwdTyY2AvWBldx5q/DMkjXoZ5b7oC1sJVgJLI/P4uAND924IUkb1gBQDA6JoHv1TQHkjSh5cbrBNZslIELw41vBbpVrRAmgChQNFf0GrUqIJuH2GMaG3BTAsQZhRl0roniOSENUe14y1m4Nc1TQ4iAGE9k2mDWXFdWxVPgcc7tPt+qaj/HAgF/UXcJAoSRtlk2Lw38KFSEgAbPUUYbDVXbqVpL0PwwGOL87omyyKegjE8DR14SFXnpLqYhzvaJkK0i28SW8Gj9jKMTTxyZphVoXUARK7nwe69SRNEASPBOaFBhLs4q9HYMG3L2MR35GkRoKY0ghV+RicjtGcDoXXGbItgHQzQjBPwMv3wS7no79r/KhMJFiBIM3GzaZQgX3Twwm5d0C59IGFXF6uyI3HrA/vwhy06ynTey3ogOANye+uuwQr7MafTxgK5FyK7B2AcscVHwF64Sj9vJ2Ck9YJr9ixE5wlnAdA7GgHdyiMkedQpSJ94NtIvPVM/1zkXscVHQMQ74Of266JrJSErRaggClCLnx/SLt8TwddF1jo9yaA8r04w1L1WI2wD4TTdfRb25NLF8lrERF+OXEQpGSBsgaF9jMLXoXf61Rs8imSnbh5s2hCxZHCeCgq9vUhgNR8wDwplA38iJrQokmrML24WODKrwIKh8flgQTasMdO5jBuBb1XV8yoq9haTSG9xIxI6k4ncRDsIx6j9ajjXtKu2EweA3iAQWBocQColsp0YZx++4ecyoBqNrUnx6rTUBF9j9HmaupRW2ISb8RakbWcg+kfyzLCfONSY3QlO4oBRngtncA9ELBE1g1VuGapSBKtp/zGaUWWu6MDx6wvaAW0g+l+/7kc2V8LGjl9hYUohOff/6Ccze+qOnWsW0T0ngf4H/wc+gOTqkyASacRXrEHhqd8hvnxNXXTFnLsURtc8eENaqBk1JnxMGOg4dj0AwMvuAxgHt+Ow5y1Dec9z8HP7A6fvhP7lXuNSrk0ngzqQCRAWaYt4B5hhwi8X6gRqHdwIvHf8EaMf3I7DqxQC9/NqlKihJ1+4RZ9xKFdbMaDJrjKzc25Uu8WtmC4Qt+Lgpg2vXNBBsRG+gHVjXwPwAnNZxoJUXXXn4UiEflOM6UWs4fkgzcdjiTEjQZGjvKr3K9JpVjGJCFbglD2Z4t9A3KGmQe24TzUs+E12j04YxiJ3jQNKN4bRoprNFOMmEGeyUoBIpOsaebOwHmtCQxFRXd9UCYLQFkSxkW0+ZjPR7twpbpNDUATrkMcv5XQ7nMIQZCWwYigXIf2RdzlJqdC/v4hixYPjSWQKDhJm9QteKYU/bMnjiz/fg/25Ci7pvB9HmHvQUekD+p8FALBsvcAyKhmUtv4F7sBOMNNGx/GvBaB3wM0/78NIv+R1dcczxpA4/ITo77URrFp0/VJgNhlLwl6wQndyd0rg8c5GgRX5xYzevLXhPp4LYSd1LUwgeEZa8Blj2ocqauTaCA+F0vBC8nAXWrg13ncBYYLHk5BOOXis3vIA0BGFsFaImTaYlYCRnqsLtKUMCnxHXlzCGq4w8qKgqsaMY3xxc8sOokRNXqswAGGOq4FtVO/ju3UCUkfrJlGzE7TymZRdQlAQzk1rcnVLxsTPa7gO42Co+odN/kJBkXtY6D6hU7WIUp4DI9Vd/RFkmNW040QIU+BRVG1q0AapUyfqppSgXOCgfG0zHBJYhzBKKXj5Qe1z5Xm6iB1adI22aGbyDnYPFLB7Xx6ZfBkVx4dl6eNLjsR//bof331oAI6v8J65j2Kl2B2dy3Y/of+Q1Tv/0LkIgI405R67HwDQcdwrIeKpMcefOPz4SDwZo7WRqHktIhBZZu/SwMKhptUHtMCCYY5bXvnFDPxiBsp3dRSGcW0mKoxRIyPMilXTW82eD6I5VX+qmghWjfu58l1wy9Y7O8NCd+mPmrZiXMDqXQqjoycolFZBpGyUPnTBRgfd/8/U+lONb1s/M2ywESI2TBh6Z+N4TBWZNipVbkXPdTi/oR/WROuogujaZOqXosLhCewgjOBBWvFAFzzGowbNB5QiDHZosmB344QIBD+34uA1IpmHuyUnXINVU781hdvzmWVHovmggwc/bg7G1zbDoRThIYxySpCFLLidBKQHLzsAxoWuvxqhHqbi+Ng7VIBpCBRKLqSvYBr6y1AphU2/2Ycnd5YgOHDmmi4c27cdqABq1SlgWx4C+p5GZiiLrlw/ACCxcg2Kj+5CZdezkMUMwDiSR60b1/hFohOdJ78Jfn4/zDmLmx4z3Gkc0DvUbDsBL5tBsAWq+qTvgplJnXIbx64i6bkQsRS4UmCBOzq3E5AiM+qix02rWnzabNxRH8JhDWhFvaO58rRNALcTgQeXG5mMjkYkYEOfqtFqsKAFn/K9IKUWGMaGRqljwAwDGCFiw7iA2bNwXFYHYb2P9FyYNV0DuDDg88nVmHA7PinvI8Z1apFPYveeiKeC2rMDFBChvcIBmIyG6OjlxMcT1m+JREf9d0ZYxD/RKFRQcD/V2/N154CDM8qjP6sTT9cSBw4JrEMYv5SH9ByYyU4oZULmB+HsfQHMMMBi6YbjPV9i7/4iKo6PrpQNKQ3kig46Ar+rXz+Zw5M7SzA4cOnrFmBZF8Be0MXiatWpwK7HwUoZdG5/EEz5gBlDcukRKD56txZXAOyFqybkK5QaRYxF/e9G+pKvdSgPz/F9CNOGEqUo1Tbi9YP2LuacxYBSkWjhpq0FziiLRFjIPmIaMfiyV54XtICp2UXIa93ctU0As+NgVkIX7is1cv1Xw32CvnFjRKOi9KEI6lWgIof5Me8RbI5QIxw7nvQggChawhjqI17RL/SJL45Wz6LJ/bLnAsywwY2JCyxmmBAtMH3UW+95dTflgVwrMKOcMFyA27GobVZ0PV4jxCcyjvA9nmKhw4ShI5kHo8AyrKAk4eB7bTMdEliHMH4xE7WyYIzB6Jgz8rFSYvdAAYPZMjqT2n5ACKCrw8ZfXyji91vyeHKn7kn2ppf1YFmvDQztAgAoOwWYMXjzj4K57XfgL/wJABBbdHhDK4jYsmNa9wLVGEXY4XO1ESylwGNJ+KW83l2HUYRKEOHill234HMrpgXPaOIj2H02oqgJ0l7KdyPHciBMEWoPLRWMWy9kHGbXPJR3PxsUgY+3dYuuX1KuM/puwGAx54FnUNUodez7cCsGkUhDHagICKNUwgC3axpKc67nchIRocm6WzMhwExzwjsIW0po6DnJ115/LWNSEQ7GOKy5Sxt2zHIrDpGchO9cuItwil3HuWmDx1Oz2jV8JLgVa+hwQUwNbYsZ/uUvf2nXpYkWoHwXslysa4kyEhXHx67+PAYzWlzVelz9fVcJ3/x1Px7fUYJUwMtWJnHKi4L0U36f/v/UXEilkO9+UXRebNmx6Dr1LXpHW6xabxU/rJUCSwb1JSOk4RiHYjwSWGG9EzfswO280byz/vLN3dq5nUBswYpR69jCFOFIO9C0vUHglTXs+kwE2/NDO4ZgMRKpLohE58QckMPoh1JjtLwRwWu1ol1n40mhAjoNZ42Qwp0QQfpIxFJ1aT1uJ8fVc7KVMGHCnre8NQ15JzuGYOffWOng8SBiKV0qMAm4nWg0y40lYXbOm/C1ws0hfIpThDyWbM1nlCBqaNun+O1vfzuWLVuGc845B+eccw6WLl3arlsR40Q6ZchyHqJjjm6R4jngyc5RzymUXezcm0ep4jWIK18q/PhPujD+xcsSeO2xnVjUXW24ywKBJZNzkMk7SM5bio7174BpmYgtPTo6zkjPhVPOw+w9DGKU8fjFrN6tNN4GqCo0LBzlVymrKXIPfY0MC8yOQxWzo19eBjvvJrFFngkT9oKVI/5iZozr7fy+15BqZKYFVcpDeW6dTQDjAmbXfDiy8ZyRx2FUd26N5sgeHBNG3fTOMXdK6zrC3Xc8Ub8BgttxcHvqhc6093bjgRhpQRStrjXSNMPNkWsTCWI20bZP8ec+9zksW7YM//Ef/4HXve512LBhA7773e9iaGioXbckRkFWiqjseQ5O/3bIShHSKWkLgFEiEL5U6N9fQsX10d1RFVdSKuzLufjVE1n0ZRxc1PEgLpzzGBbXiCsAUQSrZHYinbSwpLcD6cPXIn7YMcM8rZYAABIrX1x3f+V7cDP9VQNNz52Qe8J4WrmooM1KeD8EESFu2mP3/JNe0C9vcmmFsc4LfciaRrCkr20TgqbSISLVCat7wbh7MEZ2Dnx0P6uwLoaFO/YYn1Qz3wOCC/BYEiI29g7TQwKmU2kT9f+a6TAzNqOaLhPEZGnbv8w3vvGNeOMb34jBwUFs3rwZP/3pT3Httdfi+uuvx8tf/nKcc845OP3002FZ01jDcIggnTIqfdsgS3koJeEXhnTrkjFadeSLDnIFXcQeigGlFL76y714arf2XFos9uMl5hZg2xYoWYE69qzqQl3QTZytrnlY1JuCZTRfjNMveS3sRYcjtvTIuseV52jrAd8HDA5AQU1Ey0RF7qOcFLYbQeCBZcWCbe/mmDW/yvcn56E0TrhhNd1RFbZpUW4ZZro+NcYYH3+ELzzHMIPGvKNFsHhUeM+CFCHDxJv5HgiMMdjzl0/Z/WY6uibOnPUNcYdjzlmISRXcE8QMo+3/Mnt6enDhhRfiwgsvxAsvvIC77roLd911F6644gp0dHTgjDPOwLnnnosTTjhh7IsRE0YpCXdwN/xiFkZ6LmSlCC87CDCM2qTW8yX6h0owBK9LC/5hSwFP7S6DMSAdE1jT5QMV/Rx74WGoWAfwopdrsVLQbWzmLFoyorgCdEFs/LCjG8fu+7plTGhJoBDYQcgGMaA8F152H4z03GrqJuwVN2ptUTVFqKQHEUWNzGB3XeO9onsqeWA94MZA9yw0G6KMTOhdhCLVDXNYv75J3ce0AYxh7BjYEkSNfEPPoIOwKHjWEJiktlPkTwdjGdcSxGxhSj/Jtm0jHo/Dtm29LZwx3HfffXjXu96Ft7zlLXj22WencjgHPUpJ+NkBeJm9MJJd2kHcjkNWCoBbGbXFx1CujELJRSJe1eCFTAY7HvsjOCTOPr4Lnzx/CV63Wj+vgjQF2/kY8iUX2X39YEoCwkTH3IlFVKLxS08v6kGqTmf7eI1FQf2x3E7Ar62bGk8NFmqK3KVfdTsPzRtHaZnDgLamMnQ9WBODQG7A6JwLe35riqxDF+tR031BOxHGg5YbYUqRFsNpgzEefAYOvMidIIjW0/YIVj6fxz333IO77roLf/zjH8EYw/r167Fx40a86lWvAucc9957Lz772c/iqquuwh133NHuIR0SuNl98Ib2QpYLuqYhsmPQxdPSrUCMkFqoOD4GsmXEbAM8ECcDORdDv/kJ3mpvw1yzjNOO0o2UUQ6aIs9dAex9BigMAm4F860iHABmV++ov0j9QgbK92EMS3UB0ELKilXbwgCB87hsTCAopetRoCBdB9y0dG3VWC03uEBY2MVQTcdFDZmlB4ZRHNnbmJ5hhgkmrIY0nEh2BmaVrbk3C9rVjJ4iDKMlVtX5e5QdmgRBEIc6bVsd/ud//gd33XUX7r//flQqFRx33HH42Mc+hte//vXo7q7fsXLmmWcim83i3/7t39o1nEMKpSTc/X1QlWLUfLgWnkiDq5GrxffnKig7PrpTOpqzrb+Cb9y3E59IbQcYcFr8GQimBRarFAAAsmMeWGY3eCWPuSKHWGkIDgBjjK3a0nNHCTCpwFHd0xHP0DRUNkaVQjElOubAHeoDN+dG1gOjFpMzhrDeQxfFB2KGG0F7mOZWDUr6Wry1s/4ltGAYJmIYY629b+S6PUrTZi7q6p8il26KYBEEQTSlbavDpZdeioULF+I973kPzj33XKxcuXLU44888ki88Y1vHPO6W7Zswac+9Sk8+uijSCaTOPfcc3H55ZePWSy/f/9+3HTTTXjggQcwNDSEJUuW4J3vfCcuuOCCCb2u2YByyoBbbiqugGCBHmExLZZd7M+WkbTNqP3ND/84iOXYBYtpYWNWMpD7tgK9q4CKjmCVEUOsYz5QySNe3gdnv27mbNTUCMlKKejBV3NvFv1P4+sAqjVSSgZtQXjz3X1KgTEBI9UNb2hvtb/eGAJAMaYbFysVpPxENEfMsKC8SvPzpK+jOO2MYIVmpG0WMfp1NAq5Uc8RYWE81WARBEE0o22rw2233YaTTjpp3MevWbMGa9asGfWYTCaDiy66CMuXL8fNN9+Mvr4+3HDDDSiXy7jmmmtGPfeDH/wgtm7dig996ENYuHAhHnjgAXzyk5+EEAJve9vbxj3O2YCslCA9DyI5sfogXyr0D5XgSYmUpc99fEcJ2wccvDy1AwCguACTPtjzD0P1roIs5SAAdPfOhZmUKOzbAndwJyq7ngaAyEFYeg68wn4YrBssqBsKW83UtqoJ0WlAvUtNKqktJZgI2sc4jYNXstpQOOyTB1lt8TIivMaVnNe1k2CWDRW08GmcLD+KcrULxjisnsVtdwtnoenpBJzWmQhrsSiCRRAE0Yy2rQ4TEVfj5fbbb0ehUMCXv/xldHV1AQB838e1116Liy++GPPnz296Xn9/P37/+9/jM5/5DM477zwAwLp16/DXv/4VP/vZzw46geVXCpOqjcnmHWTyFaQTOjUolcLP/zIEBoW1sR2ABNSRrwZ74hfA3qdRyWZgBSnC9Jw5kHETBQCl5/4K5ZbBTBv2Ah25VK4DYcWhaorGVWDsiWaCyfcDfyZd1B66rOu/Nyk8V0rvqgr7mAURrDFtBMIITI2AC+GG1bSgHggiWEbjDr9WMxUGmty0YS9YMaFzWChkKUVIEATRlLZ9O950000499xzR3z+TW96E7785S9P6JoPPPAA1q1bF4krADjrrLMgpcSDDz444nmep+toOjrqm8qmUqnIZPJgQUkffjE36g7BZlQcH3uHCrAMEdkyPPhUDrHcDpyZ/CtsWYIybGDZCVDpBWBKwe3fBuHmAeiGveacRXoMrvbIii1eHUV4lOfoyFWtOIocx1nD+6BrnAS4FQvSfT7AOLjR3ABUhRGswDpAhaJsLKEZ1GAp6UdmmtFTNQXwDQQmo4csQf0ZFbkTBEE0p23fjvfccw/Wr18/4vOveMUrsHnz5gldc+vWrQ21XOl0Gr29vdi6deuI5y1cuBCnnXYabrnlFjz77LPI5/PYvHkzHnzwQbzzne+c0BhmOmH91WgeVw3nKIV9QyVUHB+JmBZET+0qYf9fH8QH0/fgTPvP+sDeVTqFltaRwo7KXm0ECoAnOiA6euqEXeywo6o3kVLXNMnaCJZbjYQ0E1hCaAuB8HnOwS274djgRehi7cBlHMqPHhsVxgBWvV+dIONGU3klXQfScSY0xwcbUbSPIlgEQRBNaVuKcPfu3TjssMNGfH7JkiXYtWvXhK6ZzWaRTqcbHu/s7EQmM0KtTMDNN9+MK664Am94wxsAAEIIXH311TjjjDMmNIZalFIoFouTPn84pVKp7v8ng5/fD7dYgBAxwBvZwynE9STyJRd7BgpIxkw4jovBgod7fvM0Lk08oq/ZfRhULA1vxTqoigNldiIBQOzfBgltVOl4EvAciO4F8Ppf0MKldwXK5TKUlJCOA+G48MsleKaOcPnFAjgztVjhxbp6JlksgMWS8Csu3EoZTCpAWPAdD06lDKNcrn/d5TI8x4VXLsNxXcBxoBz9mD/Ce1QqlaAYh+NUgGJeN80tV4vapePAqTjwSqWomFuWC1C+C5HqhiPi8Fr4/s8m/HIFvutBlsrjLnRvxeebGB8011MLzffU0s75Dj06W0HbBFYikcDOnTtHfH7Hjh2w7amJACilcNVVV2Hbtm3493//d/T29uKhhx7C9ddfj87Ozkh0TRTXdfHkk0+2eLTAtm3bJn0uz+8DLwxCxUZvVAwAuZKHoYKE5ysYgqFgMUgF/OgxiXfFHoDBJHKpJdi78OVaMGVKkEM7IUrASgD+0B4wAJ6w8dxzzwEAYjwBC4CXmofnd/XpG3kOmPIhMxXw7F6ouB4bL2fhJwvgpSyUYdU1TWblHGSiG8oaghjaoaNJZgwyloHI7Gp4fbyUhZ+pQCb2QwxuB5MemOdGj40MQ19/PyA9SLsDMlcTs/IqMAZ3QZmDUSQsHJcs28DAtjHn+GCFOSX9/g25Ez73QD7fxMSguZ5aaL6nlnbNd6ta+LVNYJ144on43ve+hwsuuKCh+Hz37t343ve+N+FC+HQ6jVwu1/B4JpNBZ2fniOfdf//9uPvuu/GTn/wEq1evBqCL8AcGBnDDDTdMWmCZponDDz98Uuc2o1QqYdu2bVi+fDni8ckVNzu7n4Uqp8ETjZG+WnxfYltfHnZKImEbkWK/74kcekqPY0FHBr6ZgPGSN2ORlQAASKmjXcl0DNjzQGSuYKd7MG+FLpL2umLI/3Y/Ota+DvMX6cdkKQeYMRjd8+HusiA65ugx5AZg9C6DN7gb3LLr0ot+bhDG3KXgsQScnbpOSnTMAU91wd2l/a68ob3g8ZR2cA+uZXT2wtltQgWRpvCxEed7yzOYv2ABTPgwuhfC7K1GXZXnoLKDg5vVsen7HDamv9ehwGhthJrRis83MT5orqcWmu+ppZ3z3cqOMm0TWB/84Afx1re+FW94wxtw/vnnR0LkmWeewZ133gmlFD74wQ9O6JorV65sqLXK5XLo7+8f1Wfr2WefhRACRxxxRN3jRx11FO644w6USqVJvUmMMSQSiQmfNxbxeHxC19WeTCKoI2JgyRS4PXr7jEy+Al8ydHUkwLmWSnuzLu57PI93J7cBAPjSF8Pu6AIAFMouPMnQmU5gXlcPcn80oXwdvTCTnYjFgvstXIHUef9Sdy/PKcDs6YVIplGOxyEsE1AKfjyOWLoLldIQmDDqWn54FQt2qgPcjoPHE5CeAyuZgkimUI7FwQ0OEY+DGwIiFoPn2LCTSRiJBESqA550AclhJxIwRptLxmHbMRh+GXYqDavmWCVtsHhSb14M5lPfp2P0axKjMtHPNzF5aK6nFprvqaUd891Kb7+2CayVK1fiO9/5Dj71qU/h1ltvrXvuZS97GT7+8Y9j1apVE7rm+vXrccstt9TVYt19993gnOPUU08d8bzFixfD93089dRTOPLII6PHH3/8ccyZM2dW/+LwS3m4mT7Y81do13HfA8zRxZWUCvtzFQjOI3EFAHc9vB+mcnGcFXheLTomeq7i+FgyL4WujhgEZyh19cId0DV0PFG/O3M4CgrcimvjTG4EVg0SjJva44nxxiJ3FlgBhIXUftUWgXEO5ZTArXgk8jT6tTBuRA2cxyzCDorcUdMmJ3oqcDhXnr6H3unYeBxBEARBDKetK8WRRx6Jb3/72xgcHMSOHXrRXrJkCXp6mvSdGwcbNmzApk2bsHHjRlx88cXo6+vDjTfeiA0bNtSlIS+66CLs2rUL9957LwAtzBYtWoTLLrsMGzduxLx58/Cb3/wG//3f/40PfOADB/5CpxFZKUAW81CuA+W7UL4HHhv9bc2XXeRLLlKxqhHp07tL+NuOEk6wt8OAD5XsAdILAACOJ2EZAsm4CREIMqNrfiSwRHxkgRW2uGHCDASTAUhPm4waprY6YKgzG1XS16knrn2twLhuYxMagTIOWSnCSM+FX9BF6ZHrO3QPPyilHxszhaUFFuO8qacVMyy9MxMApK+PI4FFEARBjMGUrBQ9PT2TFlW1dHZ24rbbbsN1112HjRs3IplM4vzzz8cVV1xRd5yUEn6NoWUqlcKtt96Km266CZ///OeRy+WwZMkSfPSjH8WFF154wOOaTvxCFsotQbmVwPtJjupNVCi52LOvACZ9iGw/0LUQCgw/eVgXgr+mezvgAFh0TGTCWXF8JGwDtlkVIGbXfIT7N3gsBS8/BJHsbAyvBi1uQgHDhAHlOVBuBaKjOzIGDaNEAKA8VzuLm1YgqnjQUzCwBuACum2gEUW+GFCtB+KBIMPILYEiQvNSxZtaOjDTjqwlQm+utvYfJAiCIA4K2r5S7NmzB0888QRyuVxTU883velNE7reqlWrGlKOw9m0aVPDY8uWLcMXv/jFCd1rpiM9B7JShPQ8SLcCQI3oiwloobSzPw/Hk+jc9xj4E7+Amn8E/jbvDdi530WX4WCBux0AoBZW04OeL9GRsurEk9FVLfLmlg3pFCFiSWB478PAIT2KLpkWZKUIpSRELKWPGZYiDE1JeVBYHvkthREszgPxJaBQTd2F0SrGRNS+eTz5dMYFmBRNI1jcMKvRNelrc00SWARBEMQYtG2lqFQquPLKK/GLX/wCUsqocTBQX0Q2UYFFVFGVEpRXATdtyHJ+TGftfNlF2fHR3WGDDb4AAGB9T8PrMwC8FG9e2geWkVAd84AOvfPO8xU4Z4jb9R8Vo6uakmWxlBYivtfQXFopGYgjLV64acNzSuCxJLitixOZEFCoSRF6bv31g7orHcVi4MKANG1wO6EDVGEbnfBzFUSwGMbXKy+6fpNjmTDAAu2nfF83q25zexyCIAhi9tM2G+YvfOELuPfee3H55Zdj06ZNUErhhhtuwDe/+U2sX78eRx55JH784x+36/aHBNIpQUkFZtrwywXIcgFMNG/wrJRCNl+BIYK3PNcfPfcSPIF1sedwLNdeVmrRsQAA31fIlRwkYgZiZr2oMDp6wOwEIAyIeBpMWFDSazJIWXVYR1DTBAUeS0atZhgTULImgqUkuFXdeMCEWSfSmLD0+YapA3ZKC/hQIDEuwML04HhsBMK0Y7PIFDegAt2mpKed5AmCIAhiDNraKue8887D+9///siiYf78+TjllFPwn//5n+jo6MB3vvOddt3+kMAvZsFNU6fSPFfXLo2Qvqq4PsoVHzFL6FRXcRAA8FBFW1e8OfkniP3P64MXHY2K4yNTqCCdsLBgTjLabaiU7vHHuEDv6y9B7+v/SYuOIII1HF0TVpO+Ewa4YdbXaxkGwtym8lxww6wXMoZZV4TO7DiMZGcgpBBEsHg1ghUUxuuo1zi23AojOn44TGixppQM2v2QwCIIgiDGpm0Ca2BgAGvWrAGAyCOp1tb+jDPOiHb5ERNHOmUdsTJtQBiQvgv43ogCq1j24Hg+TIMDhQEwpVCSJn5QeBmGWBdsVQaDgupajIqRRslxsXBuEkvnp5CoSQ962QHIknZRN7sXwOpdCiil7Rdkk9Y8Uuo0WyB0mDB0StGuepcwLnSkC7quDIZV10iZG2EEi0f3FR1zIiGlGzXXiLgg5TeuIvfw/kI0L3LnQc2V7wNQeiwEQRAEMQZtE1hz587F/v16Z1o8HkdnZ2fUTgUA8vk8KpXKSKcTY+Bm+yHdCphhB82QoSNIolEkKKWQLTgwg+cqg7qFzR7ZiQtOm4/0y14fHesvOBrFiof53Un0dsUhaqI6SmrnbuW6w28Quh00onygJm3JTBsi1tEosFQYwXIgYsn6OifG6+rLGGNRSpDxUGDxul2EUURrPClCxrWNRJNjmWmBWXGdjgVoByFBEAQxLtq2WqxZswaPPPJI9PdXvepV+MY3voHe3l5IKXHrrbdi7dq17br9QY1fysMf6oeId0SRIW6YWnA1EQmOK1Eqe7AtLVp2vrAThwPIiR68ZHkCYKuglp8IDL6AXM9qdHdYmNsVb0ivKd/RNVRevTBWSoEzHTEa3j4l9LsK4aYNe/6y+gEyHm1+VL4PHk8Ne1rbOzSIpXB3ofS0v1ZUg8WjnYnjaeXCOAfnzVN/jAuYnXNR3v1sNZpFEARBEGPQttXiXe96F+6++244jgPLsvDBD34Qjz76KP6//+//AwAcdthh+PjHP96u2x+0KKXgZfZCSQ/CqvZf5IkOcJVqek7Z8eD6PlIJE44nUR7cCxhA14KFkYhSx5wB15NAxUN3R6zO4T26t+uCmZb2saoTUnoXX5RKM2pEjZLaWX0UdEQq7GIO8OF1ToG55/Dde5EJqecEhfDhLsLAFiLcXTgGPN4B0x65uSdPpMGthDYaJYFFEARBjIO2rRYnnHACTjjhhOjvCxcuxM9//nM8/fTT4Jxj5cqVMAxarCaM9OAXc3UpNiAUG81PyZdccMYhPQd3/C6D17IhAMCipYvqjyu76O6wkYyPsBPRc8CTHWBuJbBkCESJUvrPwmiwalDjaS0TCjUlIzFVi4ilmkeieLUGizMWHROZl4a1WWPADKthPutuY9oQHT3w80MksAiCIIhx0ZbVolQq4SMf+Qhe97rX4Zxzzoke55zX9QIkJo7y/SAqNL7dbJ4vkS85iA9thfrLj/BKrwO9Qhep8855NccpcMbQk46NuPNOQcGIp+GUi7rn4TCBxYTZkD5kwY7DUQlShMr3dbRreE9Aw4QwOpucJvQORenrFGHtc8KsenC1AKOjJ7CcIIFFEARBjE1bitzj8TgeeughlMvldlz+kEZJXxezj8NAEwBKFQ9q1xOw/3InTLhYagxCMAVl2IBd7SFYKntIxc26HYN19/U9cC7A7AS4addbMiil65jseINVg2IYc6yMcx18C2qpJhIlYkLvXmxIHwojMiZtBSKWhD1/WUs7rRMEQRAHL23bRfjSl74Ujz76aLsuf+jie0EEa3xu4oVCCam//xwMEn9xDkOBJfUTqd4ofSaVgid9dKXskaNXngMYNrhpg1n1QipsqsytWINVQ12PwJFgDADTQqlJrdWoCN3YuUHETfQ6BEEQBNFC2iawrrnmGjz88MO46aabsGfPnnbd5pCjmZlnMzxfYjBbRm7vLjDpoqQs/Fd+PV540QaoRcdAHbE+Orbi+LAtMWLtFRDUX8Xi2ijUsqGkrD+A6VqmWnkW2ic085eqP1dbKijfAzcnZuQZRruGiylumE0tKwiCIAhiKmhbQck555wD3/fx1a9+FV/96lchhIBl1e/UYozh4YcfbtcQDkqU9NGkZ3YDewaKGMiUkMxrx/Y9fhqGEFixYgGUcV50nFQKxbKLBXNS2oR0BKTvwQyaMzNh1RXUh1GqhohRUH81ViQpdFyXnt6lOBHC1kAN9+B8zN2LBEEQBNEu2rYCnXHGGVSv0gaU54w5r77UoiluG7DdIQDAXr8TRy6KwaoRUb5UyBYqSKdsdHeMHTkK3dW5YYJzoXcMCiMQWyzypVJSBgagUqf/xqoXCwxBlZLVnYnjRHteNe5UFPEOcDM+wlkEQRAE0V7aJrBuuOGGdl36kEa5DtgYqS/Pk/B9BdsSYAUdwdrrp3HcYfVWBLmig3TSxsI5yciEtOk9gwJ3HogfbclgRgIrrMEKndWhJACuXdybRbaGE6QIGWu0aBiLKEI2TMRxKw5MTKsRBEEQRMtoWw0W0R6kWxmzpsn1fHi+hBAMXnYfAKBfpnHM4mpEx/EkOOOY1x0fVVwBugFzXX9AoXf61dWDsZoIltL1WUpqX6uxxhsahrImHlhjwrgWnBQtJQiCIGYQbYtg/ehHPxrXcW9605vaNYSDDiV9KOmNGRFyPaXb1wCQhQEAgNk5Fwm7el6x7KKnI4b4CLYMdff1HfBYqlpQzhiYEFp4IazBYtUWNWEBvJJgYuSdiRFhmm8c9VqN5+omzeNpiUMQBEEQU0XbBNZHP/rREZ+rXXBJYI0fJX3dimaMQvDKvu1IbPsLsOoEGNKBVAzzF82Pnnd9CcYYujrGIX4AKM8Djw1rw8MNQEkopaC3EPKaFjWBwJISbDxu/YxVI2ATThEGxewksAiCIIgZRNsE1n333dfwmJQSO3bswHe/+13s2rULn/3sZ9t1+4MT3wNUo6nmcNzH70O8fwtkfhcAYFAmceQSbSrq+wq5goM5nTEkYiO//Ur6kJUSeCwJQDXYJzBh6FRg2O8vrKHihvbMAnTRuhjZ+iG6VtjaBph4ijCIYFGKkCAIgphJtE1gLV68uOnjS5cuxbp16/D+978f3/72t/GJT3yiXUM46FC+r1vljLIrz5cKKGYAAHz/dgDAADqxqtuElAqZYgVdHTYWzEmOGr3yizkwBshiVtc5DYuaMS60uIIKmjXrazHDgHJL+iA5gV2BjIOJcRTEDz8tEGeUIiQIgiBmEtO2Kr3yla/E5s2bp+v2sxIlPSioUcWE50mwSq7uMZmYA84YShUPyZiJRXNTMMTI11BSQkkPRnoulO+CCbNa4B7ADFOnApUKdgEGjZaFGZmQKqgxdzxG1xPVXYoTgnNtKEoCiyAIgphBTJsT4/bt2+E4znTdfnbiexgrEeaUS2DDGi4nunv1c57EnM7YqIaiACDLBYhYCuacRVBKQbqVxlQf40EAq5oiBALhFQgsppoYgI4A4wLMjI3r2PrzeFObBoIgCIKYTtomsP74xz82fTybzeJPf/oTNm3ahFe/+tXtuv1Bie7zN7rEcnJZAIBkAlIqGExi3uKF8H0FzoBErCqU/GIWUAoi2Vm9h1KQbhn23EVgwoQ1ZzFkE3NT7b6OoMgdVYElDCjtjBU0eh7fR4yZsQm3ydH3M2F2LQC3yVSUIAiCmDm0TWC9613valrjo5SCEAJnnnkmrr766nbd/qBEOuUxIzVOfj8AIMdSuKtwLE6Yk8UR85eh6PiwTIFYjVWD9Bww1PfdUZ4DbtoQ8TQAHZESRpNC9SglJ3X9VJgiZBwMWgwyznVEaxyYPQvHdVwzRKJj0ucSBEEQRDtom8D61re+1fAYYwzpdBqLFy9GKpVqchYxGspztdfUKDi5IRgA+p04/uiswikvXgAwjorrYl5XAmL4+UwEYkhU71FrKjoSjGtpNixFiGA3oPJ9MG6Me1cgtVUiCIIgDibaJrBOPPHEdl36kEX5LsBGrmlyPQmvmIUBYMiPY1G3iWVzLUilwBSQiFffbqUkGBiYYWlRFbi5K9+FSHSMKXgY15GqhhosLvTj0osc3wmCIAjiUKNtlcHbt2/HL3/5yxGf/+Uvf4kdO3a06/YHHdrF3R81guV4PlDSNVgZmcDJh6fAGIPrSpgmR9yqETu+DyaMQGBVNxso3we3E8Mv3UiwczDcMRilDAM3d+UFuw8n6sxOEARBEAcBbRNYN954IzZt2jTi89/5znfw7//+7+26/cGHlPq/UQSW60ogsGjIyARWzNO78iquj0TMqNs9qIIIE48lopY3wTNgxtjF5rrInQHS13VXtREsznUtlzXxXYEEQRAEcTDQNoH16KOP4pRTThnx+XXr1uFPf/pTu25/0KGkr3v7jZIirLg+UM4DALIqjvmdusDckxKpeL3HlAoiWCKWinYCKumDCdFgKtqUKILl1zdzDhs++x4JLIIgCOKQpW0CK5vNIplMjvh8IpHA0NBQu25/8BE0eh4tglUsu2AVLbAQ64ApGHxfQXAO26oXZsr3wM0YmGmDCS2UdFrPGp/hZ9CgOYxghUQNnxkbV5scgiAIgjgYaZvAWrhwIR555JERn3/44YexYMGCCV93y5YteO9734u1a9fi1FNPxY033jimYenvf/97rF69uul/Z5555oTHMB0oKQGpRnQs93yJiuPBdLXAind2AdB1WZbBERsmsCB9MCsGbtlgQtdhKT/YQTgOawVWW4NVK/oC008mBBW4EwRBEIcsbVsBzz77bHzlK1/BmjVrcOGFF4IHi7Dv+/j2t7+NzZs345JLLpnQNTOZDC666CIsX74cN998M/r6+nDDDTegXC7jmmuuGfG8Y445Bt/73vfqHsvn83jf+96H9evXT/zFTQNK+kGbnOa7+yquD79cBIcuOu/q1uahjuujJx1rtGeAAjdMMGGC2/Gq6WhHz/gGxLn+T9Y3nw57A2ICFg0EQRAEcbDRthXw4osvxsMPP4zrr78et9xyC1asWAEAeO655zA4OIgTTzwR//RP/zSha95+++0oFAr48pe/jK6uLgBasF177bW4+OKLMX/+/KbnpVIprF27tu6xH/7wh5BS4uyzz57wa5sWpD+qh7vrSqiy3kGYkzEs6NHO5lIqJOONESkFAIEAMrvmQ5YL8MuFcddNscBcVKnGwnsmTCguousTBEEQxKFG21KElmXhm9/8Jj796U9jzZo12L9/P/bv3481a9bg+uuvx6233grLmlhz3wceeADr1q2LxBUAnHXWWZBS4sEHH5zQtX76059i+fLlWLNmzYTOmy50BGtkyo4PHtRfZWQcC7tMXX8lRGP9VbjzL6iREslOWPOXw0h1g49jB2FI2Mh5ePNpZhjaA2ucLu4EQRAEcbDR1hAD5xxvectb8Ja3vKUl19u6dWvDtdLpNHp7e7F169ZxX2ffvn343e9+N+EI2rQySgRLKYVC2UElH0SwVAIvShmoOD5Mg8E0mgisYQLISHWDW7GJNVwO+wwO87piwgQ3rAbhRRAEQRCHCm0TWENDQ9izZw+OPPLIps8/9dRTWLBgATo7O5s+34xsNot0Ot3weGdnJzKZzLivs3nzZvi+f8DpQaUUisXiAV2jllKpVPf/tbj5LHzHhVcuNz7nSRQKZZRzeg5cMwnXcVEsOkgnLbhOBbVOV9IpAUpBVRww16+/mNd475FwXQ+e40BVKvBq5sFzPSjJIFs4N+1gtPkmWg/N99RBcz210HxPLe2cb6VGrnWeKG0TWJ/5zGfw3HPP4fvf/37T5z/xiU9g5cqVuP7669s1hBG56667cMwxx0R1YZPFdV08+eSTLRpVlW3btjU8xjO7wSsFKHuo4bmyK7Fnv4tUph8AUBEJ7Nq9E7miD6fTRCVfE2FSEqxSgLIS8AsHFmHi+X0Q2T74RQ6ZGKw+IT3dQqc/d0DXnyqazTfRPmi+pw6a66mF5ntqadd8T7R8aSTaJrB+97vf4YILLhjx+Ve96lW4/fbbJ3TNdDqNXK5x0c5kMuOOhL3wwgt47LHHcNVVV03o3s0wTROHH374AV8npFQqYdu2bVi+fDni8Xjdc5WdAnAr4PHGJtlDuQp8owBzi45g2XMWY+GCRUgWHSxf0BEVuUunBFUpgsWWwOheAJHsOqDxekN9cPcYsBa9CCI994CuNR2MNt9E66H5njporqcWmu+ppZ3z/eyzz7bsWm0TWIODg+ju7h7x+a6uLgwMDEzomitXrmyotcrlcujv78fKlSvHdY277roLnHO8/vWvn9C9m8EYQyIxjr59EyQej9ddVykFmAIw4hCxao2UXy6g/8dfgt+zDPay1yCthgAG9CxaAiYMJBMcHR1JWAaHX8pDMQVzyREwO+e2xELBdZLg8QRiiQSMNszDVDF8von2QvM9ddBcTy0031NLO+a7VelBoI27CHt7e/HEE0+M+Pzjjz+Onp5xei4FrF+/Hg899BCy2Wz02N133w3OOU499dRxXeNnP/sZTjzxRMybN29C955WpA9I2dDo2enbBr8wBLXjMVQGd8NgEmVlYv6CuXA9CdsUsAzdtkZ5Duz5y2H1LGiZPxXjPBhT6z6QBEEQBHEw0DaB9ZrXvAZ33nkn7rvvvobn/ud//gc//OEP8ZrXvGZC19ywYQOSySQ2btyI3/zmN7jzzjtx4403YsOGDXUeWBdddBFe+9rXNpz/xBNPYMuWLbPH+yog7EOIYX0IvayuuWJKQez4MwBggHVDCA7Xl0jEdGpQ+R6YYUGkulo7MBaYjdJuQYIgCIKoo20pwg984AP47W9/i0svvRRHHnkkXvSiFwEAnnnmGfz973/HqlWrcNlll03omp2dnbjttttw3XXXYePGjUgmkzj//PNxxRVX1B0npYTv+w3n33XXXbAsC2ecccbkX9h0EDZ6HhbB8jL7oj/PyT4FACjHevUDSlXb44RmoHzkRtGTgnEwbuiehARBEARBRLRNYHV0dOB73/sevv71r+Pee+/FPffcAwA47LDD8M///M/4h3/4h0nlTletWoVbb7111GM2bdrU9PErr7wSV1555YTvOd0o6euef8MiRWEECwAEtKA0OufB9xU45zBNEZ3PDLvlvlRhY+dW5qwJgiAI4mCgrUajiUQCl1122YQjVcQwpBwzghXSMX8RPF/CEAyWwaPz2+KqzjggBKUICYIgCGIYtDLOApq1yZFOGbKkLSs8Ud1Z2Dl/ATxfF7gbgkfnM7M1vh61MM7BmKAUIUEQBEEMo60RrEqlgnvuuQdPPPEEcrkcpJR1zzPGpsVodNYhfbBhO/W8rI5eKSuBfeYSLCg8jRySSFoJePkKuuyaljdKgRutF1hgHExQipAgCIIghtM2gbVz5068+93vxs6dOyOD0M7OTuRyOfi+j+7ubvILGSd6F2F9DMsLXNtlogfb3MVYgKeRtRcgCX2oZVaDkwpKF7m3Gs71zsZ2XJsgCIIgZjFtWxlvvPFG5PN5fP/738fdd98NpRRuuukmPProo/jwhz+MWCyGb3zjG+26/UGF9JwGERNGsLxYD35fXoXb8i9H39LTIQMhFtVfQbtUMdbiHYQAuGHB7Fk4sQbRBEEQBHEI0DaBFbbKWbNmDXiNOLAsC//4j/+Ik08+mdKD40RVSg3moJHAindid8bDI84K9Pb2wPMVDMFhGlVBpYCWmYsOR8SSlCIkCIIgiGG0TWCVy2UsXrwYAJBKpcAYq+sjePzxx+Phhx9u1+0PGpT0IT0nEkiV3c8i/7cH4A7uBgDkeRdKjgRnwPxOU+8gNDjMIIKllNT1W5TGIwiCIIgpo22r7sKFC9HX1wcAMAwD8+fPx5///Ofo+WeffRa2bbfr9gcNynMB3wMCgbX/f3+AzB9+Cm//HgDAHj8NAOhNmzAEg+dJxG0BzoOokpRgQoC12mSUIAiCIIgRaVuR+8knn4z77rsPl156KQDgzW9+M7761a8im81CSomf/OQnOPfcc9t1+4MG5btQvgfODSil4Bcz1eeEiZ2VFIASFnVpnytfSsRtA15+P7hpA9wIWtqQwCIIgiCIqaJtAuv9738//vrXv8JxHFiWhUsuuQR79+7FPffcA845zj77bFx11VXtuv1Bg/I8nebjHNKt6LY5AHpefRF25YA9QT/thd0WlFJgDLBMAeV6kFKCxxIApwgWQRAEQUwlbRNYixYtwqJFi6K/27aNT3/60/j0pz/drlselCjfQegyKitF/QdhwFh8JNydGewN2uUs7DLh+gqGELAMAeYxAFK32GlHH0KCIAiCIEaEKp9nONKtRC1yQoHFrTh8qeB6CnuzLoBAYLk+LJPDNKDTgkwAvgsuDNrpRxAEQRBTCAmsGY4sF8GEGf0ZAHgsCd9X6M+68CVgmwzdKQOuL5GMWYHvFQMzLEinDCba4OJOEARBEMSIkMCawSjpQ3kumNDpPVkpAAC4nYAnFfbldPRqXtoEZwxKKsRtoZtDMw5mmFC+B7Sj0TNBEARBECNCAmsGozwXkFWLhihFaCfg+xKDBV3w3tthwPcVuOAwTQGltMDidhxgDJwEFkEQBEFMKSSwZjDKc4MIVqPA8nyJ/YHAmtthwvV8WAaHbXJA6cJ2bifATYt2EBIEQRDEFEMCawajvAoUFBgLitxrarBct1ZgGXA9hZgtIDjXOwcZA7cSYGZce2ERBEEQBDFlkMCaochKEc7gbnBh1j0G6AiW4/lRinBuhwFPScSsQEgpBcYNMMvW/1GbHIIgCIKYUmjlnYEo34OzbwdUpQieSEePh0XuzIqjVPGRKVZThFAKVtjgWflgwgA3LJjpXnA7MeWvgSAIgiAOZUhgzUCUU4KfH4JIddf5V4UpQphxDBQ8KAC2wZC0GRgYDKGPVVJFdVdGeg4YFbkTBEEQxJRCAmvGohqK08MUobLi2JfxAOj0oFQMQnAYRvB2KknWDARBEAQxjZDAmkWEAkuKGPbltQfW3A4TvichBGDWCCwuqLCdIAiCIKYLElizBCUllFMCAEgzjsF8TYG7lLAMvYMQAJSC7j9IEARBEMS0QKvwLEEG4goApBHDYKGaIvR8hZhVTScyBvK+IgiCIIhphATWLKG6gzAGX7KqB1bahFISllVNCSpAN3smCIIgCGJaoFV4lhCZjNoJlBwPQ6FFQ8qAVIAh6t9KimARBEEQxPRBAmuWUDUZTWJvxoVUgCkYkjEOITjM0KJBKTAwimARBEEQxDRCq/AsIRRYzIqjL+MAAOakDO3IwBmMyGRUApxRkTtBEARBTCO0Cs8SZLnq4r4vW1PgLqX2wOKBIamUYExQexyCIAiCmEZoFZ4lVE1GE9iXCzyw0iZ8X8GyODivpgiDbYTTNlaCIAiCONSZVavwli1b8N73vhdr167FqaeeihtvvBGO44zr3L6+Plx55ZU4+eSTsWbNGpx11ln4yU9+0uYRt45QYMGst2jwpUTMrDEVVRJgnCJYBEEQBDGNzBq770wmg4suugjLly/HzTffjL6+Ptxwww0ol8u45pprRj137969ePvb344VK1bguuuuQyqVwjPPPDNucTYTCAWWL2IYLFRNRpVSVQd3IKjB4gDtIiQIgiCIaWPWCKzbb78dhUIBX/7yl9HV1QUA8H0f1157LS6++GLMnz9/xHM/97nPYcGCBfj6178OIbTwWLdu3VQMu2XIUh4A4PJY5IHV22ECyquzaFBSghkmGKUICYIgCGLamDWr8AMPPIB169ZF4goAzjrrLEgp8eCDD454Xj6fx89//nO84x3viMTVbMTP7wcADPoJ+BIQHOiIcXBe0+QZAJQkDyyCIAiCmGZmjcDaunUrVq5cWfdYOp1Gb28vtm7dOuJ5jz/+OFzXhWEYuPDCC3HMMcfg1FNPxec+9zm4rtvuYbcEJX34xSwAoM9NAAB6UgYUAMFZvcmokgA1eiYIgiCIaWXWrMTZbBbpdLrh8c7OTmQymRHP27dvHwDg6quvxtve9jZceumleOyxx/B//+//Becc//Iv/zLpMSmlUCwWJ33+cEqlUvT/ouLAK5cBAH5hKCpe357T0amepECpVAYYg+dUID29i9AvlyEsD7KF4zpYqZ1vov3QfE8dNNdTC8331NLO+VZKgTHWkmvNGoE1WaSUAIBTTjkFH/3oRwEAJ598MgqFAr75zW9i48aNiMVik7q267p48sknWzbWkO3bt0MMboeKa+EosnuQBOBZSezYmwMgEGNl7NxVgG1yCGcgOpeVs5DJAmR/vuXjOljZtm3bdA/hkILme+qguZ5aaL6nlnbNt2VZLbnOrBFY6XQauVyu4fFMJoPOzs5RzwO0qKpl3bp1uOWWW/D8889j9erVkxqTaZo4/PDDJ3VuM0qlErZt24alS5dCJAHR0QMAqDyXQR6AkZqDSjYGwMVh8zvR22tgTmcM83sS0TW83ACsecsh0nNbNq6DlXC+ly9fjng8Pt3DOeih+Z46aK6nFprvqaWd8/3ss8+27FqzRmCtXLmyodYql8uhv7+/oTarlrEEUKVSmfSYGGNIJBJjHzhB4vE4mG3BCCJrTkW7uCPRhUyfAgAs7I7BNBmSyThsQ4AZJpT0YcTiiHV2Q8RbP66DlXg83pb3kWgOzffUQXM9tdB8Ty3tmO9WpQeBWVTkvn79ejz00EPIZrPRY3fffTc45zj11FNHPG/x4sU44ogj8NBDD9U9/tBDDyEWi7U0AtUuwh2ErtWBgXzVZFQBMPwK3Ow+KOlDeS6YYYGbk0t5EgRBEATRGmaNwNqwYQOSySQ2btyI3/zmN7jzzjtx4403YsOGDXUeWBdddBFe+9rX1p17xRVX4Je//CU+/elP48EHH8Qtt9yCb37zm3jPe94zK35thAJrSCbhScASDN1JAc4YBPMh7ASkU4byKuBWDMwwp3nEBEEQBHFoM2tShJ2dnbjttttw3XXXYePGjUgmkzj//PNxxRVX1B0npYTv+3WPnX766fjCF76Ar3zlK/jud7+LefPm4QMf+ADe//73T+VLmDShwOpztBhc0GVCKUBwDqEkWCwBWcgCUOBdHdM4UoIgCIIggFkksABg1apVuPXWW0c9ZtOmTU0ff/3rX4/Xv/71bRhVe1FKwSsMAQB2lHQx34IuE54vYQgGQwCMGwAUlFLgFhVYEgRBEMR0M2tShIcqspwHfA8Aw/N5GwCwsMuC60nEbAEGQMQSYGYM3LDALXtax0sQBEEQBAmsGU+YHkQshT25cAehCV9KJGImwABmxiGSnYBhgpkksAiCIAhiuiGBNcPx80MAABnrjJo8L+zSJmhCcDAwMCEgkl0wUj3Uh5AgCIIgZgCzqgbrUMQLIlh53gEFIGlzJEyGguQwuQIDBxMGRCIBpLqmdawEQRAEQWhIYM1wvEw/AGC/TAIAFnaZ8KWCIRgsDgACoKgVQRAEQcwoKEU4w6ns2QIAeN7rBaDTg54vYRkCgkmAG2CCdDJBEARBzCRIYM1g/MIQ/OwAwBgeLwYCq1tbNCRiJpSUYEJQ3RVBEARBzDBIYM1gKrt170XWtQjbc/qtWtRtQSrAMjkgfTCjNV2/CYIgCIJoHSSwZjCV3To9WE4vRaEiwRiwoNMAd7IwmYSSPtkyEARBEMQMhATWDCYUWDvYQgBAb4cBrhQM6UF4JSglwanvIEEQBEHMOEhgzVD8QgZ+fhBgHE9X5gIAFvdYcH0Phh2DwSSYApgggUUQBEEQMw0SWDMUZ+/zAADRsxg7MgyArr9yXR9x24CwYlBQZNFAEARBEDMQElgzlPLOpwEAYsGLsGfIBQAs7rYgfR+xmAUeT4FxASZIYBEEQRDETIME1gxEVopw+rYBACq9R2Igr1vkLOoywZmEYQgYqW5wO0keWARBEAQxA6HVeQZSee4vgJIwuhfg6VISCnmkYhxxi8HxOGzLgEim9S5CsmkgCIIgiBkHCawZSGXLwwCA2PI1eH5vBYCuv/KkgiEA0zTBhAmza950DpMgCIIgiBGgFOEMgzklODv/DgAwlhyLnfsdALr+yvMkEqYAN0gXEwRBEMRMhgTWTMPXgsqcsxgy2YNdgcBa0mPBlxK2zQGquyIIgiCIGQ2t1DMMFe9Ez9s/AVEcxFDFw56MBwBY3GOCMQmLg3oPEgRBEMQMhyJYMxCjsxfMsPDMriJ8CcRMhnScwxQCpsFJYBEEQRDEDIcE1gzF9RSe21sCEKQHfQXbEjC4AqP2OARBEAQxoyGBNUOpuB62D+j6q6VzbLi+RDJmAmAAY9M7OIIgCIIgRoUE1gyl5FTrr5b0WIBSsG0DjAGM0dtGEARBEDMZWqlnIL4vkcu76MvoFjkLugyYQsA2g7eLBBZBEARBzGhopZ6BlB0fO4c8eGGBe4zBNDksQ0ABAKe3jSAIgiBmMrRSz0CkUtiRkQCqBe7JmAHOGRgYpQgJgiAIYoZDK/UMZVdGAdAF7lIpxCwTSkld4E4RLIIgCIKY0dBKPUPZndUCa1GXCc45bIsDSoEximARBEEQxEyHVuoZiOcr7MlrgbWw04BpMFimAKTUBe4UwSIIgiCIGQ2t1DOQ3YOlyME9FeewLQOG4FBK6RQhRbAIgiAIYkYz63oRbtmyBZ/61Kfw6KOPIplM4txzz8Xll18Oy7JGPe/000/Hzp07Gx5/7LHHYNt2u4Y7KZ7fWwSgC9ylVOiIB87tSkewGEWwCIIgCGJGM6sEViaTwUUXXYTly5fj5ptvRl9fH2644QaUy2Vcc801Y55/xhln4P/8n/9T99hYwmw6eKGvKrAYANMMeg8GAosiWARBEAQxs5lVAuv2229HoVDAl7/8ZXR1dQEAfN/Htddei4svvhjz588f9fy5c+di7dq17R/oARJGsBZ1WzAEh21ogaWU0vVXJLAIgiAIYkYzq1bqBx54AOvWrYvEFQCcddZZkFLiwQcfnL6BtRBfKmzv102e56UFTJPDNIK3SUkwJsCoFyFBEARBzGhmlcDaunUrVq5cWfdYOp1Gb28vtm7dOub5d911F4499lgcf/zxeN/73oennnqqXUOdNAM5D56vYBtAOsYRt7XBKABt0yBmVdCRIAiCIA5JZtVqnc1mkU6nGx7v7OxEJpMZ9dzTTz8da9aswaJFi7B9+3bccssteMc73oEf/ehHWLp06aTGo5RCsVic1LnNKJVKSMcFDuuNY1myBNdxwJSJcrkMAPDLJQhuQ7bwnocypVKp7v+J9kLzPXXQXE8tNN9TSzvnWwV+k61gVgmsA+Hqq6+O/nzCCSfg1FNPxVlnnYVvfOMb+OQnPzmpa7quiyeffLJFI9TELI4LTrKQeWEX+va6UI6FzIAONLJKHjKehRykf8StZNu2bdM9hEMKmu+pg+Z6aqH5nlraNd+t2vw2qwRWOp1GLpdreDyTyaCzs3NC15o3bx5e+tKX4vHHH5/0eEzTxOGHHz7p84dTKpWwbds2LF6yBGYxB5noxvKFHUjY+m3y84MQ3Ytg9ixs2T0PZcL5Xr58OeLx+HQP56CH5nvqoLmeWmi+p5Z2zvezzz7bsmvNKoG1cuXKhlqrXC6H/v7+htqsqYAxhkQi0fLrxmI2DMOAEbORSiZgBUXuXsWClUzCbMM9D2Xi8Xhb3keiOTTfUwfN9dRC8z21tGO+W7mJbFYVua9fvx4PPfQQstls9Njdd98NzjlOPfXUCV2rr68PDz/8MI477rhWD7NlCMFh8OqbrRioTQ5BEARBzAJmVQRrw4YN2LRpEzZu3IiLL74YfX19uPHGG7Fhw4Y6D6yLLroIu3btwr333gsA+OlPf4pf/epXeMUrXoF58+Zh+/bt+OpXvwohBN773vdO18sZk5jFqzsIATAFMCamcUQEQRAEQYyHWSWwOjs7cdttt+G6667Dxo0bkUwmcf755+OKK66oO05KCd/3o78vWbIEe/fuxfXXX49cLoeOjg6cfPLJuOyyyya9g7DdMDDYVvXtUUpBMUYRLIIgCIKYBcwqgQUAq1atwq233jrqMZs2bar7+9q1axsem+kIg8EyqtEq5bvghgluxaZxVARBEARBjAcKh8xQOGcwRE39lVsBM20wkwQWQRAEQcx0SGDNUAzOYRjVt0e5DkQiTW1yCIIgCGIWQAJrhsIFq/YgBKCUBLeT0zgigiAIgiDGCwmsGYhtCnTELYigoF15LrhhUf0VQRAEQcwSZl2R+6GAZQrYqapVvwzrryx7GkdFEARBEMR4oQjWDEcpBemUwBNpMEZvF0EQBEHMBmjFnsEopeDnBiHiHTDTc6d7OARBEARBjBMSWDMYWcqB2QnYC1aA29RAlCAIgiBmCySwZjDSdWB2zgW3qXkoQRAEQcwmSGDNZBjIWJQgCIIgZiEksGYwXJjgtHOQIAiCIGYdJLBmMqYFZpLAIgiCIIjZBgmsGYyIpciagSAIgiBmIbR6z1AYF+AxKm4nCIIgiNkICayZimGDU4E7QRAEQcxKSGDNUJhhUP0VQRAEQcxSSGDNRISh668Ma+xjCYIgCIKYcVCz5xkIt+KwuuZM9zAIgiAIgpgkFMEiCIIgCIJoMSSwCIIgCIIgWgwJLIIgCIIgiBZDAosgCIIgCKLFkMAiCIIgCIJoMSSwCIIgCIIgWgwJLIIgCIIgiBZDAosgCIIgCKLFkMAiCIIgCIJoMSSwCIIgCIIgWgwJLIIgCIIgiBZDAosgCIIgCKLFMKWUmu5BzEYeeeQRKKVgWVbLrqmUguu6ME0TjLGWXZdoDs331ELzPXXQXE8tNN9TSzvn23EcMMbwkpe85ICvZbRgPIck7fhHxBhrqWAjRofme2qh+Z46aK6nFprvqaWd880Ya9n6ThEsgiAIgiCIFkM1WARBEARBEC2GBBZBEARBEESLIYFFEARBEATRYkhgEQRBEARBtBgSWARBEARBEC2GBBZBEARBEESLIYFFEARBEATRYkhgEQRBEARBtBgSWARBEARBEC2GBBZBEARBEESLIYFFEARBEATRYkhgzQC2bNmC9773vVi7di1OPfVU3HjjjXAcZ7qHNev54Q9/iNWrVzf89/nPf77uuDvuuANnnHEGjjvuOJxzzjn41a9+NU0jnl08//zzuOaaa3Duuefi6KOPxtlnn930uPHMby6Xw8c+9jGceOKJOP7443HZZZdh79697X4Js4rxzPe73vWupp/5LVu21B1H8z06P//5z/FP//RPWL9+PdauXYtzzz0XP/jBDzC8dS99tlvDeOZ7Nn62jWm5KxGRyWRw0UUXYfny5bj55pvR19eHG264AeVyGddcc810D++g4Otf/zo6Ojqiv8+fPz/6889+9jP867/+Ky655BKcfPLJ2Lx5My699FJ85zvfwdq1a6dhtLOHZ555Br/+9a/x4he/GFLKhsUHGP/8Xn755Xj22WfxyU9+ErZt44tf/CLe97734c4774Rh0NcUML75BoCXvOQluPLKK+seW7JkSd3fab5H59Zbb8XixYvx0Y9+FN3d3XjooYfwr//6r9izZw8uvfRSAPTZbiXjmW9gFn62FTGt3HLLLWrt2rVq//790WO33367Ouqoo9SePXumb2AHAXfeeac64ogj1MDAwIjHvO51r1Mf+tCH6h57+9vfrv7xH/+x3cOb9fi+H/35yiuvVG94wxsajhnP/D7yyCPqiCOOUP/7v/8bPbZlyxa1evVq9bOf/awNI5+djGe+L7zwQvX+979/1OvQfI9Ns++Mq6++Wr3kJS+J3gf6bLeO8cz3bPxsU4pwmnnggQewbt06dHV1RY+dddZZkFLiwQcfnL6BHQJs374d27Ztw1lnnVX3+Otf/3r89re/pTTtGHA++tfHeOf3gQceQDqdxqmnnhods3LlShx11FF44IEHWj/wWcpY8z1eaL7Hpqenp+Gxo446Cvl8HsVikT7bLWas+R4vM22+SWBNM1u3bsXKlSvrHkun0+jt7cXWrVunaVQHF2effTaOOuoovPrVr8Z//ud/wvd9AIjmd8WKFXXHr1q1Cq7rYvv27VM+1oOJ8c7v1q1bsWLFCjDG6o5buXIl/RuYBH/4wx+wdu1aHHfccbjwwgvxxz/+se55mu/J8fDDD2P+/PlIpVL02Z4Cauc7ZLZ9tikBPM1ks1mk0+mGxzs7O5HJZKZhRAcPvb29+MAHPoAXv/jFYIzhl7/8Jb74xS+ir68P11xzTTS/w+c//DvN/4Ex3vnNZrN1NXIhnZ2d+Nvf/tbmUR5cvOxlL8O5556L5cuXY+/evfjGN76B9773vdi0aROOP/54ADTfk+FPf/oTNm/eHNX/0Ge7vQyfb2B2frZJYBEHLS9/+cvx8pe/PPr7aaedBtu2cdttt+GSSy6ZxpERRHu47LLL6v7+yle+EmeffTa+8pWv4Gtf+9o0jWp2s2fPHlxxxRU46aST8O53v3u6h3PQM9J8z8bPNqUIp5l0Oo1cLtfweCaTQWdn5zSM6ODmrLPOgu/7ePLJJ6P5HT7/2WwWAGj+D5Dxzm86nUY+n284n/4NHDiJRAKveMUr8Pjjj0eP0XyPn2w2i/e9733o6urCzTffHNXB0We7PYw0382YDZ9tEljTTLPccC6XQ39/f0NtFtFawvkdPv9bt26FaZpYunTpdAzroGG887ty5Uo899xzDbYDzz33HP0baAM03+OjXC7j4osvRi6Xa7B6oc926xltvsfLTJtvEljTzPr16/HQQw9Fv3wA4O677wbnvG4nBNEaNm/eDCEEjj76aCxduhTLly/H3Xff3XDMunXrYFnWNI3y4GC887t+/XpkMhn89re/jY557rnn8MQTT2D9+vVTOuaDjWKxiPvvvx/HHXdc9BjN99h4nofLL78cW7duxde//vU67zyAPtutZqz5bsZs+GxTDdY0s2HDBmzatAkbN27ExRdfjL6+Ptx4443YsGHDuD5kxMj8wz/8A0466SSsXr0aAHDffffh+9//Pt797nejt7cXAPCBD3wAH/7wh3HYYYfhpJNOwubNm/HYY4/h29/+9nQOfVZQKpXw61//GgCwc+dO5PP5aME58cQT0dPTM675Pf7443HaaafhYx/7GK688krYto2bbroJq1evxute97ppeW0zkbHmO1ycXvva12Lx4sXYu3cv/uu//gv9/f340pe+FF2H5ntsrr32WvzqV7/CRz/6UeTzefz5z3+Onjv66KNhWRZ9tlvIWPP92GOPzcrPNlPDY2nElLNlyxZcd911ePTRR5FMJnHuuefiiiuuoAjKAfKpT30K//u//4s9e/ZASonly5fjrW99K971rnfVbeO944478LWvfQ27du3CihUr8KEPfQivetWrpnHks4MdO3bg1a9+ddPnvvWtb+Gkk04CML75zeVy+MxnPoN7770XnufhtNNOw9VXX00/MmoYa74XLFiAf/u3f8NTTz2FoaEhxONxHH/88bj00kuxZs2auuNpvkfn9NNPx86dO5s+d99990Xu4fTZbg1jzbfv+7Pys00CiyAIgiAIosVQDRZBEARBEESLIYFFEARBEATRYkhgEQRBEARBtBgSWARBEARBEC2GBBZBEARBEESLIYFFEARBEATRYkhgEQRBEARBtBgSWARBEARBEC2GBBZBEESbufnmm7F69WoMDg5O91AIgpgiSGARBEEQBEG0GBJYBEEQBEEQLYYEFkEQBEEQRIshgUUQxEFDX18frrrqKpxyyik49thj8YY3vAE/+MEPoud///vfY/Xq1di8eTO+8IUv4NRTT8XatWtxySWXYPfu3Q3X+/nPf47zzjsPa9aswUknnYQPf/jD6Ovrazhuy5Yt+OAHP4iTTz4Za9aswRlnnIGbbrqp4bhcLoePfvSjOOGEE/DSl74UV111FUqlUmsngSCIGYEx3QMgCIJoBfv27cPb3vY2MMbwzne+Ez09PXjggQfw8Y9/HPl8Hu95z3uiY//jP/4DjDG8733vw8DAAG677Ta85z3vwY9//GPEYjEAwA9/+ENcddVVOO644/ChD30IAwMD+Na3voVHHnkEP/rRj5BOpwEAf//73/HOd74ThmHg7W9/OxYvXowXXngBv/zlL3HFFVfUjfHyyy/HkiVL8KEPfQhPPPEE7rjjDvT09OAjH/nIlM0TQRBTAwksgiAOCm666Sb4vo+77roL3d3dAIALLrgAH/rQh/DlL38ZGzZsiI7NZDLYvHkzUqkUAODoo4/G5Zdfju9///t497vfDdd18fnPfx5HHHEEvvOd78C2bQDAS1/6Ulx88cW49dZbcdlllwEAPvWpT0Ephf/+7//GokWLont8+MMfbhjjUUcdheuvvz76+9DQEH7wgx+QwCKIgxBKERIEMetRSuEXv/gFTj/9dCilMDg4GP132mmnIZfL4fHHH4+Of9Ob3hSJKwA488wz0dvbi1//+tcAgL/97W8YGBjABRdcEIkrAHjlK1+JlStX4v777wcADA4O4o9//CPe8pa31IkrAGCMNYyzVuQBwAknnIChoSHk8/kDngOCIGYWFMEiCGLWMzg4iGw2i+9973v43ve+N+IxYVpv2bJldc8xxrBs2TLs3LkTALBr1y4AwIoVKxqus3LlSjz88MMAgO3btwMAjjjiiHGNc7gIC8eTyWTqBB9BELMfElgEQcx6pJQAgHPOOQdvfvObmx6zevVqPPvss1M5rAY4b540UEpN8UgIgmg3JLAIgpj19PT0IJlMQkqJU045ZcTjQoH1/PPP1z2ulMLzzz+P1atXA6hGmp577jmsW7eu7tjnnnsuen7p0qUAgKeffro1L4QgiIMGqsEiCGLWI4TAGWecgXvuuaep2BneouZHP/pRXd3T3Xffjf7+fqxfvx4AcOyxx2LOnDm4/fbb4ThOdNyvf/1rbNmyBa985SsBaGH3spe9DHfeeWeUVgyhqBRBHNpQBIsgiIOCf/mXf8Hvf/97vO1tb8Nb3/pWHH744chkMnj88cfx29/+Fn/4wx+iYzs7O/GOd7wD5513XmTTsGzZMrztbW8DAJimiQ9/+MO46qqrcOGFF+INb3hDZNOwePHiOsuHq6++GhdccAHe/OY34+1vfzuWLFmCnTt34v7778ePf/zjqZ4GgiBmCCSwCII4KJg7dy7uuOMO/L//9/9w77334rvf/S66urpw+OGHN1gmXHLJJXjqqafw1a9+FYVCAevWrcMnPvEJxOPx6JjzzjsPsVgMX/va1/D5z38eiUQCr3nNa/CRj3wkKk4HgCOPPBLf//738aUvfQnf/e53UalUsGjRIpx11llT9toJgph5MEVxbIIgDhF+//vf493vfje+9KUv4cwzz5zu4RAEcRBDNVgEQRAEQRAthgQWQRAEQRBEiyGBRRAEQRAE0WKoBosgCIIgCKLFUASLIAiCIAiixZDAIgiCIAiCaDEksAiCIAiCIFoMCSyCIAiCIIgWQwKLIAiCIAiixZDAIgiCIAiCaDEksAiCIAiCIFoMCSyCIAiCIIgWQwKLIAiCIAiixZDAIgiCIAiCaDEksAiCIAiCIFoMCSyCIAiCIIgWQwKLIAiCIAiixZDAIgiCIAiCaDEksAiCIAiCIFoMCSyCIAiCIIgW8/8DHWHE5HnWSsEAAAAASUVORK5CYII=;" vertex="1" parent="1">
                    <mxGeometry x="890" y="170" width="600" height="400" as="geometry"/>
                </mxCell>
            </root>
        </mxGraphModel>
    </diagram>
</mxfile>